Gabriela-Regular.ufo
<glyph name="exclam" format="1">
  <advance width="246"/>
  <unicode hex="0021"/>
  <outline>
    <contour>
      <point x="62" y="25"/>
      <point x="100" y="-14"/>
      <point x="123" y="-14" type="curve" smooth="yes"/>
      <point x="148" y="-14"/>
      <point x="186" y="25"/>
      <point x="186" y="51" type="curve" smooth="yes"/>
      <point x="186" y="77"/>
      <point x="148" y="117"/>
      <point x="123" y="117" type="curve" smooth="yes"/>
      <point x="99" y="117"/>
      <point x="62" y="77"/>
      <point x="62" y="51" type="curve" smooth="yes"/>
    </contour>
    <contour>
      <point x="96" y="767"/>
      <point x="75" y="759"/>
      <point x="60" y="742" type="curve"/>
      <point x="60" y="662"/>
      <point x="78" y="443"/>
      <point x="98" y="243" type="curve" smooth="yes"/>
      <point x="101" y="214"/>
      <point x="109" y="198"/>
      <point x="123" y="198" type="curve" smooth="yes"/>
      <point x="137" y="198"/>
      <point x="145" y="214"/>
      <point x="148" y="243" type="curve" smooth="yes"/>
      <point x="168" y="443"/>
      <point x="186" y="662"/>
      <point x="186" y="742" type="curve"/>
      <point x="170" y="759"/>
      <point x="149" y="767"/>
      <point x="123" y="767" type="curve" smooth="yes"/>
    </contour>
  </outline>
</glyph>
<glyph name="numbersign" format="1">
  <advance width="696"/>
  <unicode hex="0023"/>
  <outline>
    <contour>
      <point x="106" y="424" type="line"/>
      <point x="205" y="424" type="line"/>
      <point x="168" y="290" type="line"/>
      <point x="68" y="290" type="line"/>
      <point x="50" y="224" type="line"/>
      <point x="150" y="224" type="line"/>
      <point x="88" y="0" type="line"/>
      <point x="159" y="0" type="line"/>
      <point x="221" y="224" type="line"/>
      <point x="400" y="224" type="line"/>
      <point x="338" y="0" type="line"/>
      <point x="409" y="0" type="line"/>
      <point x="471" y="224" type="line"/>
      <point x="571" y="224" type="line"/>
      <point x="590" y="290" type="line"/>
      <point x="490" y="290" type="line"/>
      <point x="527" y="424" type="line"/>
      <point x="627" y="424" type="line"/>
      <point x="646" y="490" type="line"/>
      <point x="546" y="490" type="line"/>
      <point x="609" y="718" type="line"/>
      <point x="537" y="718" type="line"/>
      <point x="474" y="490" type="line"/>
      <point x="296" y="490" type="line"/>
      <point x="359" y="718" type="line"/>
      <point x="287" y="718" type="line"/>
      <point x="224" y="490" type="line"/>
      <point x="124" y="490" type="line"/>
    </contour>
    <contour>
      <point x="277" y="424" type="line"/>
      <point x="455" y="424" type="line"/>
      <point x="418" y="290" type="line"/>
      <point x="240" y="290" type="line"/>
    </contour>
  </outline>
</glyph>
<glyph name="parenleft" format="1">
  <advance width="352"/>
  <unicode hex="0028"/>
  <outline>
    <contour>
      <point x="166" y="532"/>
      <point x="231" y="670"/>
      <point x="321" y="729" type="curve"/>
      <point x="321" y="774" type="line"/>
      <point x="155" y="705"/>
      <point x="58" y="557"/>
      <point x="58" y="331" type="curve" smooth="yes"/>
      <point x="58" y="105"/>
      <point x="155" y="-43"/>
      <point x="321" y="-112" type="curve"/>
      <point x="321" y="-67" type="line"/>
      <point x="231" y="-8"/>
      <point x="166" y="129"/>
      <point x="166" y="331" type="curve" smooth="yes"/>
    </contour>
  </outline>
</glyph>
<glyph name="plus" format="1">
  <advance width="621"/>
  <unicode hex="002B"/>
  <outline>
    <contour>
      <point x="99" y="319" type="line"/>
      <point x="273" y="319" type="line"/>
      <point x="273" y="146" type="line"/>
      <point x="348" y="146" type="line"/>
      <point x="348" y="319" type="line"/>
      <point x="522" y="319" type="line"/>
      <point x="522" y="395" type="line"/>
      <point x="348" y="395" type="line"/>
      <point x="348" y="569" type="line"/>
      <point x="273" y="569" type="line"/>
      <point x="273" y="395" type="line"/>
      <point x="99" y="395" type="line"/>
    </contour>
  </outline>
</glyph>
<glyph name="period" format="1">
  <advance width="191"/>
  <unicode hex="002E"/>
  <outline>
    <contour>
      <point x="33" y="25"/>
      <point x="71" y="-14"/>
      <point x="94" y="-14" type="curve" smooth="yes"/>
      <point x="119" y="-14"/>
      <point x="157" y="25"/>
      <point x="157" y="51" type="curve" smooth="yes"/>
      <point x="157" y="77"/>
      <point x="119" y="117"/>
      <point x="94" y="117" type="curve" smooth="yes"/>
      <point x="70" y="117"/>
      <point x="33" y="77"/>
      <point x="33" y="51" type="curve" smooth="yes"/>
    </contour>
  </outline>
</glyph>
<glyph name="zero" format="1">
  <advance width="693"/>
  <unicode hex="0030"/>
  <outline>
    <contour>
      <point x="60" y="183"/>
      <point x="129" y="-14"/>
      <point x="334" y="-14" type="curve" smooth="yes"/>
      <point x="524" y="-14"/>
      <point x="633" y="166"/>
      <point x="633" y="380" type="curve" smooth="yes"/>
      <point x="633" y="577"/>
      <point x="540" y="732"/>
      <point x="359" y="732" type="curve" smooth="yes"/>
      <point x="173" y="732"/>
      <point x="60" y="565"/>
      <point x="60" y="360" type="curve" smooth="yes"/>
    </contour>
    <contour>
      <point x="166" y="532"/>
      <point x="223" y="675"/>
      <point x="346" y="675" type="curve" smooth="yes"/>
      <point x="466" y="675"/>
      <point x="526" y="532"/>
      <point x="526" y="358" type="curve" smooth="yes"/>
      <point x="526" y="184"/>
      <point x="466" y="43"/>
      <point x="346" y="43" type="curve" smooth="yes"/>
      <point x="223" y="43"/>
      <point x="166" y="184"/>
      <point x="166" y="358" type="curve" smooth="yes"/>
    </contour>
  </outline>
</glyph>
<glyph name="two" format="1">
  <advance width="596"/>
  <unicode hex="0032"/>
  <outline>
    <contour>
      <point x="522" y="0" type="line"/>
      <point x="548" y="21"/>
      <point x="556" y="60"/>
      <point x="556" y="91" type="curve"/>
      <point x="177" y="91" type="line"/>
      <point x="366" y="244"/>
      <point x="537" y="402"/>
      <point x="537" y="545" type="curve" smooth="yes"/>
      <point x="537" y="666"/>
      <point x="440" y="732"/>
      <point x="293" y="732" type="curve" smooth="yes"/>
      <point x="175" y="732"/>
      <point x="61" y="674"/>
      <point x="61" y="557" type="curve" smooth="yes"/>
      <point x="61" y="494"/>
      <point x="107" y="451"/>
      <point x="168" y="451" type="curve" smooth="yes"/>
      <point x="182" y="451"/>
      <point x="189" y="451"/>
      <point x="189" y="463" type="curve" smooth="yes"/>
      <point x="189" y="472"/>
      <point x="159" y="496"/>
      <point x="159" y="549" type="curve" smooth="yes"/>
      <point x="159" y="633"/>
      <point x="225" y="676"/>
      <point x="292" y="676" type="curve" smooth="yes"/>
      <point x="357" y="676"/>
      <point x="422" y="634"/>
      <point x="422" y="546" type="curve" smooth="yes"/>
      <point x="422" y="424"/>
      <point x="363" y="318"/>
      <point x="37" y="51" type="curve"/>
      <point x="64" y="0" type="line"/>
    </contour>
  </outline>
</glyph>
<glyph name="seven" format="1">
  <advance width="496"/>
  <unicode hex="0037"/>
  <outline>
    <contour>
      <point x="487" y="718" type="line"/>
      <point x="2" y="718" type="line"/>
      <point x="2" y="687"/>
      <point x="10" y="648"/>
      <point x="36" y="627" type="curve"/>
      <point x="381" y="627" type="line"/>
      <point x="191" y="139" type="line" smooth="yes"/>
      <point x="167" y="78"/>
      <point x="144" y="55"/>
      <point x="91" y="40" type="curve" smooth="yes"/>
      <point x="68" y="34" type="line"/>
      <point x="80" y="0" type="line"/>
      <point x="264" y="0" type="line"/>
      <point x="283" y="16" type="line"/>
      <point x="274" y="34" type="line" smooth="yes"/>
      <point x="264" y="53"/>
      <point x="260" y="73"/>
      <point x="260" y="95" type="curve" smooth="yes"/>
      <point x="260" y="123"/>
      <point x="266" y="156"/>
      <point x="283" y="200" type="curve" smooth="yes"/>
    </contour>
  </outline>
</glyph>
<glyph name="question" format="1">
  <advance width="538"/>
  <unicode hex="003F"/>
  <outline>
    <contour>
      <point x="172" y="25"/>
      <point x="210" y="-14"/>
      <point x="233" y="-14" type="curve" smooth="yes"/>
      <point x="258" y="-14"/>
      <point x="296" y="25"/>
      <point x="296" y="51" type="curve" smooth="yes"/>
      <point x="296" y="77"/>
      <point x="258" y="117"/>
      <point x="233" y="117" type="curve" smooth="yes"/>
      <point x="209" y="117"/>
      <point x="172" y="77"/>
      <point x="172" y="51" type="curve" smooth="yes"/>
    </contour>
    <contour>
      <point x="421" y="427"/>
      <point x="474" y="508"/>
      <point x="474" y="584" type="curve" smooth="yes"/>
      <point x="474" y="697"/>
      <point x="377" y="759"/>
      <point x="262" y="759" type="curve" smooth="yes"/>
      <point x="139" y="759"/>
      <point x="51" y="702"/>
      <point x="51" y="620" type="curve" smooth="yes"/>
      <point x="51" y="562"/>
      <point x="92" y="522"/>
      <point x="149" y="522" type="curve" smooth="yes"/>
      <point x="162" y="522"/>
      <point x="168" y="525"/>
      <point x="168" y="533" type="curve" smooth="yes"/>
      <point x="168" y="542"/>
      <point x="144" y="559"/>
      <point x="144" y="615" type="curve" smooth="yes"/>
      <point x="144" y="668"/>
      <point x="181" y="702"/>
      <point x="238" y="702" type="curve" smooth="yes"/>
      <point x="310" y="702"/>
      <point x="360" y="661"/>
      <point x="360" y="578" type="curve" smooth="yes"/>
      <point x="360" y="510"/>
      <point x="339" y="430"/>
      <point x="165" y="278" type="curve"/>
      <point x="226" y="216" type="line"/>
      <point x="245" y="216" type="line"/>
      <point x="250" y="235" type="line" smooth="yes"/>
      <point x="262" y="275"/>
      <point x="287" y="300"/>
      <point x="333" y="343" type="curve" smooth="yes"/>
    </contour>
  </outline>
</glyph>
<glyph name="D" format="1">
  <advance width="733"/>
  <unicode hex="0044"/>
  <outline>
    <contour>
      <point x="366" y="0" type="line" smooth="yes"/>
      <point x="589" y="0"/>
      <point x="698" y="159"/>
      <point x="698" y="358" type="curve" smooth="yes"/>
      <point x="698" y="557"/>
      <point x="605" y="732"/>
      <point x="306" y="732" type="curve" smooth="yes"/>
      <point x="204" y="732"/>
      <point x="91" y="708"/>
      <point x="35" y="688" type="curve"/>
      <point x="47" y="651" type="line"/>
      <point x="105" y="651" type="line" smooth="yes"/>
      <point x="120" y="651"/>
      <point x="127" y="645"/>
      <point x="127" y="627" type="curve" smooth="yes"/>
      <point x="127" y="122" type="line" smooth="yes"/>
      <point x="127" y="67"/>
      <point x="100" y="50"/>
      <point x="63" y="40" type="curve" smooth="yes"/>
      <point x="40" y="34" type="line"/>
      <point x="52" y="0" type="line"/>
    </contour>
    <contour>
      <point x="226" y="630" type="line"/>
      <point x="226" y="648"/>
      <point x="236" y="676"/>
      <point x="324" y="676" type="curve" smooth="yes"/>
      <point x="508" y="676"/>
      <point x="589" y="521"/>
      <point x="589" y="360" type="curve" smooth="yes"/>
      <point x="589" y="160"/>
      <point x="508" y="51"/>
      <point x="334" y="51" type="curve" smooth="yes"/>
      <point x="279" y="51"/>
      <point x="226" y="71"/>
      <point x="226" y="175" type="curve" smooth="yes"/>
    </contour>
  </outline>
</glyph>
<glyph name="G" format="1">
  <advance width="691"/>
  <unicode hex="0047"/>
  <outline>
    <contour>
      <point x="521" y="-12" type="line" smooth="yes"/>
      <point x="521" y="-168"/>
      <point x="474" y="-226"/>
      <point x="390" y="-226" type="curve" smooth="yes"/>
      <point x="325" y="-226"/>
      <point x="288" y="-184"/>
      <point x="288" y="-133" type="curve" smooth="yes"/>
      <point x="288" y="-60"/>
      <point x="337" y="-38"/>
      <point x="337" y="-25" type="curve" smooth="yes"/>
      <point x="337" y="-20"/>
      <point x="332" y="-14"/>
      <point x="318" y="-14" type="curve" smooth="yes"/>
      <point x="235" y="-14"/>
      <point x="191" y="-73"/>
      <point x="191" y="-135" type="curve" smooth="yes"/>
      <point x="191" y="-205"/>
      <point x="250" y="-278"/>
      <point x="373" y="-278" type="curve" smooth="yes"/>
      <point x="518" y="-278"/>
      <point x="611" y="-197"/>
      <point x="611" y="16" type="curve" smooth="yes"/>
      <point x="611" y="132" type="line" smooth="yes"/>
      <point x="611" y="213"/>
      <point x="623" y="255"/>
      <point x="656" y="299" type="curve" smooth="yes"/>
      <point x="669" y="317" type="line"/>
      <point x="656" y="333" type="line"/>
      <point x="446" y="333" type="line"/>
      <point x="434" y="299" type="line"/>
      <point x="457" y="293" type="line" smooth="yes"/>
      <point x="507" y="278"/>
      <point x="521" y="262"/>
      <point x="521" y="200" type="curve" smooth="yes"/>
      <point x="521" y="149" type="line"/>
      <point x="478" y="106"/>
      <point x="423" y="81"/>
      <point x="354" y="81" type="curve" smooth="yes"/>
      <point x="222" y="81"/>
      <point x="143" y="216"/>
      <point x="143" y="381" type="curve" smooth="yes"/>
      <point x="143" y="508"/>
      <point x="198" y="676"/>
      <point x="366" y="676" type="curve" smooth="yes"/>
      <point x="452" y="676"/>
      <point x="509" y="629"/>
      <point x="509" y="561" type="curve" smooth="yes"/>
      <point x="509" y="505"/>
      <point x="479" y="480"/>
      <point x="479" y="470" type="curve" smooth="yes"/>
      <point x="479" y="460"/>
      <point x="479" y="458"/>
      <point x="500" y="458" type="curve" smooth="yes"/>
      <point x="561" y="458"/>
      <point x="607" y="506"/>
      <point x="607" y="575" type="curve" smooth="yes"/>
      <point x="607" y="668"/>
      <point x="507" y="732"/>
      <point x="366" y="732" type="curve" smooth="yes"/>
      <point x="142" y="732"/>
      <point x="35" y="564"/>
      <point x="35" y="376" type="curve" smooth="yes"/>
      <point x="35" y="177"/>
      <point x="136" y="17"/>
      <point x="345" y="17" type="curve" smooth="yes"/>
      <point x="415" y="17"/>
      <point x="473" y="42"/>
      <point x="521" y="82" type="curve"/>
    </contour>
  </outline>
</glyph>
<glyph name="H" format="1">
  <advance width="779"/>
  <unicode hex="0048"/>
  <outline>
    <contour>
      <point x="723" y="0" type="line"/>
      <point x="734" y="32" type="line"/>
      <point x="713" y="38" type="line" smooth="yes"/>
      <point x="665" y="52"/>
      <point x="652" y="67"/>
      <point x="652" y="126" type="curve" smooth="yes"/>
      <point x="652" y="517" type="line" smooth="yes"/>
      <point x="652" y="598"/>
      <point x="664" y="640"/>
      <point x="697" y="684" type="curve" smooth="yes"/>
      <point x="710" y="702" type="line"/>
      <point x="697" y="718" type="line"/>
      <point x="478" y="718" type="line"/>
      <point x="466" y="684" type="line"/>
      <point x="489" y="678" type="line" smooth="yes"/>
      <point x="539" y="663"/>
      <point x="553" y="647"/>
      <point x="553" y="585" type="curve" smooth="yes"/>
      <point x="553" y="395" type="line"/>
      <point x="226" y="395" type="line"/>
      <point x="226" y="517" type="line" smooth="yes"/>
      <point x="226" y="598"/>
      <point x="238" y="640"/>
      <point x="271" y="684" type="curve" smooth="yes"/>
      <point x="284" y="702" type="line"/>
      <point x="271" y="718" type="line"/>
      <point x="52" y="718" type="line"/>
      <point x="40" y="684" type="line"/>
      <point x="63" y="678" type="line" smooth="yes"/>
      <point x="113" y="663"/>
      <point x="127" y="647"/>
      <point x="127" y="585" type="curve" smooth="yes"/>
      <point x="127" y="133" type="line" smooth="yes"/>
      <point x="127" y="71"/>
      <point x="113" y="55"/>
      <point x="63" y="40" type="curve" smooth="yes"/>
      <point x="40" y="34" type="line"/>
      <point x="52" y="0" type="line"/>
      <point x="297" y="0" type="line"/>
      <point x="308" y="32" type="line"/>
      <point x="287" y="38" type="line" smooth="yes"/>
      <point x="239" y="52"/>
      <point x="226" y="67"/>
      <point x="226" y="126" type="curve" smooth="yes"/>
      <point x="226" y="334" type="line"/>
      <point x="553" y="334" type="line"/>
      <point x="553" y="133" type="line" smooth="yes"/>
      <point x="553" y="71"/>
      <point x="539" y="55"/>
      <point x="489" y="40" type="curve" smooth="yes"/>
      <point x="466" y="34" type="line"/>
      <point x="478" y="0" type="line"/>
    </contour>
  </outline>
</glyph>
<glyph name="K" format="1">
  <advance width="668"/>
  <unicode hex="004B"/>
  <outline>
    <contour>
      <point x="297" y="0" type="line"/>
      <point x="308" y="32" type="line"/>
      <point x="287" y="38" type="line" smooth="yes"/>
      <point x="239" y="52"/>
      <point x="226" y="67"/>
      <point x="226" y="126" type="curve" smooth="yes"/>
      <point x="226" y="517" type="line" smooth="yes"/>
      <point x="226" y="598"/>
      <point x="238" y="640"/>
      <point x="271" y="684" type="curve" smooth="yes"/>
      <point x="284" y="702" type="line"/>
      <point x="271" y="718" type="line"/>
      <point x="52" y="718" type="line"/>
      <point x="40" y="684" type="line"/>
      <point x="63" y="678" type="line" smooth="yes"/>
      <point x="113" y="663"/>
      <point x="127" y="647"/>
      <point x="127" y="585" type="curve" smooth="yes"/>
      <point x="127" y="133" type="line" smooth="yes"/>
      <point x="127" y="71"/>
      <point x="113" y="55"/>
      <point x="63" y="40" type="curve" smooth="yes"/>
      <point x="40" y="34" type="line"/>
      <point x="52" y="0" type="line"/>
    </contour>
    <contour>
      <point x="429" y="299" type="line" smooth="yes"/>
      <point x="410" y="332"/>
      <point x="386" y="352"/>
      <point x="360" y="364" type="curve"/>
      <point x="540" y="624" type="line" smooth="yes"/>
      <point x="564" y="659"/>
      <point x="589" y="670"/>
      <point x="618" y="678" type="curve" smooth="yes"/>
      <point x="641" y="684" type="line"/>
      <point x="629" y="718" type="line"/>
      <point x="448" y="718" type="line"/>
      <point x="429" y="702" type="line"/>
      <point x="438" y="684" type="line" smooth="yes"/>
      <point x="443" y="673"/>
      <point x="451" y="655"/>
      <point x="451" y="639" type="curve" smooth="yes"/>
      <point x="451" y="623"/>
      <point x="448" y="611"/>
      <point x="430" y="583" type="curve" smooth="yes"/>
      <point x="294" y="380" type="line"/>
      <point x="286" y="381"/>
      <point x="278" y="381"/>
      <point x="270" y="381" type="curve" smooth="yes"/>
      <point x="253" y="381"/>
      <point x="250" y="366"/>
      <point x="250" y="357" type="curve" smooth="yes"/>
      <point x="250" y="352"/>
      <point x="251" y="348"/>
      <point x="255" y="346" type="curve" smooth="yes"/>
      <point x="280" y="335"/>
      <point x="291" y="327"/>
      <point x="306" y="301" type="curve" smooth="yes"/>
      <point x="425" y="83" type="line" smooth="yes"/>
      <point x="459" y="22"/>
      <point x="496" y="-14"/>
      <point x="559" y="-14" type="curve" smooth="yes"/>
      <point x="590" y="-14"/>
      <point x="622" y="-2"/>
      <point x="651" y="26" type="curve"/>
      <point x="634" y="55" type="line"/>
      <point x="620" y="45"/>
      <point x="608" y="41"/>
      <point x="595" y="41" type="curve" smooth="yes"/>
      <point x="577" y="41"/>
      <point x="567" y="54"/>
      <point x="557" y="72" type="curve" smooth="yes"/>
    </contour>
  </outline>
</glyph>
<glyph name="L" format="1">
  <advance width="550"/>
  <unicode hex="004C"/>
  <outline>
    <contour>
      <point x="226" y="517" type="line" smooth="yes"/>
      <point x="226" y="598"/>
      <point x="238" y="640"/>
      <point x="271" y="684" type="curve" smooth="yes"/>
      <point x="284" y="702" type="line"/>
      <point x="271" y="718" type="line"/>
      <point x="52" y="718" type="line"/>
      <point x="40" y="684" type="line"/>
      <point x="63" y="678" type="line" smooth="yes"/>
      <point x="113" y="663"/>
      <point x="127" y="647"/>
      <point x="127" y="585" type="curve" smooth="yes"/>
      <point x="127" y="126" type="line" smooth="yes"/>
      <point x="127" y="67"/>
      <point x="114" y="52"/>
      <point x="66" y="38" type="curve" smooth="yes"/>
      <point x="45" y="32" type="line"/>
      <point x="56" y="0" type="line"/>
      <point x="456" y="0" type="line" smooth="yes"/>
      <point x="477" y="0"/>
      <point x="490" y="-4"/>
      <point x="498" y="-14" type="curve" smooth="yes"/>
      <point x="506" y="-25" type="line"/>
      <point x="526" y="-14" type="line"/>
      <point x="526" y="157" type="line"/>
      <point x="492" y="169" type="line"/>
      <point x="486" y="146" type="line" smooth="yes"/>
      <point x="467" y="75"/>
      <point x="448" y="57"/>
      <point x="377" y="57" type="curve" smooth="yes"/>
      <point x="290" y="57" type="line" smooth="yes"/>
      <point x="238" y="57"/>
      <point x="226" y="71"/>
      <point x="226" y="133" type="curve" smooth="yes"/>
    </contour>
  </outline>
</glyph>
<glyph name="O" format="1">
  <advance width="733"/>
  <unicode hex="004F"/>
  <outline>
    <contour>
      <point x="589" y="183"/>
      <point x="506" y="45"/>
      <point x="362" y="45" type="curve" smooth="yes"/>
      <point x="217" y="45"/>
      <point x="143" y="180"/>
      <point x="143" y="350" type="curve" smooth="yes"/>
      <point x="143" y="527"/>
      <point x="225" y="675"/>
      <point x="371" y="675" type="curve" smooth="yes"/>
      <point x="541" y="675"/>
      <point x="589" y="480"/>
      <point x="589" y="355" type="curve" smooth="yes"/>
    </contour>
    <contour>
      <point x="35" y="152"/>
      <point x="142" y="-14"/>
      <point x="366" y="-14" type="curve" smooth="yes"/>
      <point x="589" y="-14"/>
      <point x="698" y="152"/>
      <point x="698" y="358" type="curve" smooth="yes"/>
      <point x="698" y="564"/>
      <point x="589" y="732"/>
      <point x="366" y="732" type="curve" smooth="yes"/>
      <point x="142" y="732"/>
      <point x="35" y="564"/>
      <point x="35" y="358" type="curve" smooth="yes"/>
    </contour>
  </outline>
</glyph>
<glyph name="T" format="1">
  <advance width="595"/>
  <unicode hex="0054"/>
  <outline>
    <contour>
      <point x="541" y="549" type="line"/>
      <point x="575" y="561" type="line"/>
      <point x="575" y="739" type="line"/>
      <point x="559" y="752" type="line"/>
      <point x="541" y="739" type="line" smooth="yes"/>
      <point x="521" y="724"/>
      <point x="485" y="718"/>
      <point x="427" y="718" type="curve" smooth="yes"/>
      <point x="168" y="718" type="line" smooth="yes"/>
      <point x="110" y="718"/>
      <point x="74" y="724"/>
      <point x="54" y="739" type="curve" smooth="yes"/>
      <point x="36" y="752" type="line"/>
      <point x="20" y="739" type="line"/>
      <point x="20" y="561" type="line"/>
      <point x="54" y="549" type="line"/>
      <point x="60" y="572" type="line" smooth="yes"/>
      <point x="79" y="643"/>
      <point x="98" y="661"/>
      <point x="169" y="661" type="curve" smooth="yes"/>
      <point x="214" y="661" type="line" smooth="yes"/>
      <point x="242" y="661"/>
      <point x="248" y="647"/>
      <point x="248" y="585" type="curve" smooth="yes"/>
      <point x="248" y="201" type="line" smooth="yes"/>
      <point x="248" y="120"/>
      <point x="236" y="78"/>
      <point x="203" y="34" type="curve" smooth="yes"/>
      <point x="190" y="16" type="line"/>
      <point x="203" y="0" type="line"/>
      <point x="422" y="0" type="line"/>
      <point x="434" y="34" type="line"/>
      <point x="411" y="40" type="line" smooth="yes"/>
      <point x="361" y="55"/>
      <point x="347" y="71"/>
      <point x="347" y="133" type="curve" smooth="yes"/>
      <point x="347" y="585" type="line" smooth="yes"/>
      <point x="347" y="647"/>
      <point x="353" y="661"/>
      <point x="381" y="661" type="curve" smooth="yes"/>
      <point x="426" y="661" type="line" smooth="yes"/>
      <point x="497" y="661"/>
      <point x="516" y="643"/>
      <point x="535" y="572" type="curve" smooth="yes"/>
    </contour>
  </outline>
</glyph>
<glyph name="W" format="1">
  <advance width="1087"/>
  <unicode hex="0057"/>
  <outline>
    <contour>
      <point x="1002" y="584" type="line" smooth="yes"/>
      <point x="1014" y="621"/>
      <point x="1031" y="653"/>
      <point x="1057" y="684" type="curve" smooth="yes"/>
      <point x="1072" y="702" type="line"/>
      <point x="1059" y="718" type="line"/>
      <point x="869" y="718" type="line"/>
      <point x="857" y="684" type="line"/>
      <point x="880" y="678" type="line" smooth="yes"/>
      <point x="910" y="670"/>
      <point x="924" y="647"/>
      <point x="925" y="611" type="curve" smooth="yes"/>
      <point x="925" y="587"/>
      <point x="918" y="556"/>
      <point x="906" y="518" type="curve" smooth="yes"/>
      <point x="766" y="83" type="line"/>
      <point x="603" y="585" type="line" smooth="yes"/>
      <point x="596" y="606"/>
      <point x="592" y="621"/>
      <point x="592" y="634" type="curve" smooth="yes"/>
      <point x="592" y="659"/>
      <point x="606" y="670"/>
      <point x="637" y="678" type="curve" smooth="yes"/>
      <point x="660" y="684" type="line"/>
      <point x="648" y="718" type="line"/>
      <point x="423" y="718" type="line"/>
      <point x="410" y="702" type="line"/>
      <point x="453" y="669"/>
      <point x="478" y="646"/>
      <point x="500" y="580" type="curve" smooth="yes"/>
      <point x="510" y="548" type="line"/>
      <point x="361" y="83" type="line"/>
      <point x="198" y="585" type="line" smooth="yes"/>
      <point x="191" y="606"/>
      <point x="187" y="621"/>
      <point x="187" y="634" type="curve" smooth="yes"/>
      <point x="187" y="659"/>
      <point x="201" y="670"/>
      <point x="232" y="678" type="curve" smooth="yes"/>
      <point x="255" y="684" type="line"/>
      <point x="243" y="718" type="line"/>
      <point x="18" y="718" type="line"/>
      <point x="5" y="702" type="line"/>
      <point x="48" y="669"/>
      <point x="73" y="646"/>
      <point x="95" y="580" type="curve" smooth="yes"/>
      <point x="290" y="0" type="line"/>
      <point x="404" y="0" type="line"/>
      <point x="548" y="436" type="line"/>
      <point x="695" y="0" type="line"/>
      <point x="809" y="0" type="line"/>
    </contour>
  </outline>
</glyph>
<glyph name="bracketleft" format="1">
  <advance width="387"/>
  <unicode hex="005B"/>
  <outline>
    <contour>
      <point x="126" y="-112" type="line"/>
      <point x="360" y="-112" type="line"/>
      <point x="360" y="-64" type="line"/>
      <point x="280" y="-52" type="line" smooth="yes"/>
      <point x="243" y="-46"/>
      <point x="225" y="-36"/>
      <point x="225" y="1" type="curve" smooth="yes"/>
      <point x="225" y="661" type="line" smooth="yes"/>
      <point x="225" y="698"/>
      <point x="243" y="708"/>
      <point x="280" y="714" type="curve" smooth="yes"/>
      <point x="360" y="726" type="line"/>
      <point x="360" y="774" type="line"/>
      <point x="126" y="774" type="line"/>
    </contour>
  </outline>
</glyph>
<glyph name="backslash" format="1">
  <advance width="371"/>
  <unicode hex="005C"/>
  <outline>
    <contour>
      <point x="371" y="-63" type="line"/>
      <point x="72" y="781" type="line"/>
      <point x="0" y="781" type="line"/>
      <point x="300" y="-63" type="line"/>
    </contour>
  </outline>
</glyph>
<glyph name="asciicircum" format="1">
  <advance width="621"/>
  <unicode hex="005E"/>
  <outline>
    <contour>
      <point x="267" y="718" type="line"/>
      <point x="96" y="398" type="line"/>
      <point x="177" y="398" type="line"/>
      <point x="309" y="653" type="line"/>
      <point x="443" y="398" type="line"/>
      <point x="524" y="398" type="line"/>
      <point x="353" y="718" type="line"/>
    </contour>
  </outline>
</glyph>
<glyph name="a" format="1">
  <advance width="604"/>
  <unicode hex="0061"/>
  <outline>
    <contour>
      <point x="401" y="17"/>
      <point x="423" y="-14"/>
      <point x="478" y="-14" type="curve" smooth="yes"/>
      <point x="512" y="-14"/>
      <point x="554" y="10"/>
      <point x="589" y="49" type="curve"/>
      <point x="570" y="75" type="line"/>
      <point x="553" y="63"/>
      <point x="535" y="57"/>
      <point x="520" y="57" type="curve" smooth="yes"/>
      <point x="501" y="57"/>
      <point x="490" y="67"/>
      <point x="490" y="88" type="curve" smooth="yes"/>
      <point x="490" y="415" type="line" smooth="yes"/>
      <point x="490" y="432"/>
      <point x="495" y="442"/>
      <point x="503" y="454" type="curve" smooth="yes"/>
      <point x="515" y="472" type="line"/>
      <point x="504" y="485" type="line"/>
      <point x="436" y="490"/>
      <point x="366" y="510"/>
      <point x="304" y="510" type="curve" smooth="yes"/>
      <point x="145" y="510"/>
      <point x="45" y="402"/>
      <point x="45" y="229" type="curve" smooth="yes"/>
      <point x="45" y="67"/>
      <point x="130" y="-14"/>
      <point x="224" y="-14" type="curve" smooth="yes"/>
      <point x="286" y="-14"/>
      <point x="343" y="11"/>
      <point x="401" y="92" type="curve"/>
    </contour>
    <contour>
      <point x="150" y="379"/>
      <point x="206" y="455"/>
      <point x="303" y="455" type="curve" smooth="yes"/>
      <point x="336" y="455"/>
      <point x="370" y="445"/>
      <point x="401" y="424" type="curve"/>
      <point x="401" y="154" type="line"/>
      <point x="364" y="91"/>
      <point x="315" y="63"/>
      <point x="264" y="63" type="curve" smooth="yes"/>
      <point x="205" y="63"/>
      <point x="150" y="112"/>
      <point x="150" y="248" type="curve" smooth="yes"/>
    </contour>
  </outline>
</glyph>
<glyph name="b" format="1">
  <advance width="590"/>
  <unicode hex="0062"/>
  <outline>
    <contour>
      <point x="383" y="454"/>
      <point x="439" y="370"/>
      <point x="439" y="248" type="curve" smooth="yes"/>
      <point x="439" y="122"/>
      <point x="383" y="42"/>
      <point x="294" y="42" type="curve" smooth="yes"/>
      <point x="251" y="42"/>
      <point x="220" y="52"/>
      <point x="189" y="74" type="curve"/>
      <point x="189" y="750" type="line" smooth="yes"/>
      <point x="189" y="769"/>
      <point x="176" y="782"/>
      <point x="157" y="782" type="curve" smooth="yes"/>
      <point x="119" y="782"/>
      <point x="64" y="757"/>
      <point x="25" y="722" type="curve"/>
      <point x="34" y="696" type="line"/>
      <point x="78" y="696" type="line" smooth="yes"/>
      <point x="92" y="696"/>
      <point x="98" y="690"/>
      <point x="98" y="674" type="curve" smooth="yes"/>
      <point x="98" y="49" type="line"/>
      <point x="137" y="10"/>
      <point x="208" y="-14"/>
      <point x="285" y="-14" type="curve" smooth="yes"/>
      <point x="434" y="-14"/>
      <point x="545" y="106"/>
      <point x="545" y="268" type="curve" smooth="yes"/>
      <point x="545" y="410"/>
      <point x="457" y="510"/>
      <point x="332" y="510" type="curve" smooth="yes"/>
      <point x="298" y="510"/>
      <point x="264" y="502"/>
      <point x="231" y="481" type="curve" smooth="yes"/>
      <point x="225" y="477"/>
      <point x="222" y="470"/>
      <point x="222" y="463" type="curve" smooth="yes"/>
      <point x="222" y="452"/>
      <point x="229" y="441"/>
      <point x="237" y="441" type="curve" smooth="yes"/>
      <point x="247" y="441"/>
      <point x="260" y="454"/>
      <point x="301" y="454" type="curve" smooth="yes"/>
    </contour>
  </outline>
</glyph>
<glyph name="c" format="1">
  <advance width="509"/>
  <unicode hex="0063"/>
  <outline>
    <contour>
      <point x="394" y="69"/>
      <point x="352" y="53"/>
      <point x="303" y="53" type="curve" smooth="yes"/>
      <point x="208" y="53"/>
      <point x="149" y="131"/>
      <point x="149" y="255" type="curve" smooth="yes"/>
      <point x="149" y="376"/>
      <point x="200" y="458"/>
      <point x="276" y="458" type="curve" smooth="yes"/>
      <point x="333" y="458"/>
      <point x="370" y="424"/>
      <point x="370" y="371" type="curve" smooth="yes"/>
      <point x="370" y="315"/>
      <point x="346" y="298"/>
      <point x="346" y="289" type="curve" smooth="yes"/>
      <point x="346" y="281"/>
      <point x="352" y="278"/>
      <point x="365" y="278" type="curve" smooth="yes"/>
      <point x="422" y="278"/>
      <point x="463" y="318"/>
      <point x="463" y="376" type="curve" smooth="yes"/>
      <point x="463" y="455"/>
      <point x="390" y="510"/>
      <point x="287" y="510" type="curve" smooth="yes"/>
      <point x="140" y="510"/>
      <point x="45" y="407"/>
      <point x="45" y="247" type="curve" smooth="yes"/>
      <point x="45" y="96"/>
      <point x="146" y="-14"/>
      <point x="286" y="-14" type="curve" smooth="yes"/>
      <point x="355" y="-14"/>
      <point x="419" y="15"/>
      <point x="466" y="69" type="curve" smooth="yes"/>
      <point x="468" y="71"/>
      <point x="469" y="74"/>
      <point x="469" y="78" type="curve" smooth="yes"/>
      <point x="469" y="91"/>
      <point x="455" y="106"/>
      <point x="444" y="106" type="curve" smooth="yes"/>
      <point x="439" y="106"/>
      <point x="436" y="104"/>
      <point x="435" y="103" type="curve" smooth="yes"/>
    </contour>
  </outline>
</glyph>
<glyph name="h" format="1">
  <advance width="639"/>
  <unicode hex="0068"/>
  <outline>
    <contour>
      <point x="108" y="111" type="line" smooth="yes"/>
      <point x="108" y="61"/>
      <point x="100" y="44"/>
      <point x="66" y="36" type="curve" smooth="yes"/>
      <point x="45" y="31" type="line"/>
      <point x="56" y="0" type="line"/>
      <point x="231" y="0" type="line"/>
      <point x="243" y="15" type="line"/>
      <point x="231" y="31" type="line" smooth="yes"/>
      <point x="207" y="65"/>
      <point x="199" y="97"/>
      <point x="199" y="160" type="curve" smooth="yes"/>
      <point x="199" y="322"/>
      <point x="258" y="432"/>
      <point x="344" y="432" type="curve" smooth="yes"/>
      <point x="408" y="432"/>
      <point x="430" y="396"/>
      <point x="430" y="328" type="curve" smooth="yes"/>
      <point x="430" y="90" type="line" smooth="yes"/>
      <point x="430" y="15"/>
      <point x="452" y="-16"/>
      <point x="507" y="-16" type="curve" smooth="yes"/>
      <point x="541" y="-16"/>
      <point x="584" y="8"/>
      <point x="619" y="47" type="curve"/>
      <point x="600" y="73" type="line"/>
      <point x="583" y="59"/>
      <point x="565" y="52"/>
      <point x="550" y="52" type="curve" smooth="yes"/>
      <point x="530" y="52"/>
      <point x="520" y="64"/>
      <point x="520" y="86" type="curve" smooth="yes"/>
      <point x="520" y="328" type="line" smooth="yes"/>
      <point x="520" y="453"/>
      <point x="486" y="510"/>
      <point x="386" y="510" type="curve" smooth="yes"/>
      <point x="310" y="510"/>
      <point x="233" y="448"/>
      <point x="199" y="361" type="curve"/>
      <point x="199" y="750" type="line" smooth="yes"/>
      <point x="199" y="769"/>
      <point x="186" y="782"/>
      <point x="167" y="782" type="curve" smooth="yes"/>
      <point x="129" y="782"/>
      <point x="74" y="757"/>
      <point x="35" y="722" type="curve"/>
      <point x="44" y="696" type="line"/>
      <point x="88" y="696" type="line" smooth="yes"/>
      <point x="102" y="696"/>
      <point x="108" y="690"/>
      <point x="108" y="674" type="curve" smooth="yes"/>
    </contour>
  </outline>
</glyph>
<glyph name="l" format="1">
  <advance width="302"/>
  <unicode hex="006C"/>
  <outline>
    <contour>
      <point x="189" y="750" type="line" smooth="yes"/>
      <point x="189" y="769"/>
      <point x="176" y="782"/>
      <point x="157" y="782" type="curve" smooth="yes"/>
      <point x="119" y="782"/>
      <point x="64" y="757"/>
      <point x="25" y="722" type="curve"/>
      <point x="34" y="696" type="line"/>
      <point x="78" y="696" type="line" smooth="yes"/>
      <point x="92" y="696"/>
      <point x="98" y="690"/>
      <point x="98" y="674" type="curve" smooth="yes"/>
      <point x="98" y="92" type="line" smooth="yes"/>
      <point x="98" y="17"/>
      <point x="120" y="-14"/>
      <point x="175" y="-14" type="curve" smooth="yes"/>
      <point x="209" y="-14"/>
      <point x="252" y="10"/>
      <point x="287" y="49" type="curve"/>
      <point x="268" y="75" type="line"/>
      <point x="251" y="61"/>
      <point x="233" y="54"/>
      <point x="218" y="54" type="curve" smooth="yes"/>
      <point x="198" y="54"/>
      <point x="188" y="66"/>
      <point x="188" y="88" type="curve" smooth="yes"/>
    </contour>
  </outline>
</glyph>
<glyph name="m" format="1">
  <advance width="941"/>
  <unicode hex="006D"/>
  <outline>
    <contour>
      <point x="204" y="322"/>
      <point x="263" y="432"/>
      <point x="349" y="432" type="curve" smooth="yes"/>
      <point x="398" y="432"/>
      <point x="423" y="398"/>
      <point x="423" y="330" type="curve" smooth="yes"/>
      <point x="423" y="0" type="line"/>
      <point x="545" y="0" type="line"/>
      <point x="557" y="15" type="line"/>
      <point x="519" y="60"/>
      <point x="513" y="96"/>
      <point x="513" y="160" type="curve" smooth="yes"/>
      <point x="513" y="172" type="line" smooth="yes"/>
      <point x="516" y="327"/>
      <point x="574" y="432"/>
      <point x="658" y="432" type="curve" smooth="yes"/>
      <point x="707" y="432"/>
      <point x="732" y="398"/>
      <point x="732" y="330" type="curve" smooth="yes"/>
      <point x="732" y="92" type="line" smooth="yes"/>
      <point x="732" y="17"/>
      <point x="754" y="-14"/>
      <point x="809" y="-14" type="curve" smooth="yes"/>
      <point x="843" y="-14"/>
      <point x="886" y="10"/>
      <point x="921" y="49" type="curve"/>
      <point x="902" y="75" type="line"/>
      <point x="884" y="61"/>
      <point x="867" y="54"/>
      <point x="852" y="54" type="curve" smooth="yes"/>
      <point x="832" y="54"/>
      <point x="822" y="66"/>
      <point x="822" y="88" type="curve" smooth="yes"/>
      <point x="822" y="330" type="line" smooth="yes"/>
      <point x="822" y="455"/>
      <point x="783" y="510"/>
      <point x="694" y="510" type="curve" smooth="yes"/>
      <point x="621" y="510"/>
      <point x="547" y="448"/>
      <point x="513" y="361" type="curve"/>
      <point x="506" y="464"/>
      <point x="466" y="510"/>
      <point x="385" y="510" type="curve" smooth="yes"/>
      <point x="312" y="510"/>
      <point x="238" y="448"/>
      <point x="204" y="361" type="curve"/>
      <point x="204" y="468" type="line" smooth="yes"/>
      <point x="204" y="487"/>
      <point x="191" y="500"/>
      <point x="172" y="500" type="curve" smooth="yes"/>
      <point x="134" y="500"/>
      <point x="79" y="475"/>
      <point x="40" y="440" type="curve"/>
      <point x="49" y="414" type="line"/>
      <point x="93" y="414" type="line" smooth="yes"/>
      <point x="107" y="414"/>
      <point x="113" y="408"/>
      <point x="113" y="392" type="curve" smooth="yes"/>
      <point x="113" y="111" type="line" smooth="yes"/>
      <point x="113" y="61"/>
      <point x="105" y="44"/>
      <point x="71" y="36" type="curve" smooth="yes"/>
      <point x="50" y="31" type="line"/>
      <point x="61" y="0" type="line"/>
      <point x="236" y="0" type="line"/>
      <point x="248" y="15" type="line"/>
      <point x="236" y="31" type="line" smooth="yes"/>
      <point x="212" y="65"/>
      <point x="204" y="97"/>
      <point x="204" y="160" type="curve" smooth="yes"/>
    </contour>
  </outline>
</glyph>
<glyph name="n" format="1">
  <advance width="644"/>
  <unicode hex="006E"/>
  <outline>
    <contour>
      <point x="204" y="322"/>
      <point x="263" y="432"/>
      <point x="349" y="432" type="curve" smooth="yes"/>
      <point x="406" y="432"/>
      <point x="435" y="398"/>
      <point x="435" y="330" type="curve" smooth="yes"/>
      <point x="435" y="92" type="line" smooth="yes"/>
      <point x="435" y="17"/>
      <point x="457" y="-14"/>
      <point x="512" y="-14" type="curve" smooth="yes"/>
      <point x="546" y="-14"/>
      <point x="589" y="10"/>
      <point x="624" y="49" type="curve"/>
      <point x="605" y="75" type="line"/>
      <point x="587" y="61"/>
      <point x="570" y="54"/>
      <point x="555" y="54" type="curve" smooth="yes"/>
      <point x="535" y="54"/>
      <point x="525" y="66"/>
      <point x="525" y="88" type="curve" smooth="yes"/>
      <point x="525" y="330" type="line" smooth="yes"/>
      <point x="525" y="455"/>
      <point x="484" y="510"/>
      <point x="391" y="510" type="curve" smooth="yes"/>
      <point x="315" y="510"/>
      <point x="238" y="448"/>
      <point x="204" y="361" type="curve"/>
      <point x="204" y="468" type="line" smooth="yes"/>
      <point x="204" y="487"/>
      <point x="191" y="500"/>
      <point x="172" y="500" type="curve" smooth="yes"/>
      <point x="134" y="500"/>
      <point x="79" y="475"/>
      <point x="40" y="440" type="curve"/>
      <point x="49" y="414" type="line"/>
      <point x="93" y="414" type="line" smooth="yes"/>
      <point x="107" y="414"/>
      <point x="113" y="408"/>
      <point x="113" y="392" type="curve" smooth="yes"/>
      <point x="113" y="111" type="line" smooth="yes"/>
      <point x="113" y="61"/>
      <point x="105" y="44"/>
      <point x="71" y="36" type="curve" smooth="yes"/>
      <point x="50" y="31" type="line"/>
      <point x="61" y="0" type="line"/>
      <point x="236" y="0" type="line"/>
      <point x="248" y="15" type="line"/>
      <point x="236" y="31" type="line" smooth="yes"/>
      <point x="212" y="65"/>
      <point x="204" y="97"/>
      <point x="204" y="160" type="curve" smooth="yes"/>
    </contour>
  </outline>
</glyph>
<glyph name="y" format="1">
  <advance width="610"/>
  <unicode hex="0079"/>
  <outline>
    <contour>
      <point x="426" y="-278"/>
      <point x="513" y="-188"/>
      <point x="513" y="-22" type="curve" smooth="yes"/>
      <point x="513" y="511" type="line"/>
      <point x="391" y="498" type="line"/>
      <point x="379" y="483" type="line"/>
      <point x="391" y="467" type="line" smooth="yes"/>
      <point x="427" y="420"/>
      <point x="430" y="370"/>
      <point x="430" y="272" type="curve" smooth="yes"/>
      <point x="430" y="153"/>
      <point x="377" y="82"/>
      <point x="288" y="82" type="curve" smooth="yes"/>
      <point x="227" y="82"/>
      <point x="194" y="124"/>
      <point x="194" y="204" type="curve" smooth="yes"/>
      <point x="194" y="479" type="line" smooth="yes"/>
      <point x="194" y="498"/>
      <point x="181" y="511"/>
      <point x="162" y="511" type="curve" smooth="yes"/>
      <point x="121" y="511"/>
      <point x="65" y="486"/>
      <point x="30" y="451" type="curve"/>
      <point x="39" y="425" type="line"/>
      <point x="83" y="425" type="line" smooth="yes"/>
      <point x="97" y="425"/>
      <point x="103" y="419"/>
      <point x="103" y="403" type="curve" smooth="yes"/>
      <point x="103" y="181" type="line" smooth="yes"/>
      <point x="103" y="76"/>
      <point x="159" y="15"/>
      <point x="254" y="15" type="curve" smooth="yes"/>
      <point x="328" y="15"/>
      <point x="393" y="52"/>
      <point x="424" y="110" type="curve"/>
      <point x="424" y="-38" type="line" smooth="yes"/>
      <point x="424" y="-146"/>
      <point x="390" y="-226"/>
      <point x="304" y="-226" type="curve" smooth="yes"/>
      <point x="249" y="-226"/>
      <point x="217" y="-184"/>
      <point x="217" y="-133" type="curve" smooth="yes"/>
      <point x="217" y="-60"/>
      <point x="266" y="-38"/>
      <point x="266" y="-25" type="curve" smooth="yes"/>
      <point x="266" y="-20"/>
      <point x="261" y="-14"/>
      <point x="247" y="-14" type="curve" smooth="yes"/>
      <point x="164" y="-14"/>
      <point x="120" y="-73"/>
      <point x="120" y="-135" type="curve" smooth="yes"/>
      <point x="120" y="-205"/>
      <point x="175" y="-278"/>
      <point x="291" y="-278" type="curve" smooth="yes"/>
    </contour>
  </outline>
</glyph>
<glyph name="z" format="1">
  <advance width="479"/>
  <unicode hex="007A"/>
  <outline>
    <contour>
      <point x="419" y="438" type="line"/>
      <point x="446" y="454" type="line"/>
      <point x="446" y="472"/>
      <point x="440" y="485"/>
      <point x="426" y="497" type="curve"/>
      <point x="177" y="497" type="line" smooth="yes"/>
      <point x="116" y="497"/>
      <point x="87" y="502"/>
      <point x="58" y="521" type="curve"/>
      <point x="46" y="509" type="line"/>
      <point x="46" y="355" type="line"/>
      <point x="77" y="344" type="line"/>
      <point x="89" y="397" type="line" smooth="yes"/>
      <point x="97" y="431"/>
      <point x="114" y="439"/>
      <point x="164" y="439" type="curve" smooth="yes"/>
      <point x="314" y="439" type="line"/>
      <point x="33" y="31" type="line"/>
      <point x="44" y="0" type="line"/>
      <point x="300" y="0" type="line" smooth="yes"/>
      <point x="361" y="0"/>
      <point x="390" y="-5"/>
      <point x="419" y="-24" type="curve"/>
      <point x="431" y="-12" type="line"/>
      <point x="431" y="142" type="line"/>
      <point x="400" y="153" type="line"/>
      <point x="388" y="100" type="line" smooth="yes"/>
      <point x="380" y="66"/>
      <point x="363" y="58"/>
      <point x="313" y="58" type="curve" smooth="yes"/>
      <point x="156" y="58" type="line"/>
    </contour>
  </outline>
</glyph>
<glyph name="braceleft" format="1">
  <advance width="316"/>
  <unicode hex="007B"/>
  <outline>
    <contour>
      <point x="187" y="272"/>
      <point x="142" y="318"/>
      <point x="77" y="331" type="curve"/>
      <point x="142" y="345"/>
      <point x="187" y="390"/>
      <point x="187" y="502" type="curve" smooth="yes"/>
      <point x="187" y="616"/>
      <point x="217" y="712"/>
      <point x="289" y="729" type="curve"/>
      <point x="282" y="774" type="line"/>
      <point x="132" y="756"/>
      <point x="76" y="640"/>
      <point x="76" y="502" type="curve" smooth="yes"/>
      <point x="76" y="398"/>
      <point x="57" y="361"/>
      <point x="0" y="350" type="curve"/>
      <point x="0" y="312" type="line"/>
      <point x="57" y="301"/>
      <point x="76" y="264"/>
      <point x="76" y="160" type="curve" smooth="yes"/>
      <point x="76" y="22"/>
      <point x="132" y="-94"/>
      <point x="282" y="-112" type="curve"/>
      <point x="289" y="-67" type="line"/>
      <point x="217" y="-50"/>
      <point x="187" y="46"/>
      <point x="187" y="160" type="curve" smooth="yes"/>
    </contour>
  </outline>
</glyph>
<glyph name="asciitilde" format="1">
  <advance width="621"/>
  <unicode hex="007E"/>
  <outline>
    <contour>
      <point x="522" y="398" type="line"/>
      <point x="495" y="421"/>
      <point x="460" y="430"/>
      <point x="425" y="430" type="curve" smooth="yes"/>
      <point x="340" y="430"/>
      <point x="283" y="366"/>
      <point x="200" y="366" type="curve" smooth="yes"/>
      <point x="164" y="366"/>
      <point x="129" y="377"/>
      <point x="99" y="398" type="curve"/>
      <point x="99" y="322" type="line"/>
      <point x="126" y="300"/>
      <point x="161" y="290"/>
      <point x="196" y="290" type="curve" smooth="yes"/>
      <point x="281" y="290"/>
      <point x="338" y="355"/>
      <point x="421" y="355" type="curve" smooth="yes"/>
      <point x="457" y="355"/>
      <point x="492" y="343"/>
      <point x="522" y="322" type="curve"/>
    </contour>
  </outline>
</glyph>
<glyph name="sterling" format="1">
  <advance width="596"/>
  <unicode hex="00A3"/>
  <outline>
    <contour>
      <point x="392" y="676"/>
      <point x="444" y="646"/>
      <point x="444" y="587" type="curve" smooth="yes"/>
      <point x="444" y="534"/>
      <point x="414" y="510"/>
      <point x="414" y="501" type="curve" smooth="yes"/>
      <point x="414" y="489"/>
      <point x="421" y="489"/>
      <point x="435" y="489" type="curve" smooth="yes"/>
      <point x="495" y="489"/>
      <point x="542" y="533"/>
      <point x="542" y="595" type="curve" smooth="yes"/>
      <point x="542" y="687"/>
      <point x="443" y="732"/>
      <point x="340" y="732" type="curve" smooth="yes"/>
      <point x="169" y="732"/>
      <point x="99" y="637"/>
      <point x="99" y="511" type="curve" smooth="yes"/>
      <point x="99" y="466"/>
      <point x="114" y="416"/>
      <point x="127" y="365" type="curve"/>
      <point x="53" y="365" type="line"/>
      <point x="35" y="352"/>
      <point x="30" y="324"/>
      <point x="30" y="302" type="curve"/>
      <point x="142" y="302" type="line"/>
      <point x="145" y="283"/>
      <point x="147" y="265"/>
      <point x="147" y="247" type="curve" smooth="yes"/>
      <point x="147" y="176"/>
      <point x="104" y="93"/>
      <point x="31" y="43" type="curve"/>
      <point x="56" y="0" type="line"/>
      <point x="522" y="0" type="line"/>
      <point x="548" y="21"/>
      <point x="556" y="60"/>
      <point x="556" y="91" type="curve"/>
      <point x="159" y="91" type="line"/>
      <point x="208" y="155"/>
      <point x="230" y="231"/>
      <point x="230" y="302" type="curve"/>
      <point x="418" y="302" type="line"/>
      <point x="436" y="316"/>
      <point x="441" y="343"/>
      <point x="441" y="365" type="curve"/>
      <point x="224" y="365" type="line"/>
      <point x="216" y="409"/>
      <point x="205" y="452"/>
      <point x="205" y="496" type="curve" smooth="yes"/>
      <point x="205" y="651"/>
      <point x="277" y="676"/>
      <point x="341" y="676" type="curve" smooth="yes"/>
    </contour>
  </outline>
</glyph>
<glyph name="yen" format="1">
  <advance width="626"/>
  <unicode hex="00A5"/>
  <outline>
    <contour>
      <point x="373" y="395" type="line"/>
      <point x="555" y="395" type="line"/>
      <point x="573" y="409"/>
      <point x="579" y="436"/>
      <point x="579" y="458" type="curve"/>
      <point x="413" y="458" type="line"/>
    </contour>
    <contour>
      <point x="555" y="233" type="line"/>
      <point x="573" y="247"/>
      <point x="579" y="274"/>
      <point x="579" y="296" type="curve"/>
      <point x="89" y="296" type="line"/>
      <point x="71" y="283"/>
      <point x="66" y="255"/>
      <point x="66" y="233" type="curve"/>
    </contour>
    <contour>
      <point x="238" y="458" type="line"/>
      <point x="89" y="458" type="line"/>
      <point x="71" y="445"/>
      <point x="66" y="417"/>
      <point x="66" y="395" type="curve"/>
      <point x="265" y="395" type="line"/>
    </contour>
    <component base="Y" xOffset="9"/>
  </outline>
</glyph>
<glyph name="copyright" format="1">
  <advance width="778"/>
  <unicode hex="00A9"/>
  <outline>
    <contour>
      <point x="482" y="574" type="line"/>
      <point x="493" y="574"/>
      <point x="510" y="578"/>
      <point x="516" y="588" type="curve"/>
      <point x="516" y="697" type="line"/>
      <point x="491" y="697" type="line"/>
      <point x="482" y="679" type="line"/>
      <point x="456" y="695"/>
      <point x="428" y="703"/>
      <point x="394" y="703" type="curve" smooth="yes"/>
      <point x="273" y="703"/>
      <point x="216" y="611"/>
      <point x="216" y="501" type="curve" smooth="yes"/>
      <point x="216" y="389"/>
      <point x="273" y="298"/>
      <point x="393" y="298" type="curve" smooth="yes"/>
      <point x="453" y="298"/>
      <point x="495" y="327"/>
      <point x="525" y="373" type="curve"/>
      <point x="499" y="396" type="line"/>
      <point x="477" y="363"/>
      <point x="443" y="342"/>
      <point x="397" y="342" type="curve" smooth="yes"/>
      <point x="327" y="342"/>
      <point x="285" y="413"/>
      <point x="285" y="501" type="curve" smooth="yes"/>
      <point x="285" y="579"/>
      <point x="312" y="666"/>
      <point x="394" y="666" type="curve" smooth="yes"/>
      <point x="425" y="666"/>
      <point x="451" y="651"/>
      <point x="469" y="626" type="curve"/>
    </contour>
    <contour>
      <point x="126" y="643"/>
      <point x="244" y="761"/>
      <point x="389" y="761" type="curve" smooth="yes"/>
      <point x="534" y="761"/>
      <point x="652" y="643"/>
      <point x="652" y="498" type="curve" smooth="yes"/>
      <point x="652" y="353"/>
      <point x="534" y="235"/>
      <point x="389" y="235" type="curve" smooth="yes"/>
      <point x="244" y="235"/>
      <point x="126" y="353"/>
      <point x="126" y="498" type="curve" smooth="yes"/>
    </contour>
    <contour>
      <point x="100" y="339"/>
      <point x="230" y="209"/>
      <point x="389" y="209" type="curve" smooth="yes"/>
      <point x="548" y="209"/>
      <point x="678" y="339"/>
      <point x="678" y="498" type="curve" smooth="yes"/>
      <point x="678" y="657"/>
      <point x="548" y="787"/>
      <point x="389" y="787" type="curve" smooth="yes"/>
      <point x="230" y="787"/>
      <point x="100" y="657"/>
      <point x="100" y="498" type="curve" smooth="yes"/>
    </contour>
  </outline>
</glyph>
<glyph name="ordfeminine" format="1">
  <advance width="398"/>
  <unicode hex="00AA"/>
  <outline>
    <contour>
      <point x="244" y="558" type="line"/>
      <point x="223" y="562"/>
      <point x="204" y="562"/>
      <point x="190" y="562" type="curve" smooth="yes"/>
      <point x="101" y="562"/>
      <point x="45" y="520"/>
      <point x="45" y="452" type="curve" smooth="yes"/>
      <point x="45" y="399"/>
      <point x="86" y="361"/>
      <point x="142" y="361" type="curve" smooth="yes"/>
      <point x="186" y="361"/>
      <point x="223" y="381"/>
      <point x="245" y="414" type="curve"/>
      <point x="250" y="377"/>
      <point x="268" y="361"/>
      <point x="303" y="361" type="curve" smooth="yes"/>
      <point x="329" y="361"/>
      <point x="361" y="380"/>
      <point x="388" y="409" type="curve"/>
      <point x="369" y="435" type="line"/>
      <point x="354" y="425"/>
      <point x="341" y="420"/>
      <point x="333" y="420" type="curve" smooth="yes"/>
      <point x="324" y="420"/>
      <point x="319" y="425"/>
      <point x="319" y="437" type="curve" smooth="yes"/>
      <point x="319" y="602" type="line" smooth="yes"/>
      <point x="319" y="691"/>
      <point x="282" y="731"/>
      <point x="196" y="731" type="curve" smooth="yes"/>
      <point x="124" y="731"/>
      <point x="63" y="688"/>
      <point x="63" y="636" type="curve" smooth="yes"/>
      <point x="63" y="613"/>
      <point x="80" y="598"/>
      <point x="102" y="598" type="curve" smooth="yes"/>
      <point x="116" y="598"/>
      <point x="130" y="603"/>
      <point x="142" y="613" type="curve"/>
      <point x="142" y="663"/>
      <point x="160" y="689"/>
      <point x="196" y="689" type="curve" smooth="yes"/>
      <point x="228" y="689"/>
      <point x="244" y="664"/>
      <point x="244" y="615" type="curve" smooth="yes"/>
    </contour>
    <contour>
      <point x="142" y="416"/>
      <point x="126" y="433"/>
      <point x="126" y="462" type="curve" smooth="yes"/>
      <point x="126" y="500"/>
      <point x="154" y="522"/>
      <point x="205" y="522" type="curve" smooth="yes"/>
      <point x="222" y="522"/>
      <point x="236" y="521"/>
      <point x="244" y="518" type="curve"/>
      <point x="243" y="458"/>
      <point x="214" y="416"/>
      <point x="171" y="416" type="curve" smooth="yes"/>
    </contour>
  </outline>
</glyph>
<glyph name="guillemetleft" format="1">
  <advance width="506"/>
  <unicode hex="00AB"/>
  <outline>
    <contour>
      <point x="226" y="155"/>
      <point x="163" y="223"/>
      <point x="110" y="279" type="curve"/>
      <point x="163" y="335"/>
      <point x="226" y="402"/>
      <point x="247" y="440" type="curve"/>
      <point x="217" y="478"/>
      <point x="187" y="484"/>
      <point x="161" y="486" type="curve"/>
      <point x="77" y="350"/>
      <point x="50" y="303"/>
      <point x="50" y="279" type="curve" smooth="yes"/>
      <point x="50" y="253"/>
      <point x="81" y="202"/>
      <point x="161" y="72" type="curve"/>
      <point x="187" y="74"/>
      <point x="217" y="79"/>
      <point x="247" y="118" type="curve"/>
    </contour>
    <contour>
      <point x="435" y="155"/>
      <point x="372" y="223"/>
      <point x="319" y="279" type="curve"/>
      <point x="372" y="335"/>
      <point x="435" y="402"/>
      <point x="456" y="440" type="curve"/>
      <point x="426" y="478"/>
      <point x="396" y="484"/>
      <point x="370" y="486" type="curve"/>
      <point x="286" y="350"/>
      <point x="259" y="303"/>
      <point x="259" y="279" type="curve" smooth="yes"/>
      <point x="259" y="253"/>
      <point x="290" y="202"/>
      <point x="370" y="72" type="curve"/>
      <point x="396" y="74"/>
      <point x="426" y="79"/>
      <point x="456" y="118" type="curve"/>
    </contour>
  </outline>
</glyph>
<glyph name="logicalnot" format="1">
  <advance width="621"/>
  <unicode hex="00AC"/>
  <outline>
    <contour>
      <point x="99" y="319" type="line"/>
      <point x="454" y="319" type="line"/>
      <point x="454" y="168" type="line"/>
      <point x="522" y="168" type="line"/>
      <point x="522" y="395" type="line"/>
      <point x="99" y="395" type="line"/>
    </contour>
  </outline>
</glyph>
<glyph name="registered" format="1">
  <advance width="778"/>
  <unicode hex="00AE"/>
  <outline>
    <contour>
      <point x="452" y="358" type="line"/>
      <point x="456" y="350"/>
      <point x="459" y="345"/>
      <point x="459" y="340" type="curve" smooth="yes"/>
      <point x="459" y="334"/>
      <point x="457" y="329"/>
      <point x="454" y="322" type="curve" smooth="yes"/>
      <point x="450" y="315" type="line"/>
      <point x="459" y="305" type="line"/>
      <point x="546" y="305" type="line"/>
      <point x="555" y="312"/>
      <point x="559" y="324"/>
      <point x="559" y="335" type="curve"/>
      <point x="528" y="346" type="line"/>
      <point x="467" y="459" type="line" smooth="yes"/>
      <point x="464" y="466"/>
      <point x="455" y="475"/>
      <point x="447" y="483" type="curve"/>
      <point x="497" y="504"/>
      <point x="519" y="547"/>
      <point x="519" y="590" type="curve" smooth="yes"/>
      <point x="519" y="648"/>
      <point x="480" y="696"/>
      <point x="368" y="696" type="curve" smooth="yes"/>
      <point x="258" y="696" type="line"/>
      <point x="248" y="689"/>
      <point x="243" y="675"/>
      <point x="243" y="664" type="curve"/>
      <point x="276" y="652" type="line"/>
      <point x="276" y="358" type="line" smooth="yes"/>
      <point x="276" y="349"/>
      <point x="273" y="345"/>
      <point x="267" y="342" type="curve" smooth="yes"/>
      <point x="243" y="329" type="line"/>
      <point x="243" y="305" type="line"/>
      <point x="359" y="305" type="line"/>
      <point x="369" y="313"/>
      <point x="374" y="326"/>
      <point x="374" y="338" type="curve"/>
      <point x="341" y="349" type="line"/>
      <point x="341" y="468" type="line"/>
      <point x="370" y="468" type="line" smooth="yes"/>
      <point x="390" y="468"/>
      <point x="398" y="462"/>
      <point x="405" y="448" type="curve" smooth="yes"/>
    </contour>
    <contour>
      <point x="341" y="640" type="line" smooth="yes"/>
      <point x="341" y="655"/>
      <point x="357" y="656"/>
      <point x="368" y="656" type="curve" smooth="yes"/>
      <point x="429" y="656"/>
      <point x="451" y="625"/>
      <point x="451" y="586" type="curve" smooth="yes"/>
      <point x="451" y="542"/>
      <point x="429" y="505"/>
      <point x="371" y="505" type="curve" smooth="yes"/>
      <point x="341" y="505" type="line"/>
    </contour>
    <contour>
      <point x="126" y="643"/>
      <point x="244" y="761"/>
      <point x="389" y="761" type="curve" smooth="yes"/>
      <point x="534" y="761"/>
      <point x="652" y="643"/>
      <point x="652" y="498" type="curve" smooth="yes"/>
      <point x="652" y="353"/>
      <point x="534" y="235"/>
      <point x="389" y="235" type="curve" smooth="yes"/>
      <point x="244" y="235"/>
      <point x="126" y="353"/>
      <point x="126" y="498" type="curve" smooth="yes"/>
    </contour>
    <contour>
      <point x="100" y="339"/>
      <point x="230" y="209"/>
      <point x="389" y="209" type="curve" smooth="yes"/>
      <point x="548" y="209"/>
      <point x="678" y="339"/>
      <point x="678" y="498" type="curve" smooth="yes"/>
      <point x="678" y="657"/>
      <point x="548" y="787"/>
      <point x="389" y="787" type="curve" smooth="yes"/>
      <point x="230" y="787"/>
      <point x="100" y="657"/>
      <point x="100" y="498" type="curve" smooth="yes"/>
    </contour>
  </outline>
</glyph>
<glyph name="macron" format="1">
  <advance width="408"/>
  <unicode hex="00AF"/>
  <outline>
    <contour>
      <point x="325" y="617" type="line"/>
      <point x="345" y="634"/>
      <point x="351" y="670"/>
      <point x="351" y="697" type="curve"/>
      <point x="82" y="697" type="line"/>
      <point x="63" y="680"/>
      <point x="56" y="644"/>
      <point x="56" y="617" type="curve"/>
    </contour>
  </outline>
</glyph>
<glyph name="degree" format="1">
  <advance width="435"/>
  <unicode hex="00B0"/>
  <outline>
    <contour>
      <point x="309" y="460"/>
      <point x="268" y="408"/>
      <point x="212" y="408" type="curve" smooth="yes"/>
      <point x="159" y="408"/>
      <point x="125" y="456"/>
      <point x="125" y="543" type="curve" smooth="yes"/>
      <point x="125" y="632"/>
      <point x="166" y="684"/>
      <point x="222" y="684" type="curve" smooth="yes"/>
      <point x="275" y="684"/>
      <point x="309" y="636"/>
      <point x="309" y="549" type="curve" smooth="yes"/>
    </contour>
    <contour>
      <point x="40" y="434"/>
      <point x="108" y="361"/>
      <point x="217" y="361" type="curve" smooth="yes"/>
      <point x="326" y="361"/>
      <point x="395" y="434"/>
      <point x="395" y="546" type="curve" smooth="yes"/>
      <point x="395" y="659"/>
      <point x="326" y="731"/>
      <point x="217" y="731" type="curve" smooth="yes"/>
      <point x="108" y="731"/>
      <point x="40" y="659"/>
      <point x="40" y="546" type="curve" smooth="yes"/>
    </contour>
  </outline>
</glyph>
<glyph name="paragraph" format="1">
  <advance width="616"/>
  <unicode hex="00B6"/>
  <outline>
    <contour>
      <point x="219" y="-202"/>
      <point x="157" y="-156"/>
      <point x="157" y="-91" type="curve" smooth="yes"/>
      <point x="157" y="-33"/>
      <point x="199" y="7"/>
      <point x="255" y="7" type="curve" smooth="yes"/>
      <point x="268" y="7"/>
      <point x="274" y="4"/>
      <point x="274" y="-4" type="curve" smooth="yes"/>
      <point x="274" y="-13"/>
      <point x="250" y="-30"/>
      <point x="250" y="-86" type="curve" smooth="yes"/>
      <point x="250" y="-129"/>
      <point x="283" y="-157"/>
      <point x="326" y="-157" type="curve" smooth="yes"/>
      <point x="380" y="-157"/>
      <point x="424" y="-122"/>
      <point x="424" y="-59" type="curve" smooth="yes"/>
      <point x="424" y="-12"/>
      <point x="403" y="36"/>
      <point x="331" y="119" type="curve" smooth="yes"/>
      <point x="171" y="304" type="line" smooth="yes"/>
      <point x="97" y="390"/>
      <point x="67" y="473"/>
      <point x="67" y="541" type="curve" smooth="yes"/>
      <point x="67" y="656"/>
      <point x="155" y="732"/>
      <point x="278" y="732" type="curve" smooth="yes"/>
      <point x="364" y="732"/>
      <point x="436" y="711"/>
      <point x="504" y="706" type="curve"/>
      <point x="515" y="693" type="line"/>
      <point x="503" y="675" type="line" smooth="yes"/>
      <point x="496" y="663"/>
      <point x="490" y="653"/>
      <point x="490" y="636" type="curve" smooth="yes"/>
      <point x="490" y="-20" type="line" smooth="yes"/>
      <point x="490" y="-106"/>
      <point x="443" y="-202"/>
      <point x="306" y="-202" type="curve" smooth="yes"/>
    </contour>
    <contour>
      <point x="398" y="497" type="line" smooth="yes"/>
      <point x="398" y="604"/>
      <point x="351" y="676"/>
      <point x="249" y="676" type="curve" smooth="yes"/>
      <point x="197" y="676"/>
      <point x="144" y="639"/>
      <point x="144" y="567" type="curve" smooth="yes"/>
      <point x="144" y="515"/>
      <point x="170" y="444"/>
      <point x="244" y="358" type="curve" smooth="yes"/>
      <point x="398" y="180" type="line"/>
    </contour>
  </outline>
</glyph>
<glyph name="Eth" format="1">
  <advance width="733"/>
  <unicode hex="00D0"/>
  <outline>
    <contour>
      <point x="398" y="332" type="line"/>
      <point x="416" y="346"/>
      <point x="421" y="373"/>
      <point x="421" y="395" type="curve"/>
      <point x="33" y="395" type="line"/>
      <point x="15" y="382"/>
      <point x="10" y="354"/>
      <point x="10" y="332" type="curve"/>
    </contour>
    <component base="D"/>
  </outline>
</glyph>
<glyph name="germandbls" format="1">
  <advance width="635"/>
  <unicode hex="00DF"/>
  <outline>
    <contour>
      <point x="366" y="36"/>
      <point x="343" y="56"/>
      <point x="326" y="56" type="curve" smooth="yes"/>
      <point x="315" y="56"/>
      <point x="311" y="43"/>
      <point x="311" y="31" type="curve" smooth="yes"/>
      <point x="311" y="24"/>
      <point x="314" y="15"/>
      <point x="320" y="11" type="curve" smooth="yes"/>
      <point x="352" y="-6"/>
      <point x="391" y="-14"/>
      <point x="435" y="-14" type="curve" smooth="yes"/>
      <point x="543" y="-14"/>
      <point x="617" y="60"/>
      <point x="617" y="145" type="curve" smooth="yes"/>
      <point x="617" y="223"/>
      <point x="560" y="276"/>
      <point x="490" y="312" type="curve" smooth="yes"/>
      <point x="419" y="348" type="line" smooth="yes"/>
      <point x="382" y="367"/>
      <point x="366" y="391"/>
      <point x="366" y="424" type="curve" smooth="yes"/>
      <point x="366" y="503"/>
      <point x="499" y="557"/>
      <point x="499" y="654" type="curve" smooth="yes"/>
      <point x="499" y="740"/>
      <point x="433" y="782"/>
      <point x="350" y="782" type="curve" smooth="yes"/>
      <point x="204" y="782"/>
      <point x="100" y="692"/>
      <point x="100" y="526" type="curve" smooth="yes"/>
      <point x="100" y="133" type="line" smooth="yes"/>
      <point x="100" y="71"/>
      <point x="86" y="55"/>
      <point x="36" y="40" type="curve" smooth="yes"/>
      <point x="13" y="34" type="line"/>
      <point x="25" y="0" type="line"/>
      <point x="244" y="0" type="line"/>
      <point x="257" y="16" type="line"/>
      <point x="244" y="34" type="line" smooth="yes"/>
      <point x="211" y="78"/>
      <point x="199" y="120"/>
      <point x="199" y="201" type="curve" smooth="yes"/>
      <point x="199" y="542" type="line" smooth="yes"/>
      <point x="199" y="650"/>
      <point x="235" y="730"/>
      <point x="326" y="730" type="curve" smooth="yes"/>
      <point x="366" y="730"/>
      <point x="408" y="714"/>
      <point x="408" y="654" type="curve" smooth="yes"/>
      <point x="408" y="553"/>
      <point x="277" y="475"/>
      <point x="277" y="395" type="curve" smooth="yes"/>
      <point x="277" y="336"/>
      <point x="304" y="308"/>
      <point x="355" y="276" type="curve" smooth="yes"/>
      <point x="430" y="238" type="line" smooth="yes"/>
      <point x="491" y="207"/>
      <point x="529" y="170"/>
      <point x="529" y="117" type="curve" smooth="yes"/>
      <point x="529" y="58"/>
      <point x="478" y="36"/>
      <point x="436" y="36" type="curve" smooth="yes"/>
    </contour>
  </outline>
</glyph>
<glyph name="oe" format="1">
  <advance width="914"/>
  <unicode hex="0153"/>
  <outline>
    <contour>
      <point x="831" y="113"/>
      <point x="829" y="111"/>
      <point x="827" y="109" type="curve" smooth="yes"/>
      <point x="787" y="69"/>
      <point x="737" y="52"/>
      <point x="681" y="52" type="curve" smooth="yes"/>
      <point x="584" y="52"/>
      <point x="533" y="125"/>
      <point x="533" y="242" type="curve" smooth="yes"/>
      <point x="533" y="383"/>
      <point x="584" y="460"/>
      <point x="669" y="460" type="curve" smooth="yes"/>
      <point x="732" y="460"/>
      <point x="764" y="413"/>
      <point x="764" y="364" type="curve" smooth="yes"/>
      <point x="764" y="307"/>
      <point x="722" y="250"/>
      <point x="637" y="250" type="curve" smooth="yes"/>
      <point x="596" y="250"/>
      <point x="583" y="263"/>
      <point x="573" y="263" type="curve" smooth="yes"/>
      <point x="565" y="263"/>
      <point x="558" y="252"/>
      <point x="558" y="241" type="curve" smooth="yes"/>
      <point x="558" y="206"/>
      <point x="640" y="194"/>
      <point x="668" y="194" type="curve" smooth="yes"/>
      <point x="793" y="194"/>
      <point x="859" y="281"/>
      <point x="859" y="363" type="curve" smooth="yes"/>
      <point x="859" y="438"/>
      <point x="804" y="510"/>
      <point x="689" y="510" type="curve" smooth="yes"/>
      <point x="601" y="510"/>
      <point x="530" y="476"/>
      <point x="485" y="418" type="curve"/>
      <point x="442" y="477"/>
      <point x="375" y="510"/>
      <point x="289" y="510" type="curve" smooth="yes"/>
      <point x="139" y="510"/>
      <point x="45" y="409"/>
      <point x="45" y="248" type="curve" smooth="yes"/>
      <point x="45" y="88"/>
      <point x="139" y="-14"/>
      <point x="289" y="-14" type="curve" smooth="yes"/>
      <point x="371" y="-14"/>
      <point x="437" y="17"/>
      <point x="480" y="72" type="curve"/>
      <point x="520" y="18"/>
      <point x="582" y="-14"/>
      <point x="660" y="-14" type="curve" smooth="yes"/>
      <point x="739" y="-14"/>
      <point x="804" y="21"/>
      <point x="858" y="75" type="curve" smooth="yes"/>
      <point x="860" y="77"/>
      <point x="862" y="80"/>
      <point x="862" y="84" type="curve" smooth="yes"/>
      <point x="862" y="97"/>
      <point x="847" y="113"/>
      <point x="836" y="113" type="curve" smooth="yes"/>
    </contour>
    <contour>
      <point x="202" y="40"/>
      <point x="149" y="121"/>
      <point x="149" y="247" type="curve" smooth="yes"/>
      <point x="149" y="372"/>
      <point x="207" y="458"/>
      <point x="292" y="458" type="curve" smooth="yes"/>
      <point x="398" y="458"/>
      <point x="428" y="326"/>
      <point x="428" y="245" type="curve" smooth="yes"/>
      <point x="428" y="122"/>
      <point x="369" y="40"/>
      <point x="286" y="40" type="curve" smooth="yes"/>
    </contour>
  </outline>
</glyph>
<glyph name="circumflex" format="1">
  <advance width="374"/>
  <unicode hex="02C6"/>
  <outline>
    <contour>
      <point x="174" y="755" type="line"/>
      <point x="148" y="740"/>
      <point x="94" y="673"/>
      <point x="50" y="597" type="curve"/>
      <point x="83" y="569" type="line"/>
      <point x="187" y="652" type="line"/>
      <point x="292" y="569" type="line"/>
      <point x="324" y="597" type="line"/>
      <point x="280" y="675"/>
      <point x="223" y="742"/>
      <point x="201" y="755" type="curve"/>
    </contour>
  </outline>
</glyph>
<glyph name="caron" format="1">
  <advance width="374"/>
  <unicode hex="02C7"/>
  <outline>
    <contour>
      <point x="201" y="578" type="line"/>
      <point x="223" y="591"/>
      <point x="280" y="658"/>
      <point x="324" y="736" type="curve"/>
      <point x="292" y="764" type="line"/>
      <point x="187" y="680" type="line"/>
      <point x="83" y="764" type="line"/>
      <point x="50" y="736" type="line"/>
      <point x="94" y="660"/>
      <point x="148" y="593"/>
      <point x="174" y="578" type="curve"/>
    </contour>
  </outline>
</glyph>
<glyph name="breve" format="1">
  <advance width="343"/>
  <unicode hex="02D8"/>
  <outline>
    <contour>
      <point x="242" y="580"/>
      <point x="296" y="626"/>
      <point x="296" y="720" type="curve"/>
      <point x="241" y="720" type="line"/>
      <point x="241" y="680"/>
      <point x="210" y="656"/>
      <point x="172" y="656" type="curve" smooth="yes"/>
      <point x="133" y="656"/>
      <point x="102" y="680"/>
      <point x="102" y="720" type="curve"/>
      <point x="47" y="720" type="line"/>
      <point x="47" y="626"/>
      <point x="101" y="580"/>
      <point x="172" y="580" type="curve" smooth="yes"/>
    </contour>
  </outline>
</glyph>
<glyph name="ring" format="1">
  <advance width="317"/>
  <unicode hex="02DA"/>
  <outline>
    <contour>
      <point x="115" y="690"/>
      <point x="130" y="716"/>
      <point x="157" y="716" type="curve" smooth="yes"/>
      <point x="186" y="716"/>
      <point x="201" y="690"/>
      <point x="201" y="658" type="curve" smooth="yes"/>
      <point x="201" y="626"/>
      <point x="186" y="600"/>
      <point x="157" y="600" type="curve" smooth="yes"/>
      <point x="130" y="600"/>
      <point x="115" y="626"/>
      <point x="115" y="658" type="curve" smooth="yes"/>
    </contour>
    <contour>
      <point x="45" y="598"/>
      <point x="83" y="552"/>
      <point x="157" y="552" type="curve" smooth="yes"/>
      <point x="234" y="552"/>
      <point x="272" y="598"/>
      <point x="272" y="658" type="curve" smooth="yes"/>
      <point x="272" y="718"/>
      <point x="234" y="765"/>
      <point x="157" y="765" type="curve" smooth="yes"/>
      <point x="83" y="765"/>
      <point x="45" y="718"/>
      <point x="45" y="658" type="curve" smooth="yes"/>
    </contour>
  </outline>
</glyph>
<glyph name="tilde" format="1">
  <advance width="408"/>
  <unicode hex="02DC"/>
  <outline>
    <contour>
      <point x="332" y="723" type="line"/>
      <point x="303" y="695"/>
      <point x="281" y="684"/>
      <point x="264" y="684" type="curve" smooth="yes"/>
      <point x="232" y="684"/>
      <point x="213" y="719"/>
      <point x="170" y="719" type="curve" smooth="yes"/>
      <point x="131" y="719"/>
      <point x="84" y="681"/>
      <point x="41" y="622" type="curve"/>
      <point x="76" y="591" type="line"/>
      <point x="103" y="618"/>
      <point x="127" y="630"/>
      <point x="143" y="630" type="curve" smooth="yes"/>
      <point x="175" y="630"/>
      <point x="193" y="595"/>
      <point x="238" y="595" type="curve" smooth="yes"/>
      <point x="276" y="595"/>
      <point x="324" y="633"/>
      <point x="366" y="692" type="curve"/>
    </contour>
  </outline>
</glyph>
<glyph name="brevecomb" format="1">
  <advance width="343"/>
  <unicode hex="0306"/>
  <outline>
    <component base="breve"/>
    <contour>
      <point x="172" y="720" type="move" name="top"/>
    </contour>
    <contour>
      <point x="172" y="497" type="move" name="_top"/>
    </contour>
  </outline>
</glyph>
<glyph name="dotaccentcomb" format="1">
  <advance width="324"/>
  <unicode hex="0307"/>
  <outline>
    <component base="dotaccent"/>
    <contour>
      <point x="162" y="724" type="move" name="top"/>
    </contour>
    <contour>
      <point x="162" y="497" type="move" name="_top"/>
    </contour>
  </outline>
</glyph>
<glyph name="ringcomb" format="1">
  <advance width="317"/>
  <unicode hex="030A"/>
  <outline>
    <component base="ring"/>
    <contour>
      <point x="159" y="765" type="move" name="top"/>
    </contour>
    <contour>
      <point x="159" y="497" type="move" name="_top"/>
    </contour>
  </outline>
</glyph>
<glyph name="hungarumlautcomb" format="1">
  <advance width="531"/>
  <unicode hex="030B"/>
  <outline>
    <component base="hungarumlaut"/>
    <contour>
      <point x="266" y="760" type="move" name="top"/>
    </contour>
    <contour>
      <point x="206" y="497" type="move" name="_top"/>
    </contour>
  </outline>
</glyph>
<glyph name="caroncomb" format="1">
  <advance width="374"/>
  <unicode hex="030C"/>
  <outline>
    <component base="caron"/>
    <contour>
      <point x="187" y="764" type="move" name="top"/>
    </contour>
    <contour>
      <point x="187" y="497" type="move" name="_top"/>
    </contour>
  </outline>
</glyph>
<glyph name="ogonekcomb" format="1">
  <advance width="388"/>
  <unicode hex="0328"/>
  <outline>
    <component base="ogonek"/>
    <contour>
      <point x="250" y="12" type="move" name="_ogonek"/>
    </contour>
  </outline>
</glyph>
<glyph name="E-cy" format="1">
  <advance width="616"/>
  <unicode hex="0404"/>
  <outline>
    <contour>
      <point x="358" y="732" type="curve" smooth="yes"/>
      <point x="139" y="732"/>
      <point x="35" y="565"/>
      <point x="35" y="358" type="curve" smooth="yes"/>
      <point x="35" y="153"/>
      <point x="139" y="-14"/>
      <point x="354" y="-14" type="curve" smooth="yes"/>
      <point x="461" y="-14"/>
      <point x="535" y="37"/>
      <point x="588" y="112" type="curve"/>
      <point x="589" y="115"/>
      <point x="590" y="119"/>
      <point x="590" y="121" type="curve" smooth="yes"/>
      <point x="590" y="135"/>
      <point x="571" y="149"/>
      <point x="558" y="149" type="curve" smooth="yes"/>
      <point x="555" y="149"/>
      <point x="554" y="148"/>
      <point x="552" y="144" type="curve" smooth="yes"/>
      <point x="515" y="91"/>
      <point x="451" y="55"/>
      <point x="363" y="55" type="curve" smooth="yes"/>
      <point x="239" y="55"/>
      <point x="159" y="172"/>
      <point x="148" y="322" type="curve"/>
      <point x="437" y="322" type="line"/>
      <point x="455" y="336"/>
      <point x="461" y="362"/>
      <point x="461" y="385" type="curve"/>
      <point x="147" y="385" type="line"/>
      <point x="154" y="527"/>
      <point x="210" y="677"/>
      <point x="358" y="677" type="curve" smooth="yes"/>
      <point x="434" y="677"/>
      <point x="485" y="633"/>
      <point x="485" y="571" type="curve" smooth="yes"/>
      <point x="485" y="516"/>
      <point x="454" y="491"/>
      <point x="454" y="481" type="curve" smooth="yes"/>
      <point x="454" y="473"/>
      <point x="461" y="469"/>
      <point x="476" y="469" type="curve" smooth="yes"/>
      <point x="537" y="469"/>
      <point x="582" y="516"/>
      <point x="582" y="585" type="curve" smooth="yes"/>
      <point x="582" y="673"/>
      <point x="489" y="732"/>
    </contour>
  </outline>
</glyph>
<glyph name="Lje-cy" format="1">
  <advance width="961"/>
  <unicode hex="0409"/>
  <outline>
    <contour>
      <point x="644" y="419"/>
      <point x="597" y="409"/>
      <point x="597" y="384" type="curve" smooth="yes"/>
      <point x="597" y="372"/>
      <point x="600" y="361"/>
      <point x="611" y="361" type="curve" smooth="yes"/>
      <point x="622" y="361"/>
      <point x="635" y="370"/>
      <point x="676" y="370" type="curve" smooth="yes"/>
      <point x="772" y="370"/>
      <point x="836" y="301"/>
      <point x="836" y="215" type="curve" smooth="yes"/>
      <point x="836" y="120"/>
      <point x="782" y="52"/>
      <point x="686" y="52" type="curve" smooth="yes"/>
      <point x="647" y="52"/>
      <point x="575" y="57"/>
      <point x="575" y="183" type="curve" smooth="yes"/>
      <point x="575" y="517" type="line" smooth="yes"/>
      <point x="575" y="597"/>
      <point x="587" y="640"/>
      <point x="620" y="684" type="curve"/>
      <point x="633" y="702" type="line"/>
      <point x="620" y="718" type="line"/>
      <point x="172" y="718" type="line"/>
      <point x="159" y="684" type="line"/>
      <point x="183" y="679" type="line" smooth="yes"/>
      <point x="231" y="671"/>
      <point x="259" y="643"/>
      <point x="254" y="584" type="curve" smooth="yes"/>
      <point x="219" y="207"/>
      <point x="179" y="65"/>
      <point x="103" y="65" type="curve" smooth="yes"/>
      <point x="79" y="65"/>
      <point x="69" y="88"/>
      <point x="64" y="112" type="curve" smooth="yes"/>
      <point x="57" y="137"/>
      <point x="49" y="148"/>
      <point x="32" y="148" type="curve" smooth="yes"/>
      <point x="7" y="148"/>
      <point x="-16" y="126"/>
      <point x="-16" y="86" type="curve" smooth="yes"/>
      <point x="-16" y="19"/>
      <point x="33" y="-14"/>
      <point x="88" y="-14" type="curve" smooth="yes"/>
      <point x="203" y="-14"/>
      <point x="277" y="100"/>
      <point x="321" y="622" type="curve" smooth="yes"/>
      <point x="324" y="655"/>
      <point x="346" y="662"/>
      <point x="383" y="662" type="curve" smooth="yes"/>
      <point x="412" y="662" type="line" smooth="yes"/>
      <point x="464" y="662"/>
      <point x="476" y="647"/>
      <point x="476" y="585" type="curve" smooth="yes"/>
      <point x="476" y="133" type="line" smooth="yes"/>
      <point x="476" y="71"/>
      <point x="462" y="53"/>
      <point x="412" y="40" type="curve" smooth="yes"/>
      <point x="388" y="34" type="line"/>
      <point x="400" y="0" type="line"/>
      <point x="681" y="0" type="line" smooth="yes"/>
      <point x="871" y="0"/>
      <point x="939" y="88"/>
      <point x="939" y="210" type="curve" smooth="yes"/>
      <point x="939" y="322"/>
      <point x="846" y="419"/>
      <point x="694" y="419" type="curve" smooth="yes"/>
    </contour>
  </outline>
</glyph>
<glyph name="De-cy" format="1">
  <advance width="677"/>
  <unicode hex="0414"/>
  <outline>
    <contour>
      <point x="576" y="517" type="line" smooth="yes"/>
      <point x="576" y="597"/>
      <point x="589" y="640"/>
      <point x="623" y="684" type="curve"/>
      <point x="634" y="702" type="line"/>
      <point x="623" y="718" type="line"/>
      <point x="135" y="718" type="line"/>
      <point x="123" y="684" type="line"/>
      <point x="145" y="678" type="line" smooth="yes"/>
      <point x="184" y="668"/>
      <point x="214" y="650"/>
      <point x="211" y="595" type="curve" smooth="yes"/>
      <point x="189" y="268"/>
      <point x="172" y="66"/>
      <point x="1" y="43" type="curve"/>
      <point x="1" y="-181" type="line"/>
      <point x="35" y="-193" type="line"/>
      <point x="40" y="-169" type="line" smooth="yes"/>
      <point x="70" y="-63"/>
      <point x="100" y="0"/>
      <point x="190" y="0" type="curve" smooth="yes"/>
      <point x="496" y="0" type="line" smooth="yes"/>
      <point x="588" y="0"/>
      <point x="617" y="-63"/>
      <point x="645" y="-169" type="curve" smooth="yes"/>
      <point x="651" y="-193" type="line"/>
      <point x="685" y="-181" type="line"/>
      <point x="685" y="42" type="line"/>
      <point x="631" y="42"/>
      <point x="576" y="61"/>
      <point x="576" y="105" type="curve" smooth="yes"/>
    </contour>
    <contour>
      <point x="139" y="57" type="line"/>
      <point x="228" y="112"/>
      <point x="267" y="296"/>
      <point x="288" y="622" type="curve" smooth="yes"/>
      <point x="291" y="655"/>
      <point x="315" y="662"/>
      <point x="352" y="662" type="curve" smooth="yes"/>
      <point x="413" y="662" type="line" smooth="yes"/>
      <point x="466" y="662"/>
      <point x="478" y="647"/>
      <point x="478" y="585" type="curve" smooth="yes"/>
      <point x="478" y="133" type="line" smooth="yes"/>
      <point x="478" y="69"/>
      <point x="466" y="57"/>
      <point x="413" y="57" type="curve" smooth="yes"/>
    </contour>
  </outline>
</glyph>
<glyph name="Zhe-cy" format="1">
  <advance width="1016"/>
  <unicode hex="0416"/>
  <outline>
    <contour>
      <point x="607" y="0" type="line"/>
      <point x="618" y="32" type="line"/>
      <point x="597" y="38" type="line" smooth="yes"/>
      <point x="566" y="52"/>
      <point x="558" y="67"/>
      <point x="558" y="126" type="curve" smooth="yes"/>
      <point x="558" y="517" type="line" smooth="yes"/>
      <point x="558" y="597"/>
      <point x="567" y="640"/>
      <point x="593" y="684" type="curve"/>
      <point x="605" y="702" type="line"/>
      <point x="593" y="718" type="line"/>
      <point x="415" y="718" type="line"/>
      <point x="405" y="684" type="line"/>
      <point x="426" y="678" type="line" smooth="yes"/>
      <point x="452" y="664"/>
      <point x="459" y="647"/>
      <point x="459" y="585" type="curve" smooth="yes"/>
      <point x="459" y="133" type="line" smooth="yes"/>
      <point x="459" y="69"/>
      <point x="449" y="55"/>
      <point x="415" y="40" type="curve" smooth="yes"/>
      <point x="394" y="34" type="line"/>
      <point x="405" y="0" type="line"/>
    </contour>
    <contour>
      <point x="817" y="257" type="line" smooth="yes"/>
      <point x="781" y="329"/>
      <point x="734" y="362"/>
      <point x="656" y="369" type="curve"/>
      <point x="656" y="335" type="line"/>
      <point x="882" y="624" type="line" smooth="yes"/>
      <point x="908" y="657"/>
      <point x="931" y="672"/>
      <point x="960" y="678" type="curve" smooth="yes"/>
      <point x="983" y="684" type="line"/>
      <point x="972" y="718" type="line"/>
      <point x="800" y="718" type="line"/>
      <point x="782" y="702" type="line"/>
      <point x="793" y="686" type="line"/>
      <point x="813" y="659"/>
      <point x="811" y="618"/>
      <point x="788" y="589" type="curve" smooth="yes"/>
      <point x="624" y="381" type="line"/>
      <point x="602" y="381" type="line" smooth="yes"/>
      <point x="583" y="381"/>
      <point x="581" y="367"/>
      <point x="581" y="357" type="curve" smooth="yes"/>
      <point x="581" y="353"/>
      <point x="582" y="347"/>
      <point x="586" y="346" type="curve" smooth="yes"/>
      <point x="631" y="331"/>
      <point x="664" y="310"/>
      <point x="686" y="266" type="curve" smooth="yes"/>
      <point x="776" y="84" type="line" smooth="yes"/>
      <point x="808" y="20"/>
      <point x="847" y="-14"/>
      <point x="910" y="-14" type="curve" smooth="yes"/>
      <point x="946" y="-14"/>
      <point x="978" y="-3"/>
      <point x="1006" y="26" type="curve"/>
      <point x="990" y="55" type="line"/>
      <point x="976" y="44"/>
      <point x="964" y="41"/>
      <point x="951" y="41" type="curve" smooth="yes"/>
      <point x="933" y="41"/>
      <point x="922" y="52"/>
      <point x="912" y="71" type="curve" smooth="yes"/>
    </contour>
    <contour>
      <point x="94" y="52"/>
      <point x="83" y="41"/>
      <point x="65" y="41" type="curve" smooth="yes"/>
      <point x="52" y="41"/>
      <point x="40" y="44"/>
      <point x="26" y="55" type="curve"/>
      <point x="10" y="26" type="line"/>
      <point x="38" y="-3"/>
      <point x="70" y="-14"/>
      <point x="106" y="-14" type="curve" smooth="yes"/>
      <point x="169" y="-14"/>
      <point x="208" y="20"/>
      <point x="240" y="84" type="curve" smooth="yes"/>
      <point x="330" y="266" type="line" smooth="yes"/>
      <point x="352" y="310"/>
      <point x="385" y="331"/>
      <point x="430" y="346" type="curve" smooth="yes"/>
      <point x="434" y="347"/>
      <point x="435" y="353"/>
      <point x="435" y="357" type="curve" smooth="yes"/>
      <point x="435" y="367"/>
      <point x="433" y="381"/>
      <point x="414" y="381" type="curve" smooth="yes"/>
      <point x="392" y="381" type="line"/>
      <point x="228" y="589" type="line" smooth="yes"/>
      <point x="205" y="618"/>
      <point x="203" y="659"/>
      <point x="223" y="686" type="curve"/>
      <point x="234" y="702" type="line"/>
      <point x="216" y="718" type="line"/>
      <point x="44" y="718" type="line"/>
      <point x="33" y="684" type="line"/>
      <point x="56" y="678" type="line" smooth="yes"/>
      <point x="85" y="672"/>
      <point x="108" y="657"/>
      <point x="134" y="624" type="curve" smooth="yes"/>
      <point x="360" y="335" type="line"/>
      <point x="360" y="369" type="line"/>
      <point x="282" y="362"/>
      <point x="235" y="329"/>
      <point x="199" y="257" type="curve" smooth="yes"/>
      <point x="104" y="71" type="line" smooth="yes"/>
    </contour>
    <contour>
      <point x="508" y="718" type="move" name="top"/>
    </contour>
    <contour>
      <point x="778" y="0" type="move" name="bottomright"/>
    </contour>
  </outline>
</glyph>
<glyph name="Ii-cy" format="1">
  <advance width="731"/>
  <unicode hex="0418"/>
  <outline>
    <contour>
      <point x="198" y="517" type="line" smooth="yes"/>
      <point x="198" y="597"/>
      <point x="210" y="640"/>
      <point x="243" y="684" type="curve" smooth="yes"/>
      <point x="256" y="702" type="line"/>
      <point x="243" y="718" type="line"/>
      <point x="23" y="718" type="line"/>
      <point x="11" y="684" type="line"/>
      <point x="35" y="678" type="line"/>
      <point x="85" y="664"/>
      <point x="99" y="647"/>
      <point x="99" y="585" type="curve" smooth="yes"/>
      <point x="99" y="133" type="line" smooth="yes"/>
      <point x="99" y="69"/>
      <point x="85" y="55"/>
      <point x="35" y="40" type="curve"/>
      <point x="11" y="34" type="line"/>
      <point x="23" y="0" type="line"/>
      <point x="269" y="0" type="line"/>
      <point x="279" y="32" type="line"/>
      <point x="258" y="38" type="line" smooth="yes"/>
      <point x="211" y="52"/>
      <point x="198" y="67"/>
      <point x="198" y="126" type="curve" smooth="yes"/>
    </contour>
    <contour>
      <point x="535" y="133" type="line" smooth="yes"/>
      <point x="535" y="69"/>
      <point x="522" y="53"/>
      <point x="471" y="40" type="curve" smooth="yes"/>
      <point x="449" y="34" type="line"/>
      <point x="461" y="0" type="line"/>
      <point x="706" y="0" type="line"/>
      <point x="716" y="32" type="line"/>
      <point x="696" y="38" type="line" smooth="yes"/>
      <point x="647" y="51"/>
      <point x="633" y="67"/>
      <point x="633" y="126" type="curve" smooth="yes"/>
      <point x="633" y="517" type="line" smooth="yes"/>
      <point x="633" y="597"/>
      <point x="644" y="641"/>
      <point x="679" y="684" type="curve" smooth="yes"/>
      <point x="694" y="702" type="line"/>
      <point x="679" y="718" type="line"/>
      <point x="461" y="718" type="line"/>
      <point x="449" y="684" type="line"/>
      <point x="471" y="678" type="line" smooth="yes"/>
      <point x="521" y="665"/>
      <point x="535" y="647"/>
      <point x="535" y="585" type="curve" smooth="yes"/>
    </contour>
    <contour>
      <point x="540" y="599" type="line"/>
      <point x="183" y="211" type="line"/>
      <point x="183" y="129" type="line"/>
      <point x="540" y="517" type="line"/>
    </contour>
    <contour>
      <point x="364" y="718" type="move" name="top"/>
    </contour>
    <contour>
      <point x="533" y="0" type="move" name="bottomright"/>
    </contour>
  </outline>
</glyph>
<glyph name="El-cy" format="1">
  <advance width="674"/>
  <unicode hex="041B"/>
  <outline>
    <contour>
      <point x="633" y="702" type="line"/>
      <point x="621" y="718" type="line"/>
      <point x="172" y="718" type="line"/>
      <point x="159" y="684" type="line"/>
      <point x="183" y="679" type="line" smooth="yes"/>
      <point x="231" y="670"/>
      <point x="259" y="643"/>
      <point x="254" y="584" type="curve" smooth="yes"/>
      <point x="219" y="207"/>
      <point x="180" y="65"/>
      <point x="103" y="65" type="curve" smooth="yes"/>
      <point x="80" y="65"/>
      <point x="69" y="89"/>
      <point x="64" y="112" type="curve" smooth="yes"/>
      <point x="58" y="137"/>
      <point x="49" y="148"/>
      <point x="32" y="148" type="curve" smooth="yes"/>
      <point x="7" y="148"/>
      <point x="-16" y="126"/>
      <point x="-16" y="86" type="curve" smooth="yes"/>
      <point x="-16" y="19"/>
      <point x="33" y="-14"/>
      <point x="88" y="-14" type="curve" smooth="yes"/>
      <point x="203" y="-14"/>
      <point x="278" y="100"/>
      <point x="321" y="622" type="curve" smooth="yes"/>
      <point x="324" y="655"/>
      <point x="347" y="662"/>
      <point x="383" y="662" type="curve" smooth="yes"/>
      <point x="412" y="662" type="line" smooth="yes"/>
      <point x="464" y="662"/>
      <point x="476" y="647"/>
      <point x="476" y="585" type="curve" smooth="yes"/>
      <point x="476" y="133" type="line" smooth="yes"/>
      <point x="476" y="69"/>
      <point x="462" y="55"/>
      <point x="412" y="40" type="curve"/>
      <point x="389" y="34" type="line"/>
      <point x="401" y="0" type="line"/>
      <point x="646" y="0" type="line"/>
      <point x="656" y="32" type="line"/>
      <point x="636" y="38" type="line" smooth="yes"/>
      <point x="587" y="52"/>
      <point x="575" y="67"/>
      <point x="575" y="126" type="curve" smooth="yes"/>
      <point x="575" y="517" type="line" smooth="yes"/>
      <point x="575" y="597"/>
      <point x="587" y="640"/>
      <point x="621" y="684" type="curve" smooth="yes"/>
    </contour>
  </outline>
</glyph>
<glyph name="En-cy" format="1">
  <advance width="779"/>
  <unicode hex="041D"/>
  <outline>
    <component base="H"/>
    <contour>
      <point x="553" y="0" type="move" name="bottomright"/>
    </contour>
  </outline>
</glyph>
<glyph name="O-cy" format="1">
  <advance width="733"/>
  <unicode hex="041E"/>
  <outline>
    <component base="O"/>
    <contour>
      <point x="367" y="359" type="move" name="center"/>
    </contour>
    <contour>
      <point x="367" y="718" type="move" name="top"/>
    </contour>
  </outline>
</glyph>
<glyph name="U-cy" format="1">
  <advance width="599"/>
  <unicode hex="0423"/>
  <outline>
    <contour>
      <point x="388" y="273" type="line"/>
      <point x="195" y="571" type="line" smooth="yes"/>
      <point x="165" y="619"/>
      <point x="156" y="665"/>
      <point x="211" y="678" type="curve" smooth="yes"/>
      <point x="233" y="684" type="line"/>
      <point x="221" y="718" type="line"/>
      <point x="-31" y="718" type="line"/>
      <point x="-35" y="702" type="line"/>
      <point x="6" y="684"/>
      <point x="35" y="649"/>
      <point x="82" y="576" type="curve" smooth="yes"/>
      <point x="332" y="183" type="line"/>
    </contour>
    <contour>
      <point x="301" y="171" type="line" smooth="yes"/>
      <point x="261" y="83"/>
      <point x="236" y="47"/>
      <point x="197" y="47" type="curve" smooth="yes"/>
      <point x="173" y="47"/>
      <point x="159" y="66"/>
      <point x="159" y="95" type="curve" smooth="yes"/>
      <point x="159" y="126"/>
      <point x="173" y="148"/>
      <point x="173" y="157" type="curve" smooth="yes"/>
      <point x="173" y="165"/>
      <point x="167" y="170"/>
      <point x="152" y="170" type="curve" smooth="yes"/>
      <point x="103" y="170"/>
      <point x="67" y="125"/>
      <point x="67" y="78" type="curve" smooth="yes"/>
      <point x="67" y="23"/>
      <point x="111" y="-14"/>
      <point x="181" y="-14" type="curve" smooth="yes"/>
      <point x="253" y="-14"/>
      <point x="310" y="31"/>
      <point x="370" y="168" type="curve" smooth="yes"/>
      <point x="553" y="584" type="line" smooth="yes"/>
      <point x="569" y="621"/>
      <point x="584" y="651"/>
      <point x="608" y="684" type="curve" smooth="yes"/>
      <point x="622" y="702" type="line"/>
      <point x="611" y="718" type="line"/>
      <point x="420" y="718" type="line"/>
      <point x="408" y="684" type="line"/>
      <point x="430" y="678" type="line" smooth="yes"/>
      <point x="483" y="666"/>
      <point x="496" y="606"/>
      <point x="461" y="527" type="curve" smooth="yes"/>
    </contour>
    <contour>
      <point x="316" y="718" type="move" name="top"/>
    </contour>
  </outline>
</glyph>
<glyph name="Ef-cy" format="1">
  <advance width="814"/>
  <unicode hex="0424"/>
  <outline>
    <contour>
      <point x="107" y="387" type="curve" smooth="yes"/>
      <point x="107" y="534"/>
      <point x="201" y="604"/>
      <point x="328" y="610" type="curve" smooth="yes"/>
      <point x="352" y="611"/>
      <point x="358" y="604"/>
      <point x="358" y="585" type="curve" smooth="yes"/>
      <point x="358" y="93" type="line" smooth="yes"/>
      <point x="358" y="31"/>
      <point x="344" y="15"/>
      <point x="295" y="0" type="curve"/>
      <point x="271" y="-5" type="line"/>
      <point x="283" y="-40" type="line"/>
      <point x="528" y="-40" type="line"/>
      <point x="540" y="-8" type="line"/>
      <point x="518" y="-2" type="line" smooth="yes"/>
      <point x="470" y="12"/>
      <point x="457" y="28"/>
      <point x="457" y="86" type="curve" smooth="yes"/>
      <point x="457" y="585" type="line" smooth="yes"/>
      <point x="457" y="603"/>
      <point x="463" y="610"/>
      <point x="487" y="610" type="curve" smooth="yes"/>
      <point x="614" y="610"/>
      <point x="709" y="535"/>
      <point x="709" y="391" type="curve" smooth="yes"/>
      <point x="709" y="266"/>
      <point x="641" y="183"/>
      <point x="496" y="164" type="curve" smooth="yes"/>
      <point x="484" y="162"/>
      <point x="481" y="153"/>
      <point x="481" y="147" type="curve" smooth="yes"/>
      <point x="481" y="125"/>
      <point x="498" y="116"/>
      <point x="520" y="116" type="curve" smooth="yes"/>
      <point x="645" y="116"/>
      <point x="822" y="193"/>
      <point x="822" y="383" type="curve" smooth="yes"/>
      <point x="822" y="555"/>
      <point x="688" y="659"/>
      <point x="463" y="664" type="curve"/>
      <point x="470" y="719"/>
      <point x="484" y="745"/>
      <point x="503" y="778" type="curve" smooth="yes"/>
      <point x="515" y="797" type="line"/>
      <point x="503" y="813" type="line"/>
      <point x="313" y="813" type="line"/>
      <point x="302" y="778" type="line"/>
      <point x="324" y="772" type="line" smooth="yes"/>
      <point x="354" y="763"/>
      <point x="357" y="721"/>
      <point x="358" y="665" type="curve"/>
      <point x="142" y="662"/>
      <point x="-7" y="558"/>
      <point x="-7" y="381" type="curve" smooth="yes"/>
      <point x="-7" y="193"/>
      <point x="170" y="116"/>
      <point x="295" y="116" type="curve" smooth="yes"/>
      <point x="318" y="116"/>
      <point x="334" y="125"/>
      <point x="334" y="147" type="curve" smooth="yes"/>
      <point x="334" y="153"/>
      <point x="333" y="162"/>
      <point x="320" y="164" type="curve" smooth="yes"/>
      <point x="174" y="183"/>
      <point x="107" y="267"/>
    </contour>
  </outline>
</glyph>
<glyph name="Che-cy" format="1">
  <advance width="628"/>
  <unicode hex="0427"/>
  <outline>
    <contour>
      <point x="351" y="0" type="line"/>
      <point x="596" y="0" type="line"/>
      <point x="608" y="32" type="line"/>
      <point x="586" y="38" type="line" smooth="yes"/>
      <point x="538" y="52"/>
      <point x="526" y="67"/>
      <point x="526" y="126" type="curve" smooth="yes"/>
      <point x="526" y="517" type="line" smooth="yes"/>
      <point x="526" y="597"/>
      <point x="537" y="640"/>
      <point x="570" y="684" type="curve" smooth="yes"/>
      <point x="583" y="702" type="line"/>
      <point x="570" y="718" type="line"/>
      <point x="351" y="718" type="line"/>
      <point x="338" y="684" type="line"/>
      <point x="363" y="678" type="line"/>
      <point x="413" y="664"/>
      <point x="426" y="647"/>
      <point x="426" y="585" type="curve" smooth="yes"/>
      <point x="426" y="402" type="line"/>
      <point x="391" y="369"/>
      <point x="351" y="334"/>
      <point x="271" y="334" type="curve" smooth="yes"/>
      <point x="194" y="334"/>
      <point x="154" y="367"/>
      <point x="154" y="445" type="curve" smooth="yes"/>
      <point x="154" y="733" type="line"/>
      <point x="24" y="719" type="line"/>
      <point x="10" y="702" type="line"/>
      <point x="24" y="685" type="line" smooth="yes"/>
      <point x="48" y="653"/>
      <point x="55" y="625"/>
      <point x="55" y="543" type="curve" smooth="yes"/>
      <point x="55" y="419" type="line" smooth="yes"/>
      <point x="55" y="313"/>
      <point x="119" y="261"/>
      <point x="230" y="261" type="curve" smooth="yes"/>
      <point x="319" y="261"/>
      <point x="372" y="293"/>
      <point x="426" y="333" type="curve"/>
      <point x="426" y="133" type="line" smooth="yes"/>
      <point x="426" y="69"/>
      <point x="413" y="55"/>
      <point x="363" y="40" type="curve"/>
      <point x="338" y="34" type="line"/>
    </contour>
    <contour>
      <point x="290" y="309" type="move" name="center"/>
    </contour>
    <contour>
      <point x="426" y="0" type="move" name="bottomright"/>
    </contour>
    <contour>
      <point x="279" y="718" type="move" name="top"/>
    </contour>
  </outline>
</glyph>
<glyph name="Softsign-cy" format="1">
  <advance width="613"/>
  <unicode hex="042C"/>
  <outline>
    <contour>
      <point x="226" y="517" type="line" smooth="yes"/>
      <point x="226" y="597"/>
      <point x="239" y="639"/>
      <point x="272" y="684" type="curve" smooth="yes"/>
      <point x="285" y="702" type="line"/>
      <point x="272" y="718" type="line"/>
      <point x="52" y="718" type="line"/>
      <point x="40" y="684" type="line"/>
      <point x="64" y="678" type="line" smooth="yes"/>
      <point x="113" y="665"/>
      <point x="127" y="645"/>
      <point x="127" y="585" type="curve" smooth="yes"/>
      <point x="127" y="133" type="line" smooth="yes"/>
      <point x="127" y="71"/>
      <point x="113" y="53"/>
      <point x="64" y="40" type="curve" smooth="yes"/>
      <point x="40" y="34" type="line"/>
      <point x="52" y="0" type="line"/>
      <point x="331" y="0" type="line" smooth="yes"/>
      <point x="522" y="0"/>
      <point x="591" y="88"/>
      <point x="591" y="210" type="curve" smooth="yes"/>
      <point x="591" y="322"/>
      <point x="497" y="419"/>
      <point x="345" y="419" type="curve" smooth="yes"/>
      <point x="295" y="419"/>
      <point x="248" y="409"/>
      <point x="248" y="384" type="curve" smooth="yes"/>
      <point x="248" y="372"/>
      <point x="252" y="361"/>
      <point x="262" y="361" type="curve" smooth="yes"/>
      <point x="274" y="361"/>
      <point x="287" y="370"/>
      <point x="328" y="370" type="curve" smooth="yes"/>
      <point x="424" y="370"/>
      <point x="487" y="301"/>
      <point x="487" y="215" type="curve" smooth="yes"/>
      <point x="487" y="120"/>
      <point x="433" y="52"/>
      <point x="337" y="52" type="curve" smooth="yes"/>
      <point x="299" y="52"/>
      <point x="226" y="57"/>
      <point x="226" y="183" type="curve" smooth="yes"/>
    </contour>
  </outline>
</glyph>
<glyph name="be-cy" format="1">
  <advance width="540"/>
  <unicode hex="0431"/>
  <outline>
    <contour>
      <point x="112" y="400" type="line"/>
      <point x="114" y="531"/>
      <point x="133" y="637"/>
      <point x="187" y="651" type="curve" smooth="yes"/>
      <point x="255" y="669"/>
      <point x="320" y="638"/>
      <point x="391" y="638" type="curve" smooth="yes"/>
      <point x="448" y="638"/>
      <point x="489" y="664"/>
      <point x="489" y="728" type="curve" smooth="yes"/>
      <point x="489" y="754"/>
      <point x="473" y="787"/>
      <point x="462" y="787" type="curve" smooth="yes"/>
      <point x="447" y="787"/>
      <point x="446" y="754"/>
      <point x="420" y="736" type="curve" smooth="yes"/>
      <point x="407" y="729"/>
      <point x="388" y="726"/>
      <point x="364" y="726" type="curve" smooth="yes"/>
      <point x="340" y="726"/>
      <point x="315" y="729"/>
      <point x="286" y="729" type="curve" smooth="yes"/>
      <point x="100" y="729"/>
      <point x="14" y="535"/>
      <point x="14" y="307" type="curve" smooth="yes"/>
      <point x="14" y="110"/>
      <point x="115" y="-14"/>
      <point x="272" y="-14" type="curve" smooth="yes"/>
      <point x="424" y="-14"/>
      <point x="513" y="100"/>
      <point x="513" y="249" type="curve" smooth="yes"/>
      <point x="513" y="413"/>
      <point x="399" y="495"/>
      <point x="285" y="495" type="curve" smooth="yes"/>
      <point x="215" y="495"/>
      <point x="158" y="462"/>
      <point x="120" y="400" type="curve"/>
    </contour>
    <contour>
      <point x="258" y="40" type="curve" smooth="yes"/>
      <point x="165" y="40"/>
      <point x="118" y="133"/>
      <point x="118" y="247" type="curve" smooth="yes"/>
      <point x="118" y="371"/>
      <point x="172" y="443"/>
      <point x="259" y="443" type="curve" smooth="yes"/>
      <point x="366" y="443"/>
      <point x="407" y="333"/>
      <point x="407" y="245" type="curve" smooth="yes"/>
      <point x="407" y="135"/>
      <point x="352" y="40"/>
    </contour>
  </outline>
</glyph>
<glyph name="de-cy" format="1">
  <advance width="611"/>
  <unicode hex="0434"/>
  <outline>
    <contour>
      <point x="497" y="312" type="line" smooth="yes"/>
      <point x="497" y="387"/>
      <point x="506" y="426"/>
      <point x="537" y="467" type="curve"/>
      <point x="549" y="482" type="line"/>
      <point x="537" y="497" type="line"/>
      <point x="105" y="497" type="line"/>
      <point x="95" y="467" type="line"/>
      <point x="116" y="460" type="line" smooth="yes"/>
      <point x="172" y="451"/>
      <point x="189" y="444"/>
      <point x="179" y="384" type="curve" smooth="yes"/>
      <point x="156" y="180"/>
      <point x="156" y="54"/>
      <point x="15" y="39" type="curve"/>
      <point x="15" y="-167" type="line"/>
      <point x="46" y="-179" type="line"/>
      <point x="52" y="-158" type="line" smooth="yes"/>
      <point x="82" y="-51"/>
      <point x="105" y="0"/>
      <point x="189" y="0" type="curve" smooth="yes"/>
      <point x="414" y="0" type="line" smooth="yes"/>
      <point x="497" y="0"/>
      <point x="525" y="-51"/>
      <point x="551" y="-158" type="curve" smooth="yes"/>
      <point x="556" y="-180" type="line"/>
      <point x="586" y="-168" type="line"/>
      <point x="586" y="39" type="line"/>
      <point x="537" y="39"/>
      <point x="497" y="56"/>
      <point x="497" y="97" type="curve" smooth="yes"/>
    </contour>
    <contour>
      <point x="142" y="52" type="line"/>
      <point x="209" y="88"/>
      <point x="228" y="201"/>
      <point x="251" y="405" type="curve" smooth="yes"/>
      <point x="254" y="437"/>
      <point x="276" y="442"/>
      <point x="309" y="442" type="curve" smooth="yes"/>
      <point x="347" y="442" type="line" smooth="yes"/>
      <point x="395" y="442"/>
      <point x="406" y="429"/>
      <point x="406" y="373" type="curve" smooth="yes"/>
      <point x="406" y="122" type="line" smooth="yes"/>
      <point x="406" y="65"/>
      <point x="395" y="52"/>
      <point x="347" y="52" type="curve" smooth="yes"/>
    </contour>
  </outline>
</glyph>
<glyph name="zhe-cy" format="1">
  <advance width="807"/>
  <unicode hex="0436"/>
  <outline>
    <contour>
      <point x="494" y="0" type="line"/>
      <point x="504" y="30" type="line"/>
      <point x="486" y="36" type="line" smooth="yes"/>
      <point x="454" y="45"/>
      <point x="448" y="59"/>
      <point x="448" y="115" type="curve" smooth="yes"/>
      <point x="448" y="312" type="line" smooth="yes"/>
      <point x="448" y="387"/>
      <point x="459" y="426"/>
      <point x="489" y="467" type="curve" smooth="yes"/>
      <point x="501" y="483" type="line"/>
      <point x="489" y="497" type="line"/>
      <point x="290" y="497" type="line"/>
      <point x="278" y="467" type="line"/>
      <point x="298" y="460" type="line" smooth="yes"/>
      <point x="345" y="447"/>
      <point x="358" y="432"/>
      <point x="358" y="375" type="curve" smooth="yes"/>
      <point x="358" y="122" type="line" smooth="yes"/>
      <point x="358" y="65"/>
      <point x="345" y="51"/>
      <point x="298" y="38" type="curve" smooth="yes"/>
      <point x="278" y="31" type="line"/>
      <point x="290" y="0" type="line"/>
    </contour>
    <contour>
      <point x="221" y="374" type="line" smooth="yes"/>
      <point x="204" y="397"/>
      <point x="203" y="409"/>
      <point x="203" y="425" type="curve" smooth="yes"/>
      <point x="203" y="440"/>
      <point x="210" y="454"/>
      <point x="214" y="466" type="curve"/>
      <point x="222" y="482" type="line"/>
      <point x="205" y="497" type="line"/>
      <point x="43" y="497" type="line"/>
      <point x="33" y="466" type="line"/>
      <point x="54" y="460" type="line" smooth="yes"/>
      <point x="82" y="454"/>
      <point x="104" y="442"/>
      <point x="125" y="410" type="curve" smooth="yes"/>
      <point x="232" y="251" type="line"/>
      <point x="208" y="239"/>
      <point x="185" y="222"/>
      <point x="168" y="191" type="curve" smooth="yes"/>
      <point x="101" y="65" type="line"/>
      <point x="91" y="49"/>
      <point x="82" y="38"/>
      <point x="66" y="38" type="curve" smooth="yes"/>
      <point x="54" y="38"/>
      <point x="43" y="41"/>
      <point x="30" y="51" type="curve"/>
      <point x="15" y="23" type="line"/>
      <point x="43" y="-3"/>
      <point x="69" y="-14"/>
      <point x="99" y="-14" type="curve" smooth="yes"/>
      <point x="156" y="-14"/>
      <point x="181" y="19"/>
      <point x="222" y="105" type="curve" smooth="yes"/>
      <point x="260" y="179" type="line" smooth="yes"/>
      <point x="286" y="229"/>
      <point x="333" y="223"/>
      <point x="333" y="249" type="curve" smooth="yes"/>
      <point x="333" y="256"/>
      <point x="331" y="265"/>
      <point x="315" y="265" type="curve" smooth="yes"/>
      <point x="296" y="265" type="line"/>
    </contour>
    <contour>
      <point x="638" y="191" type="line" smooth="yes"/>
      <point x="621" y="222"/>
      <point x="599" y="239"/>
      <point x="576" y="251" type="curve"/>
      <point x="681" y="410" type="line" smooth="yes"/>
      <point x="702" y="442"/>
      <point x="728" y="454"/>
      <point x="753" y="460" type="curve" smooth="yes"/>
      <point x="775" y="466" type="line"/>
      <point x="763" y="497" type="line"/>
      <point x="600" y="497" type="line"/>
      <point x="584" y="482" type="line"/>
      <point x="593" y="466" type="line"/>
      <point x="597" y="454"/>
      <point x="604" y="440"/>
      <point x="604" y="425" type="curve" smooth="yes"/>
      <point x="604" y="409"/>
      <point x="601" y="397"/>
      <point x="585" y="374" type="curve" smooth="yes"/>
      <point x="510" y="265" type="line"/>
      <point x="491" y="265" type="line" smooth="yes"/>
      <point x="476" y="265"/>
      <point x="473" y="256"/>
      <point x="473" y="249" type="curve" smooth="yes"/>
      <point x="473" y="223"/>
      <point x="521" y="229"/>
      <point x="546" y="179" type="curve" smooth="yes"/>
      <point x="584" y="105" type="line" smooth="yes"/>
      <point x="626" y="19"/>
      <point x="649" y="-14"/>
      <point x="707" y="-14" type="curve" smooth="yes"/>
      <point x="736" y="-14"/>
      <point x="766" y="-3"/>
      <point x="792" y="23" type="curve"/>
      <point x="776" y="51" type="line"/>
      <point x="763" y="41"/>
      <point x="752" y="38"/>
      <point x="740" y="38" type="curve" smooth="yes"/>
      <point x="724" y="38"/>
      <point x="716" y="49"/>
      <point x="705" y="65" type="curve"/>
    </contour>
    <contour>
      <point x="403" y="497" type="move" name="top"/>
    </contour>
    <contour>
      <point x="618" y="0" type="move" name="bottomright"/>
    </contour>
  </outline>
</glyph>
<glyph name="ka-cy" format="1">
  <advance width="593"/>
  <unicode hex="043A"/>
  <outline>
    <contour>
      <point x="279" y="0" type="line"/>
      <point x="288" y="30" type="line"/>
      <point x="269" y="36" type="line" smooth="yes"/>
      <point x="226" y="50"/>
      <point x="213" y="59"/>
      <point x="213" y="115" type="curve" smooth="yes"/>
      <point x="213" y="312" type="line" smooth="yes"/>
      <point x="213" y="387"/>
      <point x="225" y="426"/>
      <point x="254" y="467" type="curve" smooth="yes"/>
      <point x="266" y="483" type="line"/>
      <point x="254" y="497" type="line"/>
      <point x="54" y="497" type="line"/>
      <point x="45" y="467" type="line"/>
      <point x="64" y="460" type="line"/>
      <point x="111" y="447"/>
      <point x="123" y="432"/>
      <point x="123" y="375" type="curve" smooth="yes"/>
      <point x="123" y="122" type="line" smooth="yes"/>
      <point x="123" y="65"/>
      <point x="111" y="51"/>
      <point x="64" y="38" type="curve"/>
      <point x="45" y="31" type="line"/>
      <point x="54" y="0" type="line"/>
    </contour>
    <contour>
      <point x="414" y="191" type="line" smooth="yes"/>
      <point x="396" y="221"/>
      <point x="366" y="240"/>
      <point x="342" y="252" type="curve"/>
      <point x="467" y="410" type="line" smooth="yes"/>
      <point x="491" y="440"/>
      <point x="513" y="453"/>
      <point x="541" y="460" type="curve" smooth="yes"/>
      <point x="560" y="466" type="line"/>
      <point x="549" y="497" type="line"/>
      <point x="386" y="497" type="line"/>
      <point x="370" y="482" type="line"/>
      <point x="378" y="466" type="line" smooth="yes"/>
      <point x="383" y="454"/>
      <point x="385" y="443"/>
      <point x="385" y="431" type="curve" smooth="yes"/>
      <point x="385" y="412"/>
      <point x="380" y="393"/>
      <point x="365" y="374" type="curve" smooth="yes"/>
      <point x="275" y="265" type="line"/>
      <point x="257" y="265" type="line" smooth="yes"/>
      <point x="242" y="265"/>
      <point x="240" y="252"/>
      <point x="240" y="245" type="curve" smooth="yes"/>
      <point x="240" y="240"/>
      <point x="240" y="235"/>
      <point x="244" y="233" type="curve" smooth="yes"/>
      <point x="266" y="223"/>
      <point x="287" y="216"/>
      <point x="301" y="192" type="curve" smooth="yes"/>
      <point x="370" y="77" type="line" smooth="yes"/>
      <point x="404" y="21"/>
      <point x="435" y="-14"/>
      <point x="493" y="-14" type="curve" smooth="yes"/>
      <point x="522" y="-14"/>
      <point x="552" y="-3"/>
      <point x="578" y="23" type="curve"/>
      <point x="562" y="51" type="line"/>
      <point x="549" y="41"/>
      <point x="539" y="38"/>
      <point x="525" y="38" type="curve" smooth="yes"/>
      <point x="510" y="38"/>
      <point x="502" y="49"/>
      <point x="492" y="65" type="curve" smooth="yes"/>
    </contour>
    <contour>
      <point x="238" y="245" type="move" name="center"/>
    </contour>
    <contour>
      <point x="383" y="0" type="move" name="bottomright"/>
    </contour>
    <contour>
      <point x="323" y="497" type="move" name="top"/>
    </contour>
  </outline>
</glyph>
<glyph name="en-cy" format="1">
  <advance width="663"/>
  <unicode hex="043D"/>
  <outline>
    <contour>
      <point x="609" y="0" type="line"/>
      <point x="618" y="30" type="line"/>
      <point x="600" y="36" type="line" smooth="yes"/>
      <point x="557" y="49"/>
      <point x="545" y="60"/>
      <point x="545" y="115" type="curve" smooth="yes"/>
      <point x="545" y="312" type="line" smooth="yes"/>
      <point x="545" y="387"/>
      <point x="555" y="427"/>
      <point x="585" y="467" type="curve" smooth="yes"/>
      <point x="598" y="483" type="line"/>
      <point x="585" y="497" type="line"/>
      <point x="386" y="497" type="line"/>
      <point x="374" y="467" type="line"/>
      <point x="396" y="460" type="line" smooth="yes"/>
      <point x="443" y="447"/>
      <point x="455" y="432"/>
      <point x="455" y="375" type="curve" smooth="yes"/>
      <point x="455" y="279" type="line"/>
      <point x="214" y="279" type="line"/>
      <point x="214" y="312" type="line" smooth="yes"/>
      <point x="214" y="387"/>
      <point x="225" y="427"/>
      <point x="255" y="467" type="curve" smooth="yes"/>
      <point x="267" y="483" type="line"/>
      <point x="255" y="497" type="line"/>
      <point x="56" y="497" type="line"/>
      <point x="45" y="467" type="line"/>
      <point x="65" y="460" type="line" smooth="yes"/>
      <point x="112" y="447"/>
      <point x="124" y="432"/>
      <point x="124" y="375" type="curve" smooth="yes"/>
      <point x="124" y="122" type="line" smooth="yes"/>
      <point x="124" y="65"/>
      <point x="112" y="51"/>
      <point x="65" y="38" type="curve" smooth="yes"/>
      <point x="45" y="31" type="line"/>
      <point x="56" y="0" type="line"/>
      <point x="280" y="0" type="line"/>
      <point x="290" y="30" type="line"/>
      <point x="270" y="36" type="line" smooth="yes"/>
      <point x="227" y="49"/>
      <point x="214" y="60"/>
      <point x="214" y="115" type="curve" smooth="yes"/>
      <point x="214" y="221" type="line"/>
      <point x="455" y="221" type="line"/>
      <point x="455" y="122" type="line" smooth="yes"/>
      <point x="455" y="65"/>
      <point x="443" y="51"/>
      <point x="396" y="38" type="curve" smooth="yes"/>
      <point x="374" y="31" type="line"/>
      <point x="386" y="0" type="line"/>
    </contour>
    <contour>
      <point x="455" y="0" type="move" name="bottomright"/>
    </contour>
  </outline>
</glyph>
<glyph name="pe-cy" format="1">
  <advance width="636"/>
  <unicode hex="043F"/>
  <outline>
    <contour>
      <point x="355" y="442" type="line" smooth="yes"/>
      <point x="406" y="442"/>
      <point x="418" y="427"/>
      <point x="418" y="365" type="curve" smooth="yes"/>
      <point x="418" y="133" type="line" smooth="yes"/>
      <point x="418" y="69"/>
      <point x="404" y="55"/>
      <point x="355" y="40" type="curve"/>
      <point x="331" y="34" type="line"/>
      <point x="344" y="0" type="line"/>
      <point x="579" y="0" type="line"/>
      <point x="591" y="32" type="line"/>
      <point x="569" y="38" type="line" smooth="yes"/>
      <point x="521" y="51"/>
      <point x="509" y="67"/>
      <point x="509" y="126" type="curve" smooth="yes"/>
      <point x="509" y="295" type="line" smooth="yes"/>
      <point x="509" y="377"/>
      <point x="520" y="420"/>
      <point x="553" y="462" type="curve"/>
      <point x="566" y="482" type="line"/>
      <point x="553" y="497" type="line"/>
      <point x="58" y="497" type="line"/>
      <point x="45" y="482" type="line"/>
      <point x="58" y="462" type="line"/>
      <point x="91" y="420"/>
      <point x="102" y="377"/>
      <point x="102" y="295" type="curve" smooth="yes"/>
      <point x="102" y="201" type="line" smooth="yes"/>
      <point x="102" y="119"/>
      <point x="91" y="78"/>
      <point x="58" y="34" type="curve" smooth="yes"/>
      <point x="45" y="16" type="line"/>
      <point x="58" y="0" type="line"/>
      <point x="267" y="0" type="line"/>
      <point x="280" y="34" type="line"/>
      <point x="256" y="40" type="line"/>
      <point x="206" y="55"/>
      <point x="192" y="69"/>
      <point x="192" y="133" type="curve" smooth="yes"/>
      <point x="192" y="365" type="line" smooth="yes"/>
      <point x="192" y="427"/>
      <point x="204" y="442"/>
      <point x="256" y="442" type="curve" smooth="yes"/>
    </contour>
    <contour>
      <point x="418" y="0" type="move" name="bottomright"/>
    </contour>
  </outline>
</glyph>
<glyph name="tse-cy" format="1">
  <advance width="656"/>
  <unicode hex="0446"/>
  <outline>
    <contour>
      <point x="541" y="312" type="line" smooth="yes"/>
      <point x="541" y="387"/>
      <point x="551" y="426"/>
      <point x="582" y="467" type="curve" smooth="yes"/>
      <point x="593" y="482" type="line"/>
      <point x="582" y="497" type="line"/>
      <point x="382" y="497" type="line"/>
      <point x="369" y="467" type="line"/>
      <point x="391" y="460" type="line" smooth="yes"/>
      <point x="437" y="447"/>
      <point x="451" y="432"/>
      <point x="451" y="375" type="curve" smooth="yes"/>
      <point x="451" y="122" type="line" smooth="yes"/>
      <point x="451" y="65"/>
      <point x="439" y="52"/>
      <point x="391" y="52" type="curve" smooth="yes"/>
      <point x="273" y="52" type="line" smooth="yes"/>
      <point x="225" y="52"/>
      <point x="214" y="65"/>
      <point x="214" y="122" type="curve" smooth="yes"/>
      <point x="214" y="312" type="line" smooth="yes"/>
      <point x="214" y="387"/>
      <point x="225" y="426"/>
      <point x="255" y="467" type="curve" smooth="yes"/>
      <point x="267" y="482" type="line"/>
      <point x="255" y="497" type="line"/>
      <point x="56" y="497" type="line"/>
      <point x="45" y="467" type="line"/>
      <point x="65" y="460" type="line" smooth="yes"/>
      <point x="112" y="447"/>
      <point x="123" y="432"/>
      <point x="123" y="375" type="curve" smooth="yes"/>
      <point x="123" y="122" type="line" smooth="yes"/>
      <point x="123" y="65"/>
      <point x="113" y="47"/>
      <point x="65" y="37" type="curve" smooth="yes"/>
      <point x="45" y="31" type="line"/>
      <point x="56" y="0" type="line"/>
      <point x="455" y="0" type="line" smooth="yes"/>
      <point x="538" y="0"/>
      <point x="569" y="-51"/>
      <point x="595" y="-158" type="curve" smooth="yes"/>
      <point x="599" y="-180" type="line"/>
      <point x="631" y="-168" type="line"/>
      <point x="631" y="39" type="line"/>
      <point x="582" y="39"/>
      <point x="541" y="56"/>
      <point x="541" y="97" type="curve" smooth="yes"/>
    </contour>
  </outline>
</glyph>
<glyph name="iu-cy" format="1">
  <advance width="851"/>
  <unicode hex="044E"/>
  <outline>
    <contour>
      <point x="565" y="40" type="curve" smooth="yes"/>
      <point x="482" y="40"/>
      <point x="439" y="121"/>
      <point x="439" y="247" type="curve" smooth="yes"/>
      <point x="439" y="373"/>
      <point x="486" y="457"/>
      <point x="571" y="457" type="curve" smooth="yes"/>
      <point x="674" y="457"/>
      <point x="703" y="328"/>
      <point x="703" y="246" type="curve" smooth="yes"/>
      <point x="703" y="122"/>
      <point x="643" y="40"/>
    </contour>
    <contour>
      <point x="214" y="279" type="line"/>
      <point x="214" y="312" type="line" smooth="yes"/>
      <point x="214" y="387"/>
      <point x="225" y="427"/>
      <point x="255" y="467" type="curve" smooth="yes"/>
      <point x="267" y="483" type="line"/>
      <point x="255" y="497" type="line"/>
      <point x="56" y="497" type="line"/>
      <point x="45" y="467" type="line"/>
      <point x="66" y="460" type="line" smooth="yes"/>
      <point x="112" y="447"/>
      <point x="124" y="432"/>
      <point x="124" y="375" type="curve" smooth="yes"/>
      <point x="124" y="122" type="line" smooth="yes"/>
      <point x="124" y="65"/>
      <point x="112" y="51"/>
      <point x="66" y="38" type="curve" smooth="yes"/>
      <point x="45" y="31" type="line"/>
      <point x="56" y="0" type="line"/>
      <point x="280" y="0" type="line"/>
      <point x="290" y="30" type="line"/>
      <point x="270" y="36" type="line" smooth="yes"/>
      <point x="227" y="49"/>
      <point x="214" y="60"/>
      <point x="214" y="115" type="curve" smooth="yes"/>
      <point x="214" y="221" type="line"/>
      <point x="336" y="221" type="line"/>
      <point x="344" y="78"/>
      <point x="428" y="-14"/>
      <point x="568" y="-14" type="curve" smooth="yes"/>
      <point x="712" y="-14"/>
      <point x="806" y="88"/>
      <point x="806" y="248" type="curve" smooth="yes"/>
      <point x="806" y="409"/>
      <point x="712" y="509"/>
      <point x="568" y="509" type="curve" smooth="yes"/>
      <point x="429" y="509"/>
      <point x="346" y="422"/>
      <point x="336" y="279" type="curve"/>
    </contour>
  </outline>
</glyph>
<glyph name="dje-cy" format="1">
  <advance width="603"/>
  <unicode hex="0452"/>
  <outline>
    <contour>
      <point x="202" y="750" type="line" smooth="yes"/>
      <point x="202" y="770"/>
      <point x="189" y="783"/>
      <point x="169" y="783" type="curve" smooth="yes"/>
      <point x="133" y="783"/>
      <point x="78" y="757"/>
      <point x="39" y="722" type="curve"/>
      <point x="46" y="696" type="line"/>
      <point x="92" y="696" type="line" smooth="yes"/>
      <point x="106" y="696"/>
      <point x="111" y="691"/>
      <point x="111" y="675" type="curve" smooth="yes"/>
      <point x="111" y="607" type="line"/>
      <point x="23" y="607" type="line"/>
      <point x="9" y="595"/>
      <point x="0" y="574"/>
      <point x="0" y="543" type="curve"/>
      <point x="111" y="543" type="line"/>
      <point x="111" y="111" type="line" smooth="yes"/>
      <point x="111" y="60"/>
      <point x="104" y="43"/>
      <point x="69" y="37" type="curve"/>
      <point x="47" y="31" type="line"/>
      <point x="59" y="0" type="line"/>
      <point x="235" y="0" type="line"/>
      <point x="247" y="15" type="line"/>
      <point x="235" y="31" type="line" smooth="yes"/>
      <point x="210" y="65"/>
      <point x="202" y="98"/>
      <point x="202" y="160" type="curve" smooth="yes"/>
      <point x="202" y="230" type="line" smooth="yes"/>
      <point x="202" y="306"/>
      <point x="277" y="374"/>
      <point x="358" y="374" type="curve" smooth="yes"/>
      <point x="431" y="374"/>
      <point x="477" y="327"/>
      <point x="477" y="150" type="curve" smooth="yes"/>
      <point x="477" y="-53"/>
      <point x="408" y="-142"/>
      <point x="335" y="-142" type="curve" smooth="yes"/>
      <point x="301" y="-142"/>
      <point x="293" y="-126"/>
      <point x="283" y="-126" type="curve" smooth="yes"/>
      <point x="273" y="-126"/>
      <point x="269" y="-132"/>
      <point x="269" y="-147" type="curve" smooth="yes"/>
      <point x="269" y="-176"/>
      <point x="297" y="-207"/>
      <point x="357" y="-207" type="curve" smooth="yes"/>
      <point x="504" y="-207"/>
      <point x="578" y="-42"/>
      <point x="578" y="150" type="curve" smooth="yes"/>
      <point x="578" y="383"/>
      <point x="485" y="451"/>
      <point x="390" y="451" type="curve" smooth="yes"/>
      <point x="313" y="451"/>
      <point x="236" y="407"/>
      <point x="202" y="345" type="curve"/>
      <point x="202" y="543" type="line"/>
      <point x="406" y="543" type="line"/>
      <point x="422" y="555"/>
      <point x="431" y="578"/>
      <point x="431" y="607" type="curve"/>
      <point x="202" y="607" type="line"/>
    </contour>
  </outline>
</glyph>
<glyph name="e-cy" format="1">
  <advance width="519"/>
  <unicode hex="0454"/>
  <outline>
    <contour>
      <point x="444" y="103" type="curve"/>
      <point x="403" y="69"/>
      <point x="359" y="53"/>
      <point x="308" y="53" type="curve" smooth="yes"/>
      <point x="222" y="53"/>
      <point x="164" y="112"/>
      <point x="152" y="212" type="curve"/>
      <point x="329" y="212" type="line"/>
      <point x="346" y="226"/>
      <point x="350" y="252"/>
      <point x="350" y="275" type="curve"/>
      <point x="149" y="275" type="line"/>
      <point x="154" y="385"/>
      <point x="207" y="457"/>
      <point x="282" y="457" type="curve" smooth="yes"/>
      <point x="342" y="457"/>
      <point x="384" y="424"/>
      <point x="384" y="381" type="curve" smooth="yes"/>
      <point x="384" y="340"/>
      <point x="372" y="333"/>
      <point x="372" y="323" type="curve" smooth="yes"/>
      <point x="372" y="314"/>
      <point x="378" y="313"/>
      <point x="389" y="313" type="curve" smooth="yes"/>
      <point x="437" y="313"/>
      <point x="472" y="341"/>
      <point x="472" y="388" type="curve" smooth="yes"/>
      <point x="472" y="457"/>
      <point x="400" y="509"/>
      <point x="295" y="509" type="curve" smooth="yes"/>
      <point x="143" y="509"/>
      <point x="45" y="408"/>
      <point x="45" y="247" type="curve" smooth="yes"/>
      <point x="45" y="97"/>
      <point x="149" y="-14"/>
      <point x="292" y="-14" type="curve" smooth="yes"/>
      <point x="363" y="-14"/>
      <point x="429" y="15"/>
      <point x="476" y="69" type="curve"/>
      <point x="479" y="70"/>
      <point x="479" y="74"/>
      <point x="479" y="78" type="curve" smooth="yes"/>
      <point x="479" y="91"/>
      <point x="465" y="106"/>
      <point x="454" y="106" type="curve" smooth="yes"/>
      <point x="449" y="106"/>
      <point x="445" y="105"/>
    </contour>
  </outline>
</glyph>
<glyph name="lje-cy" format="1">
  <advance width="859"/>
  <unicode hex="0459"/>
  <outline>
    <contour>
      <point x="585" y="294"/>
      <point x="533" y="285"/>
      <point x="533" y="259" type="curve" smooth="yes"/>
      <point x="533" y="249"/>
      <point x="539" y="239"/>
      <point x="546" y="239" type="curve" smooth="yes"/>
      <point x="558" y="239"/>
      <point x="569" y="249"/>
      <point x="613" y="249" type="curve" smooth="yes"/>
      <point x="686" y="249"/>
      <point x="735" y="205"/>
      <point x="735" y="151" type="curve" smooth="yes"/>
      <point x="735" y="91"/>
      <point x="692" y="49"/>
      <point x="624" y="49" type="curve" smooth="yes"/>
      <point x="575" y="49"/>
      <point x="511" y="53"/>
      <point x="511" y="185" type="curve" smooth="yes"/>
      <point x="511" y="312" type="line" smooth="yes"/>
      <point x="511" y="387"/>
      <point x="522" y="426"/>
      <point x="552" y="467" type="curve"/>
      <point x="566" y="483" type="line"/>
      <point x="552" y="497" type="line"/>
      <point x="154" y="497" type="line"/>
      <point x="143" y="467" type="line"/>
      <point x="163" y="460" type="line"/>
      <point x="221" y="452"/>
      <point x="232" y="442"/>
      <point x="228" y="384" type="curve" smooth="yes"/>
      <point x="215" y="215"/>
      <point x="185" y="68"/>
      <point x="121" y="68" type="curve" smooth="yes"/>
      <point x="98" y="68"/>
      <point x="88" y="89"/>
      <point x="86" y="107" type="curve" smooth="yes"/>
      <point x="84" y="125"/>
      <point x="78" y="138"/>
      <point x="63" y="138" type="curve" smooth="yes"/>
      <point x="33" y="138"/>
      <point x="15" y="115"/>
      <point x="15" y="77" type="curve" smooth="yes"/>
      <point x="15" y="22"/>
      <point x="50" y="-14"/>
      <point x="103" y="-14" type="curve" smooth="yes"/>
      <point x="175" y="-14"/>
      <point x="262" y="41"/>
      <point x="286" y="408" type="curve" smooth="yes"/>
      <point x="289" y="440"/>
      <point x="310" y="444"/>
      <point x="344" y="444" type="curve" smooth="yes"/>
      <point x="361" y="444" type="line" smooth="yes"/>
      <point x="409" y="444"/>
      <point x="421" y="431"/>
      <point x="421" y="374" type="curve" smooth="yes"/>
      <point x="421" y="122" type="line" smooth="yes"/>
      <point x="421" y="66"/>
      <point x="405" y="51"/>
      <point x="361" y="38" type="curve" smooth="yes"/>
      <point x="340" y="31" type="line"/>
      <point x="351" y="0" type="line"/>
      <point x="608" y="0" type="line" smooth="yes"/>
      <point x="777" y="0"/>
      <point x="839" y="61"/>
      <point x="839" y="148" type="curve" smooth="yes"/>
      <point x="839" y="226"/>
      <point x="770" y="294"/>
      <point x="629" y="294" type="curve" smooth="yes"/>
    </contour>
  </outline>
</glyph>
<glyph name="tshe-cy" format="1">
  <advance width="592"/>
  <unicode hex="045B"/>
  <outline>
    <contour>
      <point x="175" y="750" type="line" smooth="yes"/>
      <point x="175" y="770"/>
      <point x="162" y="783"/>
      <point x="143" y="783" type="curve" smooth="yes"/>
      <point x="106" y="783"/>
      <point x="51" y="757"/>
      <point x="12" y="722" type="curve"/>
      <point x="20" y="696" type="line"/>
      <point x="65" y="696" type="line" smooth="yes"/>
      <point x="79" y="696"/>
      <point x="85" y="691"/>
      <point x="85" y="675" type="curve" smooth="yes"/>
      <point x="85" y="607" type="line"/>
      <point x="-4" y="607" type="line"/>
      <point x="-18" y="595"/>
      <point x="-26" y="574"/>
      <point x="-26" y="543" type="curve"/>
      <point x="85" y="543" type="line"/>
      <point x="85" y="111" type="line" smooth="yes"/>
      <point x="85" y="60"/>
      <point x="77" y="43"/>
      <point x="43" y="37" type="curve"/>
      <point x="21" y="31" type="line"/>
      <point x="33" y="0" type="line"/>
      <point x="209" y="0" type="line"/>
      <point x="221" y="15" type="line"/>
      <point x="209" y="31" type="line" smooth="yes"/>
      <point x="184" y="65"/>
      <point x="175" y="98"/>
      <point x="175" y="160" type="curve" smooth="yes"/>
      <point x="175" y="239"/>
      <point x="235" y="374"/>
      <point x="321" y="374" type="curve" smooth="yes"/>
      <point x="384" y="374"/>
      <point x="407" y="337"/>
      <point x="407" y="268" type="curve" smooth="yes"/>
      <point x="407" y="92" type="line" smooth="yes"/>
      <point x="407" y="16"/>
      <point x="429" y="-14"/>
      <point x="484" y="-14" type="curve" smooth="yes"/>
      <point x="518" y="-14"/>
      <point x="561" y="11"/>
      <point x="597" y="50" type="curve"/>
      <point x="576" y="75" type="line"/>
      <point x="559" y="60"/>
      <point x="543" y="54"/>
      <point x="527" y="54" type="curve" smooth="yes"/>
      <point x="507" y="54"/>
      <point x="498" y="66"/>
      <point x="498" y="88" type="curve" smooth="yes"/>
      <point x="498" y="268" type="line" smooth="yes"/>
      <point x="498" y="393"/>
      <point x="464" y="451"/>
      <point x="364" y="451" type="curve" smooth="yes"/>
      <point x="287" y="451"/>
      <point x="210" y="389"/>
      <point x="175" y="302" type="curve"/>
      <point x="175" y="543" type="line"/>
      <point x="380" y="543" type="line"/>
      <point x="395" y="555"/>
      <point x="405" y="578"/>
      <point x="405" y="607" type="curve"/>
      <point x="175" y="607" type="line"/>
    </contour>
  </outline>
</glyph>
<glyph name="Yat-cy" format="1">
  <advance width="682"/>
  <unicode hex="0462"/>
  <outline>
    <contour>
      <point x="326" y="567" type="line" smooth="yes"/>
      <point x="326" y="647"/>
      <point x="340" y="688"/>
      <point x="371" y="733" type="curve" smooth="yes"/>
      <point x="384" y="751" type="line"/>
      <point x="371" y="768" type="line"/>
      <point x="151" y="768" type="line"/>
      <point x="140" y="733" type="line"/>
      <point x="163" y="728" type="line" smooth="yes"/>
      <point x="213" y="717"/>
      <point x="227" y="694"/>
      <point x="227" y="635" type="curve" smooth="yes"/>
      <point x="227" y="133" type="line" smooth="yes"/>
      <point x="227" y="71"/>
      <point x="213" y="53"/>
      <point x="163" y="40" type="curve" smooth="yes"/>
      <point x="140" y="34" type="line"/>
      <point x="151" y="0" type="line"/>
      <point x="421" y="0" type="line" smooth="yes"/>
      <point x="585" y="0"/>
      <point x="660" y="79"/>
      <point x="660" y="185" type="curve" smooth="yes"/>
      <point x="660" y="307"/>
      <point x="563" y="375"/>
      <point x="437" y="375" type="curve" smooth="yes"/>
      <point x="389" y="375"/>
      <point x="345" y="365"/>
      <point x="345" y="343" type="curve" smooth="yes"/>
      <point x="345" y="332"/>
      <point x="349" y="321"/>
      <point x="358" y="321" type="curve" smooth="yes"/>
      <point x="369" y="321"/>
      <point x="381" y="330"/>
      <point x="419" y="330" type="curve" smooth="yes"/>
      <point x="505" y="330"/>
      <point x="565" y="276"/>
      <point x="565" y="181" type="curve" smooth="yes"/>
      <point x="565" y="94"/>
      <point x="516" y="47"/>
      <point x="427" y="47" type="curve" smooth="yes"/>
      <point x="364" y="47"/>
      <point x="326" y="79"/>
      <point x="326" y="183" type="curve" smooth="yes"/>
    </contour>
    <contour>
      <point x="521" y="462" type="line"/>
      <point x="556" y="474" type="line"/>
      <point x="556" y="631" type="line"/>
      <point x="538" y="644" type="line"/>
      <point x="521" y="631" type="line" smooth="yes"/>
      <point x="502" y="616"/>
      <point x="465" y="610"/>
      <point x="408" y="610" type="curve" smooth="yes"/>
      <point x="168" y="610" type="line" smooth="yes"/>
      <point x="110" y="610"/>
      <point x="75" y="616"/>
      <point x="54" y="631" type="curve" smooth="yes"/>
      <point x="37" y="644" type="line"/>
      <point x="20" y="631" type="line"/>
      <point x="20" y="474" type="line"/>
      <point x="54" y="462" type="line"/>
      <point x="60" y="486" type="line" smooth="yes"/>
      <point x="73" y="542"/>
      <point x="97" y="554"/>
      <point x="169" y="554" type="curve" smooth="yes"/>
      <point x="192" y="554" type="line" smooth="yes"/>
      <point x="221" y="554"/>
      <point x="227" y="550"/>
      <point x="227" y="531" type="curve"/>
      <point x="326" y="531" type="line"/>
      <point x="326" y="550"/>
      <point x="333" y="554"/>
      <point x="361" y="554" type="curve" smooth="yes"/>
      <point x="407" y="554" type="line" smooth="yes"/>
      <point x="477" y="554"/>
      <point x="500" y="541"/>
      <point x="516" y="486" type="curve" smooth="yes"/>
    </contour>
  </outline>
</glyph>
<glyph name="Yusbig-cy" format="1">
  <advance width="1016"/>
  <unicode hex="046A"/>
  <outline>
    <contour>
      <point x="558" y="345" type="line"/>
      <point x="713" y="578" type="line" smooth="yes"/>
      <point x="752" y="636"/>
      <point x="769" y="657"/>
      <point x="800" y="684" type="curve"/>
      <point x="814" y="702" type="line"/>
      <point x="802" y="718" type="line"/>
      <point x="209" y="718" type="line"/>
      <point x="196" y="702" type="line"/>
      <point x="241" y="673"/>
      <point x="261" y="635"/>
      <point x="301" y="576" type="curve" smooth="yes"/>
      <point x="459" y="337" type="line"/>
      <point x="459" y="133" type="line" smooth="yes"/>
      <point x="459" y="69"/>
      <point x="450" y="55"/>
      <point x="415" y="40" type="curve"/>
      <point x="394" y="34" type="line"/>
      <point x="405" y="0" type="line"/>
      <point x="607" y="0" type="line"/>
      <point x="618" y="32" type="line"/>
      <point x="597" y="38" type="line"/>
      <point x="566" y="52"/>
      <point x="558" y="67"/>
      <point x="558" y="126" type="curve" smooth="yes"/>
    </contour>
    <contour>
      <point x="349" y="649"/>
      <point x="360" y="662"/>
      <point x="381" y="662" type="curve" smooth="yes"/>
      <point x="670" y="662" type="line" smooth="yes"/>
      <point x="695" y="662"/>
      <point x="697" y="646"/>
      <point x="682" y="622" type="curve" smooth="yes"/>
      <point x="523" y="379" type="line"/>
      <point x="365" y="625" type="line" smooth="yes"/>
    </contour>
    <contour>
      <point x="413" y="367"/>
      <point x="411" y="381"/>
      <point x="393" y="381" type="curve" smooth="yes"/>
      <point x="360" y="381" type="line" smooth="yes"/>
      <point x="282" y="381"/>
      <point x="235" y="336"/>
      <point x="199" y="257" type="curve"/>
      <point x="104" y="71" type="line" smooth="yes"/>
      <point x="94" y="52"/>
      <point x="83" y="41"/>
      <point x="65" y="41" type="curve" smooth="yes"/>
      <point x="52" y="41"/>
      <point x="40" y="44"/>
      <point x="26" y="55" type="curve"/>
      <point x="10" y="26" type="line"/>
      <point x="38" y="-3"/>
      <point x="70" y="-14"/>
      <point x="106" y="-14" type="curve" smooth="yes"/>
      <point x="169" y="-14"/>
      <point x="208" y="21"/>
      <point x="240" y="84" type="curve" smooth="yes"/>
      <point x="330" y="266" type="line" smooth="yes"/>
      <point x="352" y="310"/>
      <point x="374" y="331"/>
      <point x="409" y="346" type="curve" smooth="yes"/>
      <point x="412" y="347"/>
      <point x="413" y="350"/>
      <point x="413" y="357" type="curve" smooth="yes"/>
    </contour>
    <contour>
      <point x="976" y="44"/>
      <point x="964" y="41"/>
      <point x="951" y="41" type="curve" smooth="yes"/>
      <point x="933" y="41"/>
      <point x="922" y="52"/>
      <point x="912" y="71" type="curve" smooth="yes"/>
      <point x="817" y="257" type="line"/>
      <point x="781" y="336"/>
      <point x="734" y="381"/>
      <point x="656" y="381" type="curve" smooth="yes"/>
      <point x="623" y="381" type="line" smooth="yes"/>
      <point x="605" y="381"/>
      <point x="603" y="367"/>
      <point x="603" y="357" type="curve" smooth="yes"/>
      <point x="603" y="350"/>
      <point x="605" y="347"/>
      <point x="610" y="345" type="curve" smooth="yes"/>
      <point x="643" y="332"/>
      <point x="662" y="314"/>
      <point x="686" y="266" type="curve" smooth="yes"/>
      <point x="776" y="84" type="line" smooth="yes"/>
      <point x="808" y="20"/>
      <point x="847" y="-14"/>
      <point x="910" y="-14" type="curve" smooth="yes"/>
      <point x="946" y="-14"/>
      <point x="978" y="-3"/>
      <point x="1006" y="26" type="curve"/>
      <point x="990" y="55" type="line"/>
    </contour>
  </outline>
</glyph>
<glyph name="Fita-cy" format="1">
  <advance width="733"/>
  <unicode hex="0472"/>
  <outline>
    <contour>
      <point x="524" y="414"/>
      <point x="518" y="417"/>
      <point x="508" y="412" type="curve" smooth="yes"/>
      <point x="473" y="395"/>
      <point x="446" y="388"/>
      <point x="425" y="388" type="curve" smooth="yes"/>
      <point x="389" y="388"/>
      <point x="363" y="424"/>
      <point x="315" y="424" type="curve" smooth="yes"/>
      <point x="281" y="424"/>
      <point x="237" y="403"/>
      <point x="204" y="370" type="curve" smooth="yes"/>
      <point x="196" y="362"/>
      <point x="194" y="354"/>
      <point x="197" y="342" type="curve" smooth="yes"/>
      <point x="200" y="329"/>
      <point x="214" y="325"/>
      <point x="226" y="331" type="curve" smooth="yes"/>
      <point x="256" y="346"/>
      <point x="279" y="354"/>
      <point x="308" y="354" type="curve" smooth="yes"/>
      <point x="353" y="354"/>
      <point x="367" y="319"/>
      <point x="421" y="319" type="curve" smooth="yes"/>
      <point x="453" y="319"/>
      <point x="496" y="345"/>
      <point x="532" y="381" type="curve" smooth="yes"/>
      <point x="537" y="386"/>
      <point x="538" y="395"/>
      <point x="532" y="403" type="curve" smooth="yes"/>
    </contour>
    <component base="O"/>
  </outline>
</glyph>
<glyph name="fita-cy" format="1">
  <advance width="578"/>
  <unicode hex="0473"/>
  <outline>
    <contour>
      <point x="442" y="286"/>
      <point x="437" y="290"/>
      <point x="427" y="286" type="curve" smooth="yes"/>
      <point x="390" y="271"/>
      <point x="366" y="263"/>
      <point x="344" y="263" type="curve" smooth="yes"/>
      <point x="309" y="263"/>
      <point x="283" y="296"/>
      <point x="234" y="296" type="curve" smooth="yes"/>
      <point x="200" y="296"/>
      <point x="162" y="269"/>
      <point x="123" y="246" type="curve" smooth="yes"/>
      <point x="113" y="240"/>
      <point x="112" y="232"/>
      <point x="117" y="219" type="curve" smooth="yes"/>
      <point x="122" y="207"/>
      <point x="133" y="203"/>
      <point x="146" y="209" type="curve" smooth="yes"/>
      <point x="174" y="222"/>
      <point x="198" y="231"/>
      <point x="228" y="231" type="curve" smooth="yes"/>
      <point x="273" y="231"/>
      <point x="286" y="198"/>
      <point x="340" y="198" type="curve" smooth="yes"/>
      <point x="372" y="198"/>
      <point x="412" y="223"/>
      <point x="451" y="256" type="curve" smooth="yes"/>
      <point x="457" y="261"/>
      <point x="458" y="270"/>
      <point x="452" y="276" type="curve" smooth="yes"/>
    </contour>
    <component base="o"/>
  </outline>
</glyph>
<glyph name="gheupturn-cy" format="1">
  <advance width="410"/>
  <unicode hex="0491"/>
  <outline>
    <contour>
      <point x="46" y="492" type="line"/>
      <point x="35" y="478" type="line"/>
      <point x="46" y="460" type="line"/>
      <point x="76" y="422"/>
      <point x="88" y="381"/>
      <point x="88" y="306" type="curve" smooth="yes"/>
      <point x="88" y="176" type="line" smooth="yes"/>
      <point x="88" y="100"/>
      <point x="76" y="71"/>
      <point x="46" y="31" type="curve"/>
      <point x="35" y="15" type="line"/>
      <point x="46" y="0" type="line"/>
      <point x="247" y="0" type="line"/>
      <point x="258" y="31" type="line"/>
      <point x="237" y="38" type="line" smooth="yes"/>
      <point x="190" y="51"/>
      <point x="178" y="65"/>
      <point x="178" y="122" type="curve" smooth="yes"/>
      <point x="178" y="370" type="line" smooth="yes"/>
      <point x="178" y="427"/>
      <point x="189" y="439"/>
      <point x="237" y="439" type="curve" smooth="yes"/>
      <point x="274" y="439" type="line" smooth="yes"/>
      <point x="297" y="439"/>
      <point x="329" y="436"/>
      <point x="353" y="419" type="curve"/>
      <point x="370" y="408" type="line"/>
      <point x="385" y="419" type="line"/>
      <point x="385" y="650" type="line"/>
      <point x="353" y="663" type="line"/>
      <point x="346" y="640" type="line"/>
      <point x="320" y="540"/>
      <point x="291" y="492"/>
      <point x="204" y="492" type="curve" smooth="yes"/>
    </contour>
  </outline>
</glyph>
<glyph name="Ghemiddlehook-cy" format="1">
  <advance width="602"/>
  <unicode hex="0494"/>
  <outline>
    <contour>
      <point x="509" y="-76"/>
      <point x="576" y="61"/>
      <point x="576" y="181" type="curve" smooth="yes"/>
      <point x="576" y="311"/>
      <point x="499" y="426"/>
      <point x="343" y="426" type="curve" smooth="yes"/>
      <point x="275" y="426"/>
      <point x="228" y="416"/>
      <point x="179" y="397" type="curve"/>
      <point x="179" y="326" type="line"/>
      <point x="207" y="347"/>
      <point x="248" y="367"/>
      <point x="313" y="367" type="curve" smooth="yes"/>
      <point x="421" y="367"/>
      <point x="473" y="273"/>
      <point x="473" y="170" type="curve" smooth="yes"/>
      <point x="473" y="84"/>
      <point x="437" y="-15"/>
      <point x="365" y="-15" type="curve" smooth="yes"/>
      <point x="330" y="-15"/>
      <point x="323" y="0"/>
      <point x="311" y="0" type="curve" smooth="yes"/>
      <point x="303" y="0"/>
      <point x="299" y="-7"/>
      <point x="299" y="-22" type="curve" smooth="yes"/>
      <point x="299" y="-51"/>
      <point x="324" y="-76"/>
      <point x="377" y="-76" type="curve" smooth="yes"/>
    </contour>
    <contour>
      <point x="53" y="718" type="line"/>
      <point x="40" y="702" type="line"/>
      <point x="53" y="684" type="line" smooth="yes"/>
      <point x="86" y="640"/>
      <point x="99" y="597"/>
      <point x="99" y="517" type="curve" smooth="yes"/>
      <point x="99" y="201" type="line" smooth="yes"/>
      <point x="99" y="119"/>
      <point x="86" y="78"/>
      <point x="53" y="34" type="curve" smooth="yes"/>
      <point x="40" y="16" type="line"/>
      <point x="53" y="0" type="line"/>
      <point x="243" y="0" type="line"/>
      <point x="255" y="34" type="line"/>
      <point x="231" y="40" type="line"/>
      <point x="204" y="55"/>
      <point x="197" y="69"/>
      <point x="197" y="133" type="curve" smooth="yes"/>
      <point x="197" y="585" type="line" smooth="yes"/>
      <point x="197" y="647"/>
      <point x="209" y="662"/>
      <point x="261" y="662" type="curve" smooth="yes"/>
      <point x="347" y="662" type="line" smooth="yes"/>
      <point x="418" y="662"/>
      <point x="440" y="645"/>
      <point x="456" y="572" type="curve" smooth="yes"/>
      <point x="461" y="549" type="line"/>
      <point x="496" y="561" type="line"/>
      <point x="496" y="738" type="line"/>
      <point x="480" y="751" type="line"/>
      <point x="461" y="738" type="line" smooth="yes"/>
      <point x="441" y="724"/>
      <point x="406" y="718"/>
      <point x="348" y="718" type="curve" smooth="yes"/>
    </contour>
  </outline>
</glyph>
<glyph name="ghemiddlehook-cy" format="1">
  <advance width="506"/>
  <unicode hex="0495"/>
  <outline>
    <contour>
      <point x="177" y="218" type="line"/>
      <point x="214" y="230"/>
      <point x="244" y="236"/>
      <point x="270" y="236" type="curve" smooth="yes"/>
      <point x="355" y="236"/>
      <point x="387" y="180"/>
      <point x="387" y="64" type="curve" smooth="yes"/>
      <point x="387" y="-54"/>
      <point x="372" y="-150"/>
      <point x="272" y="-150" type="curve" smooth="yes"/>
      <point x="237" y="-150"/>
      <point x="230" y="-134"/>
      <point x="219" y="-134" type="curve" smooth="yes"/>
      <point x="209" y="-134"/>
      <point x="205" y="-139"/>
      <point x="205" y="-154" type="curve" smooth="yes"/>
      <point x="205" y="-185"/>
      <point x="234" y="-207"/>
      <point x="289" y="-207" type="curve" smooth="yes"/>
      <point x="429" y="-207"/>
      <point x="481" y="-56"/>
      <point x="481" y="64" type="curve" smooth="yes"/>
      <point x="481" y="215"/>
      <point x="410" y="288"/>
      <point x="298" y="288" type="curve" smooth="yes"/>
      <point x="261" y="288"/>
      <point x="221" y="280"/>
      <point x="177" y="265" type="curve"/>
    </contour>
    <contour>
      <point x="56" y="492" type="line"/>
      <point x="45" y="478" type="line"/>
      <point x="56" y="460" type="line"/>
      <point x="86" y="422"/>
      <point x="98" y="381"/>
      <point x="98" y="306" type="curve" smooth="yes"/>
      <point x="98" y="176" type="line" smooth="yes"/>
      <point x="98" y="105"/>
      <point x="82" y="69"/>
      <point x="56" y="31" type="curve" smooth="yes"/>
      <point x="45" y="15" type="line"/>
      <point x="56" y="0" type="line"/>
      <point x="219" y="0" type="line"/>
      <point x="230" y="31" type="line"/>
      <point x="209" y="38" type="line" smooth="yes"/>
      <point x="194" y="42"/>
      <point x="188" y="63"/>
      <point x="188" y="122" type="curve" smooth="yes"/>
      <point x="188" y="370" type="line" smooth="yes"/>
      <point x="188" y="427"/>
      <point x="198" y="439"/>
      <point x="247" y="439" type="curve" smooth="yes"/>
      <point x="298" y="439" type="line" smooth="yes"/>
      <point x="363" y="439"/>
      <point x="381" y="428"/>
      <point x="397" y="378" type="curve"/>
      <point x="404" y="358" type="line"/>
      <point x="435" y="368" type="line"/>
      <point x="435" y="510" type="line"/>
      <point x="420" y="523" type="line"/>
      <point x="404" y="510" type="line"/>
      <point x="385" y="496"/>
      <point x="352" y="492"/>
      <point x="299" y="492" type="curve" smooth="yes"/>
    </contour>
  </outline>
</glyph>
<glyph name="zedescender-cy" format="1">
  <advance width="464"/>
  <unicode hex="0499"/>
  <outline>
    <contour>
      <point x="261" y="-151" type="line"/>
      <point x="261" y="0" type="line"/>
      <point x="121" y="5" type="line"/>
      <point x="166" y="-11"/>
      <point x="191" y="-19"/>
      <point x="223" y="-141" type="curve" smooth="yes"/>
      <point x="229" y="-162" type="line"/>
    </contour>
    <component base="ze-cy" xOffset="-18"/>
  </outline>
</glyph>
<glyph name="Kaverticalstroke-cy" format="1">
  <advance width="701"/>
  <unicode hex="049C"/>
  <outline>
    <contour>
      <point x="297" y="0" type="line"/>
      <point x="307" y="32" type="line"/>
      <point x="287" y="38" type="line" smooth="yes"/>
      <point x="239" y="51"/>
      <point x="226" y="67"/>
      <point x="226" y="126" type="curve" smooth="yes"/>
      <point x="226" y="517" type="line" smooth="yes"/>
      <point x="226" y="597"/>
      <point x="240" y="639"/>
      <point x="271" y="684" type="curve" smooth="yes"/>
      <point x="284" y="702" type="line"/>
      <point x="271" y="718" type="line"/>
      <point x="52" y="718" type="line"/>
      <point x="40" y="684" type="line"/>
      <point x="63" y="678" type="line"/>
      <point x="113" y="664"/>
      <point x="127" y="647"/>
      <point x="127" y="585" type="curve" smooth="yes"/>
      <point x="127" y="133" type="line" smooth="yes"/>
      <point x="127" y="69"/>
      <point x="113" y="55"/>
      <point x="63" y="40" type="curve"/>
      <point x="40" y="34" type="line"/>
      <point x="52" y="0" type="line"/>
    </contour>
    <contour>
      <point x="470" y="300" type="line" smooth="yes"/>
      <point x="451" y="333"/>
      <point x="427" y="351"/>
      <point x="401" y="363" type="curve"/>
      <point x="581" y="624" type="line" smooth="yes"/>
      <point x="605" y="659"/>
      <point x="629" y="672"/>
      <point x="658" y="678" type="curve" smooth="yes"/>
      <point x="682" y="684" type="line"/>
      <point x="670" y="718" type="line"/>
      <point x="488" y="718" type="line"/>
      <point x="470" y="702" type="line"/>
      <point x="478" y="684" type="line"/>
      <point x="483" y="673"/>
      <point x="491" y="655"/>
      <point x="491" y="639" type="curve" smooth="yes"/>
      <point x="491" y="623"/>
      <point x="489" y="609"/>
      <point x="471" y="582" type="curve" smooth="yes"/>
      <point x="334" y="381" type="line"/>
      <point x="311" y="381" type="line" smooth="yes"/>
      <point x="293" y="381"/>
      <point x="291" y="367"/>
      <point x="291" y="357" type="curve" smooth="yes"/>
      <point x="291" y="353"/>
      <point x="292" y="347"/>
      <point x="295" y="346" type="curve"/>
      <point x="320" y="334"/>
      <point x="333" y="327"/>
      <point x="347" y="301" type="curve" smooth="yes"/>
      <point x="467" y="84" type="line" smooth="yes"/>
      <point x="500" y="23"/>
      <point x="536" y="-14"/>
      <point x="599" y="-14" type="curve" smooth="yes"/>
      <point x="630" y="-14"/>
      <point x="663" y="-3"/>
      <point x="691" y="26" type="curve"/>
      <point x="675" y="55" type="line"/>
      <point x="661" y="44"/>
      <point x="649" y="41"/>
      <point x="636" y="41" type="curve" smooth="yes"/>
      <point x="618" y="41"/>
      <point x="609" y="54"/>
      <point x="597" y="71" type="curve"/>
    </contour>
    <component base="verticalbar-cy.case" xOffset="214" yOffset="-9"/>
  </outline>
</glyph>
<glyph name="kaverticalstroke-cy" format="1">
  <advance width="624"/>
  <unicode hex="049D"/>
  <outline>
    <contour>
      <point x="279" y="0" type="line"/>
      <point x="289" y="30" type="line"/>
      <point x="269" y="36" type="line" smooth="yes"/>
      <point x="226" y="49"/>
      <point x="213" y="59"/>
      <point x="213" y="115" type="curve" smooth="yes"/>
      <point x="213" y="312" type="line" smooth="yes"/>
      <point x="213" y="387"/>
      <point x="224" y="426"/>
      <point x="254" y="467" type="curve" smooth="yes"/>
      <point x="266" y="483" type="line"/>
      <point x="254" y="497" type="line"/>
      <point x="55" y="497" type="line"/>
      <point x="45" y="467" type="line"/>
      <point x="65" y="460" type="line"/>
      <point x="112" y="447"/>
      <point x="124" y="432"/>
      <point x="124" y="375" type="curve" smooth="yes"/>
      <point x="124" y="122" type="line" smooth="yes"/>
      <point x="124" y="65"/>
      <point x="112" y="51"/>
      <point x="65" y="38" type="curve"/>
      <point x="45" y="31" type="line"/>
      <point x="55" y="0" type="line"/>
    </contour>
    <contour>
      <point x="445" y="191" type="line"/>
      <point x="430" y="223"/>
      <point x="407" y="240"/>
      <point x="383" y="252" type="curve"/>
      <point x="498" y="410" type="line" smooth="yes"/>
      <point x="520" y="441"/>
      <point x="543" y="454"/>
      <point x="571" y="460" type="curve" smooth="yes"/>
      <point x="590" y="466" type="line"/>
      <point x="580" y="497" type="line"/>
      <point x="417" y="497" type="line"/>
      <point x="401" y="482" type="line"/>
      <point x="408" y="466" type="line" smooth="yes"/>
      <point x="414" y="454"/>
      <point x="416" y="443"/>
      <point x="416" y="431" type="curve" smooth="yes"/>
      <point x="416" y="412"/>
      <point x="408" y="393"/>
      <point x="395" y="374" type="curve" smooth="yes"/>
      <point x="317" y="265" type="line"/>
      <point x="298" y="265" type="line" smooth="yes"/>
      <point x="283" y="265"/>
      <point x="281" y="252"/>
      <point x="281" y="245" type="curve" smooth="yes"/>
      <point x="281" y="240"/>
      <point x="281" y="235"/>
      <point x="285" y="233" type="curve" smooth="yes"/>
      <point x="307" y="223"/>
      <point x="317" y="216"/>
      <point x="332" y="192" type="curve" smooth="yes"/>
      <point x="401" y="77" type="line" smooth="yes"/>
      <point x="434" y="19"/>
      <point x="465" y="-14"/>
      <point x="524" y="-14" type="curve" smooth="yes"/>
      <point x="553" y="-14"/>
      <point x="583" y="-3"/>
      <point x="609" y="23" type="curve"/>
      <point x="593" y="51" type="line"/>
      <point x="580" y="41"/>
      <point x="570" y="38"/>
      <point x="556" y="38" type="curve" smooth="yes"/>
      <point x="541" y="38"/>
      <point x="532" y="50"/>
      <point x="522" y="65" type="curve" smooth="yes"/>
    </contour>
    <component base="verticalbar-cy" xOffset="208" yOffset="-2"/>
  </outline>
</glyph>
<glyph name="kabashkir-cy" format="1">
  <advance width="641"/>
  <unicode hex="04A1"/>
  <outline>
    <contour>
      <point x="273" y="350" type="line" smooth="yes"/>
      <point x="273" y="401"/>
      <point x="289" y="433"/>
      <point x="312" y="467" type="curve" smooth="yes"/>
      <point x="324" y="483" type="line"/>
      <point x="312" y="497" type="line"/>
      <point x="139" y="497" type="line" smooth="yes"/>
      <point x="86" y="497"/>
      <point x="53" y="501"/>
      <point x="33" y="515" type="curve"/>
      <point x="18" y="528" type="line"/>
      <point x="2" y="515" type="line"/>
      <point x="2" y="351" type="line"/>
      <point x="33" y="342" type="line"/>
      <point x="40" y="362" type="line"/>
      <point x="57" y="429"/>
      <point x="74" y="444"/>
      <point x="140" y="444" type="curve" smooth="yes"/>
      <point x="151" y="444" type="line" smooth="yes"/>
      <point x="175" y="444"/>
      <point x="182" y="432"/>
      <point x="182" y="375" type="curve" smooth="yes"/>
      <point x="182" y="122" type="line" smooth="yes"/>
      <point x="182" y="65"/>
      <point x="170" y="51"/>
      <point x="123" y="38" type="curve"/>
      <point x="103" y="31" type="line"/>
      <point x="113" y="0" type="line"/>
      <point x="337" y="0" type="line"/>
      <point x="347" y="30" type="line"/>
      <point x="327" y="36" type="line"/>
      <point x="284" y="50"/>
      <point x="271" y="59"/>
      <point x="271" y="115" type="curve"/>
    </contour>
    <contour>
      <point x="597" y="41"/>
      <point x="587" y="38"/>
      <point x="573" y="38" type="curve" smooth="yes"/>
      <point x="558" y="38"/>
      <point x="550" y="50"/>
      <point x="540" y="65" type="curve" smooth="yes"/>
      <point x="462" y="191" type="line"/>
      <point x="447" y="223"/>
      <point x="425" y="240"/>
      <point x="401" y="252" type="curve"/>
      <point x="515" y="410" type="line" smooth="yes"/>
      <point x="538" y="441"/>
      <point x="560" y="454"/>
      <point x="588" y="460" type="curve"/>
      <point x="608" y="466" type="line"/>
      <point x="597" y="497" type="line"/>
      <point x="434" y="497" type="line"/>
      <point x="418" y="482" type="line"/>
      <point x="426" y="466" type="line" smooth="yes"/>
      <point x="431" y="454"/>
      <point x="433" y="443"/>
      <point x="433" y="431" type="curve" smooth="yes"/>
      <point x="433" y="412"/>
      <point x="426" y="393"/>
      <point x="413" y="374" type="curve"/>
      <point x="334" y="265" type="line"/>
      <point x="316" y="265" type="line" smooth="yes"/>
      <point x="301" y="265"/>
      <point x="298" y="252"/>
      <point x="298" y="245" type="curve" smooth="yes"/>
      <point x="298" y="240"/>
      <point x="298" y="235"/>
      <point x="303" y="233" type="curve"/>
      <point x="324" y="223"/>
      <point x="334" y="216"/>
      <point x="349" y="192" type="curve" smooth="yes"/>
      <point x="418" y="77" type="line" smooth="yes"/>
      <point x="451" y="19"/>
      <point x="483" y="-14"/>
      <point x="541" y="-14" type="curve" smooth="yes"/>
      <point x="570" y="-14"/>
      <point x="600" y="-3"/>
      <point x="626" y="23" type="curve"/>
      <point x="610" y="51" type="line"/>
    </contour>
  </outline>
</glyph>
<glyph name="chekhakassian-cy" format="1">
  <advance width="530"/>
  <unicode hex="04CC"/>
  <outline>
    <contour>
      <point x="354" y="97" type="line"/>
      <point x="354" y="56"/>
      <point x="313" y="39"/>
      <point x="264" y="39" type="curve"/>
      <point x="264" y="-168" type="line"/>
      <point x="296" y="-180" type="line"/>
      <point x="300" y="-158" type="line" smooth="yes"/>
      <point x="320" y="-50"/>
      <point x="356" y="0"/>
      <point x="439" y="0" type="curve" smooth="yes"/>
      <point x="444" y="0" type="line"/>
      <point x="444" y="97" type="line"/>
    </contour>
    <component base="che-cy"/>
  </outline>
</glyph>
<glyph name="Schwa-cy" format="1">
  <advance width="628"/>
  <unicode hex="04D8"/>
  <outline>
    <contour>
      <point x="594" y="566"/>
      <point x="491" y="732"/>
      <point x="271" y="732" type="curve" smooth="yes"/>
      <point x="212" y="732"/>
      <point x="171" y="718"/>
      <point x="139" y="718" type="curve" smooth="yes"/>
      <point x="124" y="718"/>
      <point x="112" y="720"/>
      <point x="101" y="730" type="curve"/>
      <point x="83" y="742" type="line"/>
      <point x="66" y="730" type="line"/>
      <point x="66" y="551" type="line"/>
      <point x="101" y="539" type="line"/>
      <point x="106" y="562" type="line" smooth="yes"/>
      <point x="125" y="645"/>
      <point x="187" y="676"/>
      <point x="248" y="676" type="curve" smooth="yes"/>
      <point x="408" y="676"/>
      <point x="472" y="535"/>
      <point x="480" y="395" type="curve" smooth="yes"/>
      <point x="481" y="161"/>
      <point x="409" y="44"/>
      <point x="280" y="44" type="curve" smooth="yes"/>
      <point x="195" y="44"/>
      <point x="135" y="97"/>
      <point x="135" y="206" type="curve" smooth="yes"/>
      <point x="135" y="312"/>
      <point x="203" y="382"/>
      <point x="311" y="382" type="curve" smooth="yes"/>
      <point x="364" y="382"/>
      <point x="382" y="363"/>
      <point x="397" y="363" type="curve" smooth="yes"/>
      <point x="409" y="363"/>
      <point x="418" y="378"/>
      <point x="418" y="396" type="curve" smooth="yes"/>
      <point x="418" y="420"/>
      <point x="368" y="438"/>
      <point x="297" y="438" type="curve" smooth="yes"/>
      <point x="137" y="438"/>
      <point x="35" y="328"/>
      <point x="35" y="199" type="curve" smooth="yes"/>
      <point x="35" y="79"/>
      <point x="120" y="-13"/>
      <point x="260" y="-13" type="curve" smooth="yes"/>
      <point x="455" y="-13"/>
      <point x="589" y="133"/>
      <point x="593" y="358" type="curve" smooth="yes"/>
    </contour>
  </outline>
</glyph>
<glyph name="schwa-cy" format="1">
  <advance width="524"/>
  <unicode hex="04D9"/>
  <outline>
    <contour>
      <point x="479" y="250" type="curve" smooth="yes"/>
      <point x="478" y="409"/>
      <point x="380" y="506"/>
      <point x="234" y="506" type="curve" smooth="yes"/>
      <point x="183" y="506"/>
      <point x="152" y="494"/>
      <point x="129" y="494" type="curve" smooth="yes"/>
      <point x="116" y="494"/>
      <point x="104" y="496"/>
      <point x="93" y="503" type="curve"/>
      <point x="77" y="516" type="line"/>
      <point x="61" y="503" type="line"/>
      <point x="61" y="340" type="line"/>
      <point x="93" y="330" type="line"/>
      <point x="99" y="350" type="line" smooth="yes"/>
      <point x="119" y="428"/>
      <point x="170" y="453"/>
      <point x="229" y="453" type="curve" smooth="yes"/>
      <point x="326" y="453"/>
      <point x="373" y="390"/>
      <point x="376" y="239" type="curve" smooth="yes"/>
      <point x="373" y="105"/>
      <point x="323" y="31"/>
      <point x="239" y="31" type="curve" smooth="yes"/>
      <point x="171" y="31"/>
      <point x="134" y="68"/>
      <point x="134" y="128" type="curve" smooth="yes"/>
      <point x="134" y="185"/>
      <point x="179" y="241"/>
      <point x="271" y="241" type="curve" smooth="yes"/>
      <point x="312" y="241"/>
      <point x="325" y="229"/>
      <point x="336" y="229" type="curve" smooth="yes"/>
      <point x="343" y="229"/>
      <point x="350" y="239"/>
      <point x="350" y="251" type="curve" smooth="yes"/>
      <point x="350" y="279"/>
      <point x="301" y="298"/>
      <point x="240" y="298" type="curve" smooth="yes"/>
      <point x="113" y="298"/>
      <point x="45" y="211"/>
      <point x="45" y="129" type="curve" smooth="yes"/>
      <point x="45" y="54"/>
      <point x="101" y="-14"/>
      <point x="219" y="-14" type="curve" smooth="yes"/>
      <point x="376" y="-14"/>
      <point x="478" y="88"/>
    </contour>
  </outline>
</glyph>
<glyph name="daggerdbl" format="1">
  <advance width="591"/>
  <unicode hex="2021"/>
  <outline>
    <contour>
      <point x="545" y="624"/>
      <point x="539" y="642"/>
      <point x="524" y="653" type="curve"/>
      <point x="438" y="640"/>
      <point x="367" y="632"/>
      <point x="329" y="622" type="curve"/>
      <point x="333" y="687"/>
      <point x="340" y="749"/>
      <point x="351" y="795" type="curve"/>
      <point x="338" y="817"/>
      <point x="318" y="828"/>
      <point x="295" y="828" type="curve" smooth="yes"/>
      <point x="271" y="828"/>
      <point x="252" y="817"/>
      <point x="239" y="795" type="curve"/>
      <point x="249" y="749"/>
      <point x="256" y="687"/>
      <point x="261" y="622" type="curve"/>
      <point x="222" y="632"/>
      <point x="152" y="640"/>
      <point x="66" y="653" type="curve"/>
      <point x="51" y="642"/>
      <point x="45" y="624"/>
      <point x="45" y="603" type="curve" smooth="yes"/>
      <point x="45" y="581"/>
      <point x="51" y="564"/>
      <point x="66" y="553" type="curve"/>
      <point x="153" y="566"/>
      <point x="226" y="575"/>
      <point x="263" y="585" type="curve"/>
      <point x="278" y="348" type="line"/>
      <point x="263" y="114" type="line"/>
      <point x="226" y="125"/>
      <point x="153" y="133"/>
      <point x="66" y="147" type="curve"/>
      <point x="51" y="136"/>
      <point x="45" y="119"/>
      <point x="45" y="97" type="curve" smooth="yes"/>
      <point x="45" y="76"/>
      <point x="51" y="58"/>
      <point x="66" y="47" type="curve"/>
      <point x="151" y="60"/>
      <point x="222" y="68"/>
      <point x="261" y="78" type="curve"/>
      <point x="256" y="13"/>
      <point x="249" y="-49"/>
      <point x="239" y="-95" type="curve"/>
      <point x="252" y="-117"/>
      <point x="272" y="-128"/>
      <point x="295" y="-128" type="curve" smooth="yes"/>
      <point x="319" y="-128"/>
      <point x="338" y="-117"/>
      <point x="351" y="-95" type="curve"/>
      <point x="340" y="-49"/>
      <point x="334" y="12"/>
      <point x="329" y="78" type="curve"/>
      <point x="367" y="68"/>
      <point x="438" y="60"/>
      <point x="524" y="47" type="curve"/>
      <point x="539" y="58"/>
      <point x="545" y="76"/>
      <point x="545" y="97" type="curve" smooth="yes"/>
      <point x="545" y="119"/>
      <point x="539" y="136"/>
      <point x="524" y="147" type="curve"/>
      <point x="436" y="133"/>
      <point x="364" y="125"/>
      <point x="326" y="114" type="curve"/>
      <point x="311" y="348" type="line"/>
      <point x="326" y="585" type="line"/>
      <point x="364" y="575"/>
      <point x="436" y="566"/>
      <point x="524" y="553" type="curve"/>
      <point x="539" y="564"/>
      <point x="545" y="581"/>
      <point x="545" y="603" type="curve" smooth="yes"/>
    </contour>
  </outline>
</glyph>
<glyph name="twoinferior" format="1">
  <advance width="388"/>
  <unicode hex="2082"/>
  <outline>
    <contour>
      <point x="329" y="0" type="line"/>
      <point x="349" y="17"/>
      <point x="355" y="44"/>
      <point x="355" y="68" type="curve"/>
      <point x="142" y="68" type="line"/>
      <point x="249" y="155"/>
      <point x="343" y="246"/>
      <point x="343" y="327" type="curve" smooth="yes"/>
      <point x="343" y="403"/>
      <point x="283" y="444"/>
      <point x="189" y="444" type="curve" smooth="yes"/>
      <point x="114" y="444"/>
      <point x="42" y="408"/>
      <point x="42" y="334" type="curve" smooth="yes"/>
      <point x="42" y="293"/>
      <point x="74" y="265"/>
      <point x="116" y="265" type="curve" smooth="yes"/>
      <point x="130" y="265"/>
      <point x="138" y="269"/>
      <point x="138" y="276" type="curve" smooth="yes"/>
      <point x="138" y="288"/>
      <point x="121" y="308"/>
      <point x="121" y="330" type="curve" smooth="yes"/>
      <point x="121" y="374"/>
      <point x="154" y="397"/>
      <point x="188" y="397" type="curve" smooth="yes"/>
      <point x="221" y="397"/>
      <point x="254" y="375"/>
      <point x="254" y="328" type="curve" smooth="yes"/>
      <point x="254" y="257"/>
      <point x="220" y="195"/>
      <point x="27" y="38" type="curve"/>
      <point x="46" y="0" type="line"/>
    </contour>
  </outline>
</glyph>
<glyph name="fourinferior" format="1">
  <advance width="395"/>
  <unicode hex="2084"/>
  <outline>
    <contour>
      <point x="348" y="95" type="line"/>
      <point x="364" y="108"/>
      <point x="368" y="129"/>
      <point x="368" y="146" type="curve"/>
      <point x="313" y="146" type="line"/>
      <point x="313" y="296" type="line"/>
      <point x="231" y="287" type="line"/>
      <point x="219" y="273" type="line"/>
      <point x="231" y="254"/>
      <point x="233" y="243"/>
      <point x="233" y="220" type="curve" smooth="yes"/>
      <point x="233" y="146" type="line"/>
      <point x="107" y="146" type="line"/>
      <point x="231" y="421" type="line"/>
      <point x="214" y="436" type="line"/>
      <point x="163" y="436" type="line"/>
      <point x="21" y="95" type="line"/>
      <point x="233" y="95" type="line"/>
      <point x="233" y="85" type="line" smooth="yes"/>
      <point x="233" y="53"/>
      <point x="227" y="46"/>
      <point x="203" y="40" type="curve" smooth="yes"/>
      <point x="169" y="31" type="line"/>
      <point x="181" y="0" type="line"/>
      <point x="336" y="0" type="line"/>
      <point x="348" y="17" type="line"/>
      <point x="337" y="30" type="line" smooth="yes"/>
      <point x="322" y="47"/>
      <point x="317" y="66"/>
      <point x="314" y="95" type="curve"/>
    </contour>
  </outline>
</glyph>
<glyph name="fiveinferior" format="1">
  <advance width="388"/>
  <unicode hex="2085"/>
  <outline>
    <contour>
      <point x="260" y="63"/>
      <point x="223" y="36"/>
      <point x="185" y="36" type="curve" smooth="yes"/>
      <point x="151" y="36"/>
      <point x="119" y="57"/>
      <point x="119" y="93" type="curve" smooth="yes"/>
      <point x="119" y="124"/>
      <point x="136" y="138"/>
      <point x="136" y="147" type="curve" smooth="yes"/>
      <point x="136" y="154"/>
      <point x="130" y="157"/>
      <point x="113" y="157" type="curve" smooth="yes"/>
      <point x="72" y="157"/>
      <point x="39" y="129"/>
      <point x="39" y="88" type="curve" smooth="yes"/>
      <point x="39" y="20"/>
      <point x="112" y="-14"/>
      <point x="186" y="-14" type="curve" smooth="yes"/>
      <point x="284" y="-14"/>
      <point x="346" y="35"/>
      <point x="346" y="115" type="curve" smooth="yes"/>
      <point x="346" y="185"/>
      <point x="299" y="253"/>
      <point x="186" y="253" type="curve" smooth="yes"/>
      <point x="169" y="253"/>
      <point x="145" y="251"/>
      <point x="125" y="247" type="curve"/>
      <point x="131" y="363" type="line"/>
      <point x="299" y="363" type="line"/>
      <point x="319" y="379"/>
      <point x="325" y="408"/>
      <point x="325" y="430" type="curve"/>
      <point x="75" y="430" type="line"/>
      <point x="64" y="226" type="line"/>
      <point x="79" y="197" type="line"/>
      <point x="109" y="203"/>
      <point x="132" y="207"/>
      <point x="148" y="207" type="curve" smooth="yes"/>
      <point x="245" y="207"/>
      <point x="260" y="149"/>
      <point x="260" y="115" type="curve" smooth="yes"/>
    </contour>
  </outline>
</glyph>
<glyph name="sixinferior" format="1">
  <advance width="418"/>
  <unicode hex="2086"/>
  <outline>
    <contour>
      <point x="258" y="391"/>
      <point x="279" y="372"/>
      <point x="279" y="338" type="curve" smooth="yes"/>
      <point x="279" y="309"/>
      <point x="261" y="300"/>
      <point x="261" y="290" type="curve" smooth="yes"/>
      <point x="261" y="280"/>
      <point x="267" y="276"/>
      <point x="284" y="276" type="curve" smooth="yes"/>
      <point x="326" y="276"/>
      <point x="358" y="308"/>
      <point x="358" y="352" type="curve" smooth="yes"/>
      <point x="358" y="403"/>
      <point x="304" y="438"/>
      <point x="231" y="438" type="curve" smooth="yes"/>
      <point x="103" y="438"/>
      <point x="40" y="327"/>
      <point x="40" y="194" type="curve" smooth="yes"/>
      <point x="40" y="81"/>
      <point x="98" y="-14"/>
      <point x="214" y="-14" type="curve" smooth="yes"/>
      <point x="314" y="-14"/>
      <point x="365" y="51"/>
      <point x="365" y="129" type="curve" smooth="yes"/>
      <point x="365" y="199"/>
      <point x="323" y="254"/>
      <point x="236" y="254" type="curve" smooth="yes"/>
      <point x="185" y="254"/>
      <point x="147" y="230"/>
      <point x="126" y="193" type="curve"/>
      <point x="126" y="296"/>
      <point x="154" y="391"/>
      <point x="229" y="391" type="curve" smooth="yes"/>
    </contour>
    <contour>
      <point x="254" y="201"/>
      <point x="273" y="164"/>
      <point x="273" y="121" type="curve" smooth="yes"/>
      <point x="273" y="72"/>
      <point x="250" y="36"/>
      <point x="206" y="36" type="curve" smooth="yes"/>
      <point x="165" y="36"/>
      <point x="148" y="71"/>
      <point x="148" y="116" type="curve" smooth="yes"/>
      <point x="148" y="160"/>
      <point x="170" y="201"/>
      <point x="214" y="201" type="curve" smooth="yes"/>
    </contour>
  </outline>
</glyph>
<glyph name="nineinferior" format="1">
  <advance width="418"/>
  <unicode hex="2089"/>
  <outline>
    <contour>
      <point x="162" y="33"/>
      <point x="139" y="50"/>
      <point x="139" y="78" type="curve" smooth="yes"/>
      <point x="139" y="101"/>
      <point x="154" y="114"/>
      <point x="154" y="122" type="curve" smooth="yes"/>
      <point x="154" y="131"/>
      <point x="147" y="135"/>
      <point x="131" y="135" type="curve" smooth="yes"/>
      <point x="90" y="135"/>
      <point x="61" y="112"/>
      <point x="61" y="75" type="curve" smooth="yes"/>
      <point x="61" y="22"/>
      <point x="117" y="-14"/>
      <point x="194" y="-14" type="curve" smooth="yes"/>
      <point x="314" y="-14"/>
      <point x="369" y="81"/>
      <point x="369" y="201" type="curve" smooth="yes"/>
      <point x="369" y="307"/>
      <point x="329" y="438"/>
      <point x="207" y="438" type="curve" smooth="yes"/>
      <point x="104" y="438"/>
      <point x="52" y="360"/>
      <point x="52" y="286" type="curve" smooth="yes"/>
      <point x="52" y="220"/>
      <point x="95" y="157"/>
      <point x="178" y="157" type="curve" smooth="yes"/>
      <point x="227" y="157"/>
      <point x="261" y="177"/>
      <point x="285" y="214" type="curve"/>
      <point x="285" y="115"/>
      <point x="264" y="33"/>
      <point x="194" y="33" type="curve" smooth="yes"/>
    </contour>
    <contour>
      <point x="268" y="243"/>
      <point x="237" y="213"/>
      <point x="201" y="213" type="curve" smooth="yes"/>
      <point x="168" y="213"/>
      <point x="145" y="240"/>
      <point x="145" y="305" type="curve" smooth="yes"/>
      <point x="145" y="357"/>
      <point x="177" y="387"/>
      <point x="211" y="387" type="curve" smooth="yes"/>
      <point x="243" y="387"/>
      <point x="268" y="360"/>
      <point x="268" y="296" type="curve" smooth="yes"/>
    </contour>
  </outline>
</glyph>
<glyph name="Ohm" format="1">
  <advance width="762"/>
  <unicode hex="2126"/>
  <outline>
    <contour>
      <point x="526" y="677"/>
      <point x="595" y="557"/>
      <point x="595" y="408" type="curve" smooth="yes"/>
      <point x="595" y="306"/>
      <point x="553" y="207"/>
      <point x="442" y="152" type="curve"/>
      <point x="470" y="0" type="line"/>
      <point x="664" y="0" type="line"/>
      <point x="664" y="31" type="line"/>
      <point x="602" y="45" type="line" smooth="yes"/>
      <point x="553" y="56"/>
      <point x="537" y="65"/>
      <point x="529" y="107" type="curve" smooth="yes"/>
      <point x="523" y="140" type="line"/>
      <point x="644" y="198"/>
      <point x="702" y="296"/>
      <point x="702" y="408" type="curve" smooth="yes"/>
      <point x="702" y="586"/>
      <point x="598" y="731"/>
      <point x="381" y="731" type="curve" smooth="yes"/>
      <point x="164" y="731"/>
      <point x="60" y="586"/>
      <point x="60" y="408" type="curve" smooth="yes"/>
      <point x="60" y="296"/>
      <point x="118" y="198"/>
      <point x="239" y="140" type="curve"/>
      <point x="233" y="107" type="line" smooth="yes"/>
      <point x="225" y="65"/>
      <point x="209" y="56"/>
      <point x="160" y="45" type="curve" smooth="yes"/>
      <point x="98" y="31" type="line"/>
      <point x="98" y="0" type="line"/>
      <point x="292" y="0" type="line"/>
      <point x="320" y="152" type="line"/>
      <point x="209" y="207"/>
      <point x="167" y="306"/>
      <point x="167" y="408" type="curve" smooth="yes"/>
      <point x="167" y="557"/>
      <point x="236" y="677"/>
      <point x="381" y="677" type="curve" smooth="yes"/>
    </contour>
  </outline>
</glyph>
<glyph name="increment" format="1">
  <advance width="698"/>
  <unicode hex="2206"/>
  <outline>
    <contour>
      <point x="50" y="0" type="line"/>
      <point x="648" y="0" type="line"/>
      <point x="399" y="718" type="line"/>
      <point x="297" y="718" type="line"/>
    </contour>
    <contour>
      <point x="332" y="614" type="line"/>
      <point x="522" y="62" type="line"/>
      <point x="148" y="62" type="line"/>
    </contour>
  </outline>
</glyph>
<glyph name="infinity" format="1">
  <advance width="842"/>
  <unicode hex="221E"/>
  <outline>
    <contour>
      <point x="136" y="416"/>
      <point x="176" y="470"/>
      <point x="241" y="470" type="curve" smooth="yes"/>
      <point x="294" y="470"/>
      <point x="341" y="439"/>
      <point x="381" y="357" type="curve"/>
      <point x="341" y="275"/>
      <point x="294" y="244"/>
      <point x="241" y="244" type="curve" smooth="yes"/>
      <point x="176" y="244"/>
      <point x="136" y="298"/>
      <point x="136" y="357" type="curve" smooth="yes"/>
    </contour>
    <contour>
      <point x="706" y="298"/>
      <point x="666" y="244"/>
      <point x="601" y="244" type="curve" smooth="yes"/>
      <point x="548" y="244"/>
      <point x="501" y="275"/>
      <point x="461" y="357" type="curve"/>
      <point x="501" y="439"/>
      <point x="548" y="470"/>
      <point x="601" y="470" type="curve" smooth="yes"/>
      <point x="666" y="470"/>
      <point x="706" y="416"/>
      <point x="706" y="357" type="curve" smooth="yes"/>
    </contour>
    <contour>
      <point x="466" y="218"/>
      <point x="525" y="172"/>
      <point x="601" y="172" type="curve" smooth="yes"/>
      <point x="677" y="172"/>
      <point x="782" y="217"/>
      <point x="782" y="357" type="curve" smooth="yes"/>
      <point x="782" y="497"/>
      <point x="677" y="542"/>
      <point x="601" y="542" type="curve" smooth="yes"/>
      <point x="525" y="542"/>
      <point x="466" y="496"/>
      <point x="421" y="421" type="curve"/>
      <point x="376" y="496"/>
      <point x="317" y="542"/>
      <point x="240" y="542" type="curve" smooth="yes"/>
      <point x="165" y="542"/>
      <point x="60" y="497"/>
      <point x="60" y="357" type="curve" smooth="yes"/>
      <point x="60" y="217"/>
      <point x="165" y="172"/>
      <point x="240" y="172" type="curve" smooth="yes"/>
      <point x="317" y="172"/>
      <point x="376" y="218"/>
      <point x="421" y="293" type="curve"/>
    </contour>
  </outline>
</glyph>
<glyph name="integral" format="1">
  <advance width="449"/>
  <unicode hex="222B"/>
  <outline>
    <contour>
      <point x="270" y="697" type="line" smooth="yes"/>
      <point x="270" y="744"/>
      <point x="295" y="777"/>
      <point x="330" y="777" type="curve" smooth="yes"/>
      <point x="365" y="777"/>
      <point x="392" y="743"/>
      <point x="392" y="697" type="curve"/>
      <point x="405" y="687"/>
      <point x="422" y="680"/>
      <point x="438" y="680" type="curve" smooth="yes"/>
      <point x="463" y="680"/>
      <point x="479" y="699"/>
      <point x="479" y="726" type="curve" smooth="yes"/>
      <point x="479" y="780"/>
      <point x="422" y="825"/>
      <point x="353" y="825" type="curve" smooth="yes"/>
      <point x="246" y="825"/>
      <point x="180" y="741"/>
      <point x="180" y="605" type="curve" smooth="yes"/>
      <point x="180" y="-60" type="line" smooth="yes"/>
      <point x="180" y="-107"/>
      <point x="154" y="-140"/>
      <point x="119" y="-140" type="curve" smooth="yes"/>
      <point x="84" y="-140"/>
      <point x="57" y="-106"/>
      <point x="57" y="-60" type="curve"/>
      <point x="44" y="-50"/>
      <point x="27" y="-43"/>
      <point x="11" y="-43" type="curve" smooth="yes"/>
      <point x="-14" y="-43"/>
      <point x="-30" y="-62"/>
      <point x="-30" y="-89" type="curve" smooth="yes"/>
      <point x="-30" y="-143"/>
      <point x="27" y="-188"/>
      <point x="96" y="-188" type="curve" smooth="yes"/>
      <point x="203" y="-188"/>
      <point x="269" y="-104"/>
      <point x="269" y="32" type="curve" smooth="yes"/>
    </contour>
  </outline>
</glyph>
<glyph name="approxequal" format="1">
  <advance width="621"/>
  <unicode hex="2248"/>
  <outline>
    <contour>
      <point x="522" y="503" type="line"/>
      <point x="495" y="526"/>
      <point x="460" y="535"/>
      <point x="425" y="535" type="curve" smooth="yes"/>
      <point x="340" y="535"/>
      <point x="283" y="471"/>
      <point x="200" y="471" type="curve" smooth="yes"/>
      <point x="164" y="471"/>
      <point x="129" y="482"/>
      <point x="99" y="503" type="curve"/>
      <point x="99" y="427" type="line"/>
      <point x="126" y="405"/>
      <point x="161" y="395"/>
      <point x="196" y="395" type="curve" smooth="yes"/>
      <point x="281" y="395"/>
      <point x="338" y="460"/>
      <point x="421" y="460" type="curve" smooth="yes"/>
      <point x="457" y="460"/>
      <point x="492" y="448"/>
      <point x="522" y="427" type="curve"/>
    </contour>
    <contour>
      <point x="522" y="287" type="line"/>
      <point x="495" y="310"/>
      <point x="460" y="319"/>
      <point x="425" y="319" type="curve" smooth="yes"/>
      <point x="340" y="319"/>
      <point x="283" y="255"/>
      <point x="200" y="255" type="curve" smooth="yes"/>
      <point x="164" y="255"/>
      <point x="129" y="266"/>
      <point x="99" y="287" type="curve"/>
      <point x="99" y="211" type="line"/>
      <point x="126" y="189"/>
      <point x="161" y="179"/>
      <point x="196" y="179" type="curve" smooth="yes"/>
      <point x="281" y="179"/>
      <point x="338" y="244"/>
      <point x="421" y="244" type="curve" smooth="yes"/>
      <point x="457" y="244"/>
      <point x="492" y="232"/>
      <point x="522" y="211" type="curve"/>
    </contour>
  </outline>
</glyph>
<glyph name="fl" format="1">
  <advance width="626"/>
  <unicode hex="FB02"/>
  <outline>
    <contour>
      <point x="45" y="481" type="line" smooth="yes"/>
      <point x="24" y="476"/>
      <point x="21" y="470"/>
      <point x="21" y="434" type="curve"/>
      <point x="109" y="434" type="line"/>
      <point x="109" y="-90" type="line" smooth="yes"/>
      <point x="109" y="-163"/>
      <point x="76" y="-195"/>
      <point x="39" y="-195" type="curve" smooth="yes"/>
      <point x="8" y="-195"/>
      <point x="-16" y="-171"/>
      <point x="-16" y="-129" type="curve" smooth="yes"/>
      <point x="-16" y="-82"/>
      <point x="12" y="-66"/>
      <point x="12" y="-57" type="curve" smooth="yes"/>
      <point x="12" y="-49"/>
      <point x="6" y="-46"/>
      <point x="-7" y="-46" type="curve" smooth="yes"/>
      <point x="-64" y="-46"/>
      <point x="-105" y="-85"/>
      <point x="-105" y="-136" type="curve" smooth="yes"/>
      <point x="-105" y="-200"/>
      <point x="-51" y="-238"/>
      <point x="19" y="-238" type="curve" smooth="yes"/>
      <point x="142" y="-238"/>
      <point x="199" y="-147"/>
      <point x="199" y="-13" type="curve" smooth="yes"/>
      <point x="199" y="434" type="line"/>
      <point x="316" y="434" type="line"/>
      <point x="330" y="445"/>
      <point x="339" y="468"/>
      <point x="339" y="497" type="curve"/>
      <point x="199" y="497" type="line"/>
      <point x="199" y="640"/>
      <point x="234" y="737"/>
      <point x="325" y="737" type="curve" smooth="yes"/>
      <point x="393" y="737"/>
      <point x="422" y="686"/>
      <point x="422" y="620" type="curve" smooth="yes"/>
      <point x="422" y="92" type="line" smooth="yes"/>
      <point x="422" y="17"/>
      <point x="444" y="-14"/>
      <point x="499" y="-14" type="curve" smooth="yes"/>
      <point x="533" y="-14"/>
      <point x="576" y="10"/>
      <point x="611" y="49" type="curve"/>
      <point x="592" y="75" type="line"/>
      <point x="575" y="61"/>
      <point x="557" y="54"/>
      <point x="542" y="54" type="curve" smooth="yes"/>
      <point x="522" y="54"/>
      <point x="512" y="66"/>
      <point x="512" y="88" type="curve" smooth="yes"/>
      <point x="513" y="746" type="line" smooth="yes"/>
      <point x="513" y="765"/>
      <point x="511" y="778"/>
      <point x="492" y="778" type="curve" smooth="yes"/>
      <point x="480" y="778"/>
      <point x="455" y="768"/>
      <point x="431" y="751" type="curve"/>
      <point x="405" y="770"/>
      <point x="373" y="782"/>
      <point x="337" y="782" type="curve" smooth="yes"/>
      <point x="201" y="782"/>
      <point x="126" y="668"/>
      <point x="112" y="497" type="curve"/>
    </contour>
  </outline>
</glyph>
<glyph name="acute.case" format="1">
  <advance width="275"/>
  <outline>
    <contour>
      <point x="39" y="825" type="line"/>
      <point x="68" y="790" type="line"/>
      <point x="181" y="846" type="line" smooth="yes"/>
      <point x="222" y="866"/>
      <point x="237" y="889"/>
      <point x="237" y="918" type="curve" smooth="yes"/>
      <point x="237" y="947"/>
      <point x="220" y="969"/>
      <point x="195" y="981" type="curve"/>
    </contour>
  </outline>
</glyph>
<glyph name="brevecomb-cy.case" format="1">
  <advance width="423"/>
  <outline>
    <contour>
      <point x="37" y="834"/>
      <point x="106" y="802"/>
      <point x="212" y="802" type="curve" smooth="yes"/>
      <point x="318" y="802"/>
      <point x="386" y="834"/>
      <point x="386" y="895" type="curve" smooth="yes"/>
      <point x="386" y="939"/>
      <point x="348" y="966"/>
      <point x="308" y="966" type="curve" smooth="yes"/>
      <point x="294" y="966"/>
      <point x="286" y="959"/>
      <point x="286" y="952" type="curve" smooth="yes"/>
      <point x="286" y="942"/>
      <point x="303" y="933"/>
      <point x="303" y="897" type="curve" smooth="yes"/>
      <point x="303" y="867"/>
      <point x="278" y="844"/>
      <point x="212" y="844" type="curve" smooth="yes"/>
      <point x="142" y="844"/>
      <point x="123" y="869"/>
      <point x="123" y="899" type="curve" smooth="yes"/>
      <point x="123" y="934"/>
      <point x="139" y="942"/>
      <point x="139" y="952" type="curve" smooth="yes"/>
      <point x="139" y="959"/>
      <point x="130" y="966"/>
      <point x="118" y="966" type="curve" smooth="yes"/>
      <point x="77" y="966"/>
      <point x="37" y="939"/>
      <point x="37" y="895" type="curve" smooth="yes"/>
    </contour>
    <contour>
      <point x="212" y="718" type="move" name="_top"/>
    </contour>
  </outline>
</glyph>
<glyph name="brevecomb-cy" format="1">
  <advance width="389"/>
  <outline>
    <contour>
      <point x="39" y="603"/>
      <point x="100" y="570"/>
      <point x="194" y="570" type="curve" smooth="yes"/>
      <point x="289" y="570"/>
      <point x="350" y="603"/>
      <point x="350" y="663" type="curve" smooth="yes"/>
      <point x="350" y="707"/>
      <point x="317" y="734"/>
      <point x="281" y="734" type="curve" smooth="yes"/>
      <point x="268" y="734"/>
      <point x="262" y="728"/>
      <point x="262" y="720" type="curve" smooth="yes"/>
      <point x="262" y="710"/>
      <point x="276" y="701"/>
      <point x="276" y="665" type="curve" smooth="yes"/>
      <point x="276" y="635"/>
      <point x="253" y="612"/>
      <point x="194" y="612" type="curve" smooth="yes"/>
      <point x="130" y="612"/>
      <point x="114" y="637"/>
      <point x="114" y="667" type="curve" smooth="yes"/>
      <point x="114" y="702"/>
      <point x="129" y="710"/>
      <point x="129" y="720" type="curve" smooth="yes"/>
      <point x="129" y="728"/>
      <point x="122" y="734"/>
      <point x="111" y="734" type="curve" smooth="yes"/>
      <point x="73" y="734"/>
      <point x="39" y="707"/>
      <point x="39" y="663" type="curve" smooth="yes"/>
    </contour>
    <contour>
      <point x="195" y="497" type="move" name="_top"/>
    </contour>
  </outline>
</glyph>
<glyph name="caroncomb.salt" format="1">
  <advance width="158"/>
  <outline>
    <contour>
      <point x="44" y="551" type="line"/>
      <point x="102" y="662" type="line" smooth="yes"/>
      <point x="123" y="703"/>
      <point x="122" y="730"/>
      <point x="105" y="754" type="curve" smooth="yes"/>
      <point x="88" y="777"/>
      <point x="62" y="785"/>
      <point x="34" y="780" type="curve"/>
      <point x="0" y="562" type="line"/>
    </contour>
    <contour>
      <point x="59" y="781" type="move" name="top"/>
    </contour>
    <contour>
      <point x="0" y="497" type="move" name="_top"/>
    </contour>
  </outline>
</glyph>
<glyph name="che-cy.loclBGR" format="1">
  <advance width="596"/>
  <outline>
    <contour>
      <point x="403" y="290" type="line"/>
      <point x="403" y="273" type="line"/>
      <point x="372" y="246"/>
      <point x="334" y="233"/>
      <point x="289" y="233" type="curve" smooth="yes"/>
      <point x="228" y="233"/>
      <point x="194" y="259"/>
      <point x="194" y="326" type="curve" smooth="yes"/>
      <point x="194" y="360" type="line"/>
      <point x="194" y="478" type="line" smooth="yes"/>
      <point x="194" y="497"/>
      <point x="181" y="510"/>
      <point x="162" y="510" type="curve" smooth="yes"/>
      <point x="121" y="510"/>
      <point x="65" y="485"/>
      <point x="30" y="450" type="curve"/>
      <point x="39" y="424" type="line"/>
      <point x="83" y="424" type="line" smooth="yes"/>
      <point x="96" y="424"/>
      <point x="103" y="417"/>
      <point x="103" y="402" type="curve" smooth="yes"/>
      <point x="103" y="360" type="line"/>
      <point x="102" y="312" type="line"/>
      <point x="102" y="212"/>
      <point x="153" y="164"/>
      <point x="256" y="164" type="curve" smooth="yes"/>
      <point x="320" y="164"/>
      <point x="364" y="182"/>
      <point x="403" y="213" type="curve"/>
      <point x="403" y="124" type="line" smooth="yes"/>
      <point x="403" y="65"/>
      <point x="393" y="49"/>
      <point x="345" y="38" type="curve"/>
      <point x="325" y="32" type="line"/>
      <point x="335" y="0" type="line"/>
      <point x="561" y="0" type="line"/>
      <point x="570" y="31" type="line"/>
      <point x="551" y="36" type="line" smooth="yes"/>
      <point x="506" y="49"/>
      <point x="495" y="63"/>
      <point x="495" y="115" type="curve" smooth="yes"/>
      <point x="495" y="290" type="line"/>
      <point x="495" y="300" type="line"/>
      <point x="495" y="510" type="line"/>
      <point x="364" y="497" type="line"/>
      <point x="352" y="482" type="line"/>
      <point x="364" y="466" type="line"/>
      <point x="379" y="441"/>
      <point x="389" y="414"/>
      <point x="394" y="386" type="curve" smooth="yes"/>
      <point x="399" y="364"/>
      <point x="402" y="338"/>
      <point x="403" y="300" type="curve" smooth="yes"/>
    </contour>
  </outline>
</glyph>
<glyph name="circumflex.case" format="1">
  <advance width="275"/>
  <outline>
    <contour>
      <point x="125" y="976" type="line"/>
      <point x="99" y="961"/>
      <point x="45" y="894"/>
      <point x="1" y="818" type="curve"/>
      <point x="34" y="790" type="line"/>
      <point x="138" y="873" type="line"/>
      <point x="243" y="790" type="line"/>
      <point x="275" y="818" type="line"/>
      <point x="231" y="896"/>
      <point x="174" y="963"/>
      <point x="152" y="976" type="curve"/>
    </contour>
  </outline>
</glyph>
<glyph name="descender-cy.case" format="1">
  <advance width="243"/>
  <outline>
    <contour>
      <point x="-9" y="0" type="line"/>
      <point x="10" y="0" type="line" smooth="yes"/>
      <point x="100" y="0"/>
      <point x="123" y="-55"/>
      <point x="158" y="-169" type="curve" smooth="yes"/>
      <point x="164" y="-193" type="line"/>
      <point x="199" y="-181" type="line"/>
      <point x="199" y="42" type="line"/>
      <point x="145" y="42"/>
      <point x="91" y="61"/>
      <point x="91" y="105" type="curve"/>
      <point x="-9" y="105" type="line"/>
    </contour>
    <contour>
      <point x="-9" y="0" type="move" name="_bottomright"/>
    </contour>
  </outline>
</glyph>
<glyph name="dieresis.case" format="1">
  <advance width="275"/>
  <outline>
    <contour>
      <point x="-19" y="853"/>
      <point x="19" y="814"/>
      <point x="42" y="814" type="curve" smooth="yes"/>
      <point x="67" y="814"/>
      <point x="105" y="853"/>
      <point x="105" y="879" type="curve" smooth="yes"/>
      <point x="105" y="905"/>
      <point x="67" y="945"/>
      <point x="42" y="945" type="curve" smooth="yes"/>
      <point x="18" y="945"/>
      <point x="-19" y="905"/>
      <point x="-19" y="879" type="curve" smooth="yes"/>
    </contour>
    <contour>
      <point x="170" y="853"/>
      <point x="208" y="814"/>
      <point x="231" y="814" type="curve" smooth="yes"/>
      <point x="256" y="814"/>
      <point x="294" y="853"/>
      <point x="294" y="879" type="curve" smooth="yes"/>
      <point x="294" y="905"/>
      <point x="256" y="945"/>
      <point x="231" y="945" type="curve" smooth="yes"/>
      <point x="207" y="945"/>
      <point x="170" y="905"/>
      <point x="170" y="879" type="curve" smooth="yes"/>
    </contour>
  </outline>
</glyph>
<glyph name="el-cy.loclBGR" format="1">
  <advance width="528"/>
  <outline>
    <contour>
      <point x="325" y="18" type="line" smooth="yes"/>
      <point x="328" y="-2"/>
      <point x="339" y="-14"/>
      <point x="357" y="-14" type="curve" smooth="yes"/>
      <point x="394" y="-14"/>
      <point x="453" y="11"/>
      <point x="488" y="46" type="curve"/>
      <point x="479" y="72" type="line"/>
      <point x="435" y="72" type="line" smooth="yes"/>
      <point x="422" y="72"/>
      <point x="419" y="78"/>
      <point x="415" y="94" type="curve" smooth="yes"/>
      <point x="347" y="434" type="line" smooth="yes"/>
      <point x="338" y="477"/>
      <point x="321" y="510"/>
      <point x="283" y="510" type="curve" smooth="yes"/>
      <point x="255" y="510"/>
      <point x="200" y="510"/>
      <point x="161" y="482" type="curve"/>
      <point x="214" y="472"/>
      <point x="240" y="448"/>
      <point x="240" y="422" type="curve" smooth="yes"/>
      <point x="240" y="413"/>
      <point x="237" y="404"/>
      <point x="231" y="395" type="curve" smooth="yes"/>
      <point x="164" y="284"/>
      <point x="40" y="208"/>
      <point x="40" y="92" type="curve" smooth="yes"/>
      <point x="40" y="63"/>
      <point x="42" y="27"/>
      <point x="55" y="-14" type="curve"/>
      <point x="151" y="0" type="line"/>
      <point x="176" y="13" type="line"/>
      <point x="144" y="58"/>
      <point x="137" y="116"/>
      <point x="137" y="146" type="curve" smooth="yes"/>
      <point x="137" y="232"/>
      <point x="223" y="263"/>
      <point x="269" y="387" type="curve"/>
    </contour>
  </outline>
</glyph>
